<?xml version="1.0" encoding="UTF-8" standalone="no"?>
<!DOCTYPE svg PUBLIC "-//W3C//DTD SVG 1.1//EN" "http://www.w3.org/Graphics/SVG/1.1/DTD/svg11.dtd">
<svg version="1.1" xmlns="http://www.w3.org/2000/svg" xmlns:xlink="http://www.w3.org/1999/xlink" preserveAspectRatio="xMidYMid meet" viewBox="0 0 267.84 39.74" width="267.84" height="39.74"><defs><path d="M39 0C39 23.41 39 36.4 39 39C39 39 39 39 39 39C15.59 39 2.6 39 0 39C0 39 0 39 0 39C0 15.6 0 2.6 0 0C0 0 0 0 0 0C23.4 0 36.4 0 39 0C39 0 39 0 39 0Z" id="a15rx9rNId"></path><path d="M39 0C39 23.41 39 36.4 39 39C39 39 39 39 39 39C15.59 39 2.6 39 0 39C0 39 0 39 0 39C0 15.6 0 2.6 0 0C0 0 0 0 0 0C23.4 0 36.4 0 39 0C39 0 39 0 39 0Z" id="bIxICmmDa"></path><path d="M55.15 28.77L49.46 28.77L57.04 9.5L62.23 9.5L69.96 28.77L64.11 28.77L63.04 25.64L56.22 25.64L55.15 28.77ZM61.76 21.49L59.63 15.53L57.51 21.49L61.76 21.49Z" id="cgI1UriIT"></path><path d="M55.15 28.77L49.46 28.77L57.04 9.5L62.23 9.5L69.96 28.77L64.11 28.77L63.04 25.64L56.22 25.64L55.15 28.77ZM61.76 21.49L59.63 15.53L57.51 21.49L61.76 21.49Z" id="c4ffyymkSD"></path><path d="M71.82 28.78L71.82 9.51L77.2 9.51L77.2 23.92L84.05 23.92L84.05 28.78L71.82 28.78Z" id="b1FD7cn7vD"></path><path d="M71.82 28.78L71.82 9.51L77.2 9.51L77.2 23.92L84.05 23.92L84.05 28.78L71.82 28.78Z" id="a1pLPggMWg"></path><path d="M93.25 28.78L87.91 28.78L87.91 14.29L82.68 14.29L82.68 9.51L98.48 9.51L98.48 14.29L93.25 14.29L93.25 28.78Z" id="aYynt8QY9"></path><path d="M93.25 28.78L87.91 28.78L87.91 14.29L82.68 14.29L82.68 9.51L98.48 9.51L98.48 14.29L93.25 14.29L93.25 28.78Z" id="a17bWDLhCB"></path><path d="M102.72 28.77L97.03 28.77L104.61 9.5L109.8 9.5L117.53 28.77L111.68 28.77L110.61 25.64L103.79 25.64L102.72 28.77ZM109.33 21.49L107.2 15.53L105.08 21.49L109.33 21.49Z" id="b4PUi9dOhd"></path><path d="M102.72 28.77L97.03 28.77L104.61 9.5L109.8 9.5L117.53 28.77L111.68 28.77L110.61 25.64L103.79 25.64L102.72 28.77ZM109.33 21.49L107.2 15.53L105.08 21.49L109.33 21.49Z" id="bawa45IfK"></path><path d="M132.18 28.78L124.53 18.32L124.53 28.78L119.38 28.78L119.38 9.51L124.03 9.51L131.43 19.62L131.43 9.51L136.57 9.51L136.57 28.78L132.18 28.78Z" id="c2gnnRa2nY"></path><path d="M132.18 28.78L124.53 18.32L124.53 28.78L119.38 28.78L119.38 9.51L124.03 9.51L131.43 19.62L131.43 9.51L136.57 9.51L136.57 28.78L132.18 28.78Z" id="dLC8yzevz"></path><path d="M145.35 28.78L145.35 21.23L138.67 9.51L144.56 9.51L148.07 16.47L151.59 9.51L157.48 9.51L150.76 21.25L150.76 28.78L145.35 28.78Z" id="ctiKu3MpJ"></path><path d="M145.35 28.78L145.35 21.23L138.67 9.51L144.56 9.51L148.07 16.47L151.59 9.51L157.48 9.51L150.76 21.25L150.76 28.78L145.35 28.78Z" id="ailbuprlV"></path><path d="M170.5 28.78L165.19 28.78L165.19 9.51L170.5 9.51L170.5 17.64L175.6 9.51L181.75 9.51L175.58 18.84L182.32 28.78L176.03 28.78L170.5 20.27L170.5 28.78Z" id="cGS6PimO2"></path><path d="M170.5 28.78L165.19 28.78L165.19 9.51L170.5 9.51L170.5 17.64L175.6 9.51L181.75 9.51L175.58 18.84L182.32 28.78L176.03 28.78L170.5 20.27L170.5 28.78Z" id="aN4qDuoXf"></path><path d="M187.65 28.77L181.96 28.77L189.53 9.5L194.73 9.5L202.46 28.77L196.61 28.77L195.55 25.64L188.72 25.64L187.65 28.77ZM194.24 21.49L192.12 15.53L190 21.49L194.24 21.49Z" id="aUD4W9Mld"></path><path d="M187.65 28.77L181.96 28.77L189.53 9.5L194.73 9.5L202.46 28.77L196.61 28.77L195.55 25.64L188.72 25.64L187.65 28.77ZM194.24 21.49L192.12 15.53L190 21.49L194.24 21.49Z" id="e4TBG0wwRj"></path><path d="M209.62 28.78L204.31 28.78C204.31 17.22 204.31 10.79 204.31 9.51C209.32 9.51 212.11 9.51 212.66 9.51C216.82 9.51 219.82 12.3 219.82 16.33C219.82 18.7 218.66 20.63 216.77 21.77C217.02 22.24 218.3 24.56 220.58 28.77C220.19 28.77 218.22 28.77 214.67 28.77L211.55 22.89L209.62 22.89L209.62 28.78ZM214.38 16.31C214.38 15.11 213.53 14.22 212.05 14.22C211.89 14.22 211.07 14.22 209.62 14.22C209.62 14.64 209.62 17.99 209.62 18.41C211.07 18.41 211.89 18.41 212.05 18.41C213.53 18.41 214.38 17.52 214.38 16.31Z" id="a1JdY5Mgj9"></path><path d="M209.62 28.78L204.31 28.78C204.31 17.22 204.31 10.79 204.31 9.51C209.32 9.51 212.11 9.51 212.66 9.51C216.82 9.51 219.82 12.3 219.82 16.33C219.82 18.7 218.66 20.63 216.77 21.77C217.02 22.24 218.3 24.56 220.58 28.77C220.19 28.77 218.22 28.77 214.67 28.77L211.55 22.89L209.62 22.89L209.62 28.78ZM214.38 16.31C214.38 15.11 213.53 14.22 212.05 14.22C211.89 14.22 211.07 14.22 209.62 14.22C209.62 14.64 209.62 17.99 209.62 18.41C211.07 18.41 211.89 18.41 212.05 18.41C213.53 18.41 214.38 17.52 214.38 16.31Z" id="ajlbS08AX"></path><path d="M225.68 27.33C222.68 25.24 221.74 21.7 221.74 19.15C221.74 13.25 226.16 9.02 232.36 9.02C238.54 9.02 242.94 13.24 242.94 19.15C242.95 25.05 238.54 29.26 232.36 29.26C232.36 29.26 232.36 29.26 232.36 29.26C231.09 29.22 229.93 29.05 228.9 28.78C227.64 28.45 226.56 27.95 225.68 27.33ZM227.28 19.16C227.28 22.16 229.43 24.34 232.36 24.34C235.3 24.33 237.42 22.17 237.42 19.16C237.42 16.13 235.31 13.97 232.36 13.97C229.43 13.97 227.28 16.14 227.28 19.16Z" id="e6XwN3ZQv"></path><path d="M225.68 27.33C222.68 25.24 221.74 21.7 221.74 19.15C221.74 13.25 226.16 9.02 232.36 9.02C238.54 9.02 242.94 13.24 242.94 19.15C242.95 25.05 238.54 29.26 232.36 29.26C232.36 29.26 232.36 29.26 232.36 29.26C231.09 29.22 229.93 29.05 228.9 28.78C227.64 28.45 226.56 27.95 225.68 27.33ZM227.28 19.16C227.28 22.16 229.43 24.34 232.36 24.34C235.3 24.33 237.42 22.17 237.42 19.16C237.42 16.13 235.31 13.97 232.36 13.97C229.43 13.97 227.28 16.14 227.28 19.16Z" id="fd4V2wEaj"></path><path d="M258.47 28.78L250.81 18.32L250.81 28.78L245.67 28.78L245.67 9.51L250.31 9.51L257.71 19.62L257.71 9.51L262.85 9.51L262.85 28.78L258.47 28.78Z" id="aaYlUwoLt"></path><path d="M258.47 28.78L250.81 18.32L250.81 28.78L245.67 28.78L245.67 9.51L250.31 9.51L257.71 19.62L257.71 9.51L262.85 9.51L262.85 28.78L258.47 28.78Z" id="b7I2JrYXIK"></path><path d="M5.37 18.11L5.37 15.75L35.13 15.75L35.22 15.81L35.22 18.11L5.37 18.11Z" id="b4azA9y2jS"></path><path d="M5.37 18.11L5.37 15.75L35.13 15.75L35.22 15.81L35.22 18.11L5.37 18.11Z" id="a8saK77eIL"></path><path d="M5.02 15.05L5.02 14.94L6 14.32L34.26 14.32L34.87 14.72L34.87 15.05L5.02 15.05Z" id="b10zANctrb"></path><path d="M5.02 15.05L5.02 14.94L6 14.32L34.26 14.32L34.87 14.72L34.87 15.05L5.02 15.05Z" id="bm4sK1Sez"></path><path d="M8.57 12.64L31.69 12.64L32.83 13.38L7.42 13.38L8.57 12.64Z" id="a2IoOkZlpZ"></path><path d="M8.57 12.64L31.69 12.64L32.83 13.38L7.42 13.38L8.57 12.64Z" id="b1aGNVaLB9"></path><path d="M11.13 10.97L29.11 10.97L30.26 11.71L9.99 11.71L11.13 10.97Z" id="b8ZcfoXSi"></path><path d="M11.13 10.97L29.11 10.97L30.26 11.71L9.99 11.71L11.13 10.97Z" id="fo5zVPsCm"></path><path d="M13.71 9.3L26.55 9.3L27.68 10.05L12.55 10.05L13.71 9.3Z" id="b1GUGtYphe"></path><path d="M13.71 9.3L26.55 9.3L27.68 10.05L12.55 10.05L13.71 9.3Z" id="bLNL5c8kU"></path><path d="M7.72 15.75C7.72 27.84 7.72 34.56 7.72 35.91C7.72 35.91 7.72 35.91 7.72 35.91C6.31 35.91 5.53 35.91 5.37 35.91C5.37 35.91 5.37 35.91 5.37 35.91C5.37 23.82 5.37 17.1 5.37 15.75C5.37 15.75 5.37 15.75 5.37 15.75C6.78 15.75 7.57 15.75 7.72 15.75C7.72 15.75 7.72 15.75 7.72 15.75Z" id="f29Rm5E1T"></path><path d="M7.72 15.75C7.72 27.84 7.72 34.56 7.72 35.91C7.72 35.91 7.72 35.91 7.72 35.91C6.31 35.91 5.53 35.91 5.37 35.91C5.37 35.91 5.37 35.91 5.37 35.91C5.37 23.82 5.37 17.1 5.37 15.75C5.37 15.75 5.37 15.75 5.37 15.75C6.78 15.75 7.57 15.75 7.72 15.75C7.72 15.75 7.72 15.75 7.72 15.75Z" id="b3TvE1Gmhq"></path><path d="M32.87 35.91L32.87 15.75L35.13 15.75L35.22 15.81L35.22 35.91L32.87 35.91Z" id="actENkcBP"></path><path d="M32.87 35.91L32.87 15.75L35.13 15.75L35.22 15.81L35.22 35.91L32.87 35.91Z" id="lJbPHUzI9"></path><path d="M18.01 9.3L16.86 10.05L15.44 10.97L14.3 11.71L12.87 12.64L11.73 13.38L10.28 14.32L9.16 15.05L8.08 15.75L7.73 15.98L6.93 16.5L5.37 17.51L5.31 17.55L3.05 19.01L2.55 19.34L2.55 16.55L2.63 16.5L5.02 14.94L6 14.32L7.42 13.38L8.57 12.64L9.99 11.71L11.13 10.97L12.55 10.05L13.71 9.3L19.06 5.82L20.04 5.18L20.12 5.13L20.15 5.11L20.21 5.18L20.98 6.17L21.6 6.97L20.12 7.93L18.01 9.3Z" id="a1FFTPQlkv"></path><path d="M18.01 9.3L16.86 10.05L15.44 10.97L14.3 11.71L12.87 12.64L11.73 13.38L10.28 14.32L9.16 15.05L8.08 15.75L7.73 15.98L6.93 16.5L5.37 17.51L5.31 17.55L3.05 19.01L2.55 19.34L2.55 16.55L2.63 16.5L5.02 14.94L6 14.32L7.42 13.38L8.57 12.64L9.99 11.71L11.13 10.97L12.55 10.05L13.71 9.3L19.06 5.82L20.04 5.18L20.12 5.13L20.15 5.11L20.21 5.18L20.98 6.17L21.6 6.97L20.12 7.93L18.01 9.3Z" id="c4EvIdlxD"></path><path d="M37.19 19.01L35.22 17.73L34.93 17.55L33.31 16.5L32.87 16.21L32.17 15.75L31.1 15.05L29.95 14.32L28.52 13.38L27.38 12.64L25.95 11.71L24.81 10.97L23.39 10.05L22.24 9.3L20.12 7.93L18.65 6.97L19.28 6.15L20.04 5.18L20.1 5.11L20.12 5.13L20.21 5.18L21.24 5.85L26.55 9.3L27.68 10.05L29.11 10.97L30.26 11.71L31.69 12.64L32.83 13.38L34.26 14.32L34.87 14.72L37.62 16.5L37.69 16.55L37.69 19.34L37.19 19.01Z" id="g1DPjjf2Dc"></path><path d="M37.19 19.01L35.22 17.73L34.93 17.55L33.31 16.5L32.87 16.21L32.17 15.75L31.1 15.05L29.95 14.32L28.52 13.38L27.38 12.64L25.95 11.71L24.81 10.97L23.39 10.05L22.24 9.3L20.12 7.93L18.65 6.97L19.28 6.15L20.04 5.18L20.1 5.11L20.12 5.13L20.21 5.18L21.24 5.85L26.55 9.3L27.68 10.05L29.11 10.97L30.26 11.71L31.69 12.64L32.83 13.38L34.26 14.32L34.87 14.72L37.62 16.5L37.69 16.55L37.69 19.34L37.19 19.01Z" id="e1D5gctWX3"></path><path d="M15.51 17.16C9.76 21.26 6.58 23.53 5.94 23.98C5.94 23.98 5.94 23.98 5.94 23.98C5.65 23.58 5.49 23.36 5.46 23.31C5.46 23.31 5.46 23.31 5.46 23.31C11.2 19.22 14.39 16.94 15.02 16.49C15.02 16.49 15.02 16.49 15.02 16.49C15.31 16.89 15.48 17.12 15.51 17.16C15.51 17.16 15.51 17.16 15.51 17.16Z" id="a1O1cWRV19"></path><path d="M15.51 17.16C9.76 21.26 6.58 23.53 5.94 23.98C5.94 23.98 5.94 23.98 5.94 23.98C5.65 23.58 5.49 23.36 5.46 23.31C5.46 23.31 5.46 23.31 5.46 23.31C11.2 19.22 14.39 16.94 15.02 16.49C15.02 16.49 15.02 16.49 15.02 16.49C15.31 16.89 15.48 17.12 15.51 17.16C15.51 17.16 15.51 17.16 15.51 17.16Z" id="ceqHT3kFT"></path><path d="M33.89 23.45C28.15 19.35 24.96 17.08 24.32 16.61C24.32 16.61 24.32 16.61 24.32 16.61C24.6 16.21 24.77 15.99 24.8 15.95C24.8 15.95 24.8 15.95 24.8 15.95C30.54 20.04 33.73 22.32 34.37 22.77C34.37 22.77 34.37 22.77 34.37 22.77C34.07 23.17 33.92 23.4 33.89 23.45C33.89 23.45 33.89 23.45 33.89 23.45Z" id="f1UkHqTo9X"></path><path d="M33.89 23.45C28.15 19.35 24.96 17.08 24.32 16.61C24.32 16.61 24.32 16.61 24.32 16.61C24.6 16.21 24.77 15.99 24.8 15.95C24.8 15.95 24.8 15.95 24.8 15.95C30.54 20.04 33.73 22.32 34.37 22.77C34.37 22.77 34.37 22.77 34.37 22.77C34.07 23.17 33.92 23.4 33.89 23.45C33.89 23.45 33.89 23.45 33.89 23.45Z" id="a356crXkN"></path><path d="M18.92 5.28C18.92 5.96 19.47 6.51 20.15 6.51C20.83 6.51 21.38 5.96 21.38 5.28C21.38 4.6 20.83 4.04 20.15 4.04C19.47 4.04 18.92 4.6 18.92 5.28Z" id="a16wkEOMj"></path><path d="M18.92 5.28C18.92 5.96 19.47 6.51 20.15 6.51C20.83 6.51 21.38 5.96 21.38 5.28C21.38 4.6 20.83 4.04 20.15 4.04C19.47 4.04 18.92 4.6 18.92 5.28Z" id="h7wjxROgT"></path><path d="M255.93 3.05L258.86 3.05L255.87 7.72L252.95 7.72L255.93 3.05Z" id="ciH5uJc2Z"></path><path d="M255.93 3.05L258.86 3.05L255.87 7.72L252.95 7.72L255.93 3.05Z" id="c1nL5ohGsI"></path></defs><g><g><g><use xlink:href="#a15rx9rNId" opacity="1" fill="#a21c26" fill-opacity="1"></use><g><use xlink:href="#a15rx9rNId" opacity="1" fill-opacity="0" stroke="#000000" stroke-width="1" stroke-opacity="0"></use></g></g><g><use xlink:href="#bIxICmmDa" opacity="1" fill="#000000" fill-opacity="0"></use><g><use xlink:href="#bIxICmmDa" opacity="1" fill-opacity="0" stroke="#000000" stroke-width="1" stroke-opacity="0"></use></g></g><g><use xlink:href="#cgI1UriIT" opacity="1" fill="#000000" fill-opacity="1"></use><g><use xlink:href="#cgI1UriIT" opacity="1" fill-opacity="0" stroke="#000000" stroke-width="1" stroke-opacity="0"></use></g></g><g><use xlink:href="#c4ffyymkSD" opacity="1" fill="#000000" fill-opacity="0"></use><g><use xlink:href="#c4ffyymkSD" opacity="1" fill-opacity="0" stroke="#000000" stroke-width="1" stroke-opacity="0"></use></g></g><g><use xlink:href="#b1FD7cn7vD" opacity="1" fill="#000000" fill-opacity="1"></use><g><use xlink:href="#b1FD7cn7vD" opacity="1" fill-opacity="0" stroke="#000000" stroke-width="1" stroke-opacity="0"></use></g></g><g><use xlink:href="#a1pLPggMWg" opacity="1" fill="#000000" fill-opacity="0"></use><g><use xlink:href="#a1pLPggMWg" opacity="1" fill-opacity="0" stroke="#000000" stroke-width="1" stroke-opacity="0"></use></g></g><g><use xlink:href="#aYynt8QY9" opacity="1" fill="#000000" fill-opacity="1"></use><g><use xlink:href="#aYynt8QY9" opacity="1" fill-opacity="0" stroke="#000000" stroke-width="1" stroke-opacity="0"></use></g></g><g><use xlink:href="#a17bWDLhCB" opacity="1" fill="#000000" fill-opacity="0"></use><g><use xlink:href="#a17bWDLhCB" opacity="1" fill-opacity="0" stroke="#000000" stroke-width="1" stroke-opacity="0"></use></g></g><g><use xlink:href="#b4PUi9dOhd" opacity="1" fill="#000000" fill-opacity="1"></use><g><use xlink:href="#b4PUi9dOhd" opacity="1" fill-opacity="0" stroke="#000000" stroke-width="1" stroke-opacity="0"></use></g></g><g><use xlink:href="#bawa45IfK" opacity="1" fill="#000000" fill-opacity="0"></use><g><use xlink:href="#bawa45IfK" opacity="1" fill-opacity="0" stroke="#000000" stroke-width="1" stroke-opacity="0"></use></g></g><g><use xlink:href="#c2gnnRa2nY" opacity="1" fill="#000000" fill-opacity="1"></use><g><use xlink:href="#c2gnnRa2nY" opacity="1" fill-opacity="0" stroke="#000000" stroke-width="1" stroke-opacity="0"></use></g></g><g><use xlink:href="#dLC8yzevz" opacity="1" fill="#000000" fill-opacity="0"></use><g><use xlink:href="#dLC8yzevz" opacity="1" fill-opacity="0" stroke="#000000" stroke-width="1" stroke-opacity="0"></use></g></g><g><use xlink:href="#ctiKu3MpJ" opacity="1" fill="#000000" fill-opacity="1"></use><g><use xlink:href="#ctiKu3MpJ" opacity="1" fill-opacity="0" stroke="#000000" stroke-width="1" stroke-opacity="0"></use></g></g><g><use xlink:href="#ailbuprlV" opacity="1" fill="#000000" fill-opacity="0"></use><g><use xlink:href="#ailbuprlV" opacity="1" fill-opacity="0" stroke="#000000" stroke-width="1" stroke-opacity="0"></use></g></g><g><use xlink:href="#cGS6PimO2" opacity="1" fill="#000000" fill-opacity="1"></use><g><use xlink:href="#cGS6PimO2" opacity="1" fill-opacity="0" stroke="#000000" stroke-width="1" stroke-opacity="0"></use></g></g><g><use xlink:href="#aN4qDuoXf" opacity="1" fill="#000000" fill-opacity="0"></use><g><use xlink:href="#aN4qDuoXf" opacity="1" fill-opacity="0" stroke="#000000" stroke-width="1" stroke-opacity="0"></use></g></g><g><use xlink:href="#aUD4W9Mld" opacity="1" fill="#000000" fill-opacity="1"></use><g><use xlink:href="#aUD4W9Mld" opacity="1" fill-opacity="0" stroke="#000000" stroke-width="1" stroke-opacity="0"></use></g></g><g><use xlink:href="#e4TBG0wwRj" opacity="1" fill="#000000" fill-opacity="0"></use><g><use xlink:href="#e4TBG0wwRj" opacity="1" fill-opacity="0" stroke="#000000" stroke-width="1" stroke-opacity="0"></use></g></g><g><use xlink:href="#a1JdY5Mgj9" opacity="1" fill="#000000" fill-opacity="1"></use><g><use xlink:href="#a1JdY5Mgj9" opacity="1" fill-opacity="0" stroke="#000000" stroke-width="1" stroke-opacity="0"></use></g></g><g><use xlink:href="#ajlbS08AX" opacity="1" fill="#000000" fill-opacity="0"></use><g><use xlink:href="#ajlbS08AX" opacity="1" fill-opacity="0" stroke="#000000" stroke-width="1" stroke-opacity="0"></use></g></g><g><use xlink:href="#e6XwN3ZQv" opacity="1" fill="#000000" fill-opacity="1"></use><g><use xlink:href="#e6XwN3ZQv" opacity="1" fill-opacity="0" stroke="#000000" stroke-width="1" stroke-opacity="0"></use></g></g><g><use xlink:href="#fd4V2wEaj" opacity="1" fill="#000000" fill-opacity="0"></use><g><use xlink:href="#fd4V2wEaj" opacity="1" fill-opacity="0" stroke="#000000" stroke-width="1" stroke-opacity="0"></use></g></g><g><use xlink:href="#aaYlUwoLt" opacity="1" fill="#000000" fill-opacity="1"></use><g><use xlink:href="#aaYlUwoLt" opacity="1" fill-opacity="0" stroke="#000000" stroke-width="1" stroke-opacity="0"></use></g></g><g><use xlink:href="#b7I2JrYXIK" opacity="1" fill="#000000" fill-opacity="0"></use><g><use xlink:href="#b7I2JrYXIK" opacity="1" fill-opacity="0" stroke="#000000" stroke-width="1" stroke-opacity="0"></use></g></g><g><use xlink:href="#b4azA9y2jS" opacity="1" fill="#ffffff" fill-opacity="1"></use><g><use xlink:href="#b4azA9y2jS" opacity="1" fill-opacity="0" stroke="#000000" stroke-width="1" stroke-opacity="0"></use></g></g><g><use xlink:href="#a8saK77eIL" opacity="1" fill="#000000" fill-opacity="0"></use><g><use xlink:href="#a8saK77eIL" opacity="1" fill-opacity="0" stroke="#000000" stroke-width="1" stroke-opacity="0"></use></g></g><g><use xlink:href="#b10zANctrb" opacity="1" fill="#ffffff" fill-opacity="1"></use><g><use xlink:href="#b10zANctrb" opacity="1" fill-opacity="0" stroke="#000000" stroke-width="1" stroke-opacity="0"></use></g></g><g><use xlink:href="#bm4sK1Sez" opacity="1" fill="#000000" fill-opacity="0"></use><g><use xlink:href="#bm4sK1Sez" opacity="1" fill-opacity="0" stroke="#000000" stroke-width="1" stroke-opacity="0"></use></g></g><g><use xlink:href="#a2IoOkZlpZ" opacity="1" fill="#ffffff" fill-opacity="1"></use><g><use xlink:href="#a2IoOkZlpZ" opacity="1" fill-opacity="0" stroke="#000000" stroke-width="1" stroke-opacity="0"></use></g></g><g><use xlink:href="#b1aGNVaLB9" opacity="1" fill="#000000" fill-opacity="0"></use><g><use xlink:href="#b1aGNVaLB9" opacity="1" fill-opacity="0" stroke="#000000" stroke-width="1" stroke-opacity="0"></use></g></g><g><use xlink:href="#b8ZcfoXSi" opacity="1" fill="#ffffff" fill-opacity="1"></use><g><use xlink:href="#b8ZcfoXSi" opacity="1" fill-opacity="0" stroke="#000000" stroke-width="1" stroke-opacity="0"></use></g></g><g><use xlink:href="#fo5zVPsCm" opacity="1" fill="#000000" fill-opacity="0"></use><g><use xlink:href="#fo5zVPsCm" opacity="1" fill-opacity="0" stroke="#000000" stroke-width="1" stroke-opacity="0"></use></g></g><g><use xlink:href="#b1GUGtYphe" opacity="1" fill="#ffffff" fill-opacity="1"></use><g><use xlink:href="#b1GUGtYphe" opacity="1" fill-opacity="0" stroke="#000000" stroke-width="1" stroke-opacity="0"></use></g></g><g><use xlink:href="#bLNL5c8kU" opacity="1" fill="#000000" fill-opacity="0"></use><g><use xlink:href="#bLNL5c8kU" opacity="1" fill-opacity="0" stroke="#000000" stroke-width="1" stroke-opacity="0"></use></g></g><g><use xlink:href="#f29Rm5E1T" opacity="1" fill="#ffffff" fill-opacity="1"></use><g><use xlink:href="#f29Rm5E1T" opacity="1" fill-opacity="0" stroke="#000000" stroke-width="1" stroke-opacity="0"></use></g></g><g><use xlink:href="#b3TvE1Gmhq" opacity="1" fill="#000000" fill-opacity="0"></use><g><use xlink:href="#b3TvE1Gmhq" opacity="1" fill-opacity="0" stroke="#000000" stroke-width="1" stroke-opacity="0"></use></g></g><g><use xlink:href="#actENkcBP" opacity="1" fill="#ffffff" fill-opacity="1"></use><g><use xlink:href="#actENkcBP" opacity="1" fill-opacity="0" stroke="#000000" stroke-width="1" stroke-opacity="0"></use></g></g><g><use xlink:href="#lJbPHUzI9" opacity="1" fill="#000000" fill-opacity="0"></use><g><use xlink:href="#lJbPHUzI9" opacity="1" fill-opacity="0" stroke="#000000" stroke-width="1" stroke-opacity="0"></use></g></g><g><use xlink:href="#a1FFTPQlkv" opacity="1" fill="#ffffff" fill-opacity="1"></use><g><use xlink:href="#a1FFTPQlkv" opacity="1" fill-opacity="0" stroke="#000000" stroke-width="1" stroke-opacity="0"></use></g></g><g><use xlink:href="#c4EvIdlxD" opacity="1" fill="#000000" fill-opacity="0"></use><g><use xlink:href="#c4EvIdlxD" opacity="1" fill-opacity="0" stroke="#000000" stroke-width="1" stroke-opacity="0"></use></g></g><g><use xlink:href="#g1DPjjf2Dc" opacity="1" fill="#ffffff" fill-opacity="1"></use><g><use xlink:href="#g1DPjjf2Dc" opacity="1" fill-opacity="0" stroke="#000000" stroke-width="1" stroke-opacity="0"></use></g></g><g><use xlink:href="#e1D5gctWX3" opacity="1" fill="#000000" fill-opacity="0"></use><g><use xlink:href="#e1D5gctWX3" opacity="1" fill-opacity="0" stroke="#000000" stroke-width="1" stroke-opacity="0"></use></g></g><g><use xlink:href="#a1O1cWRV19" opacity="1" fill="#ffffff" fill-opacity="1"></use><g><use xlink:href="#a1O1cWRV19" opacity="1" fill-opacity="0" stroke="#000000" stroke-width="1" stroke-opacity="0"></use></g></g><g><use xlink:href="#ceqHT3kFT" opacity="1" fill="#000000" fill-opacity="0"></use><g><use xlink:href="#ceqHT3kFT" opacity="1" fill-opacity="0" stroke="#000000" stroke-width="1" stroke-opacity="0"></use></g></g><g><use xlink:href="#f1UkHqTo9X" opacity="1" fill="#ffffff" fill-opacity="1"></use><g><use xlink:href="#f1UkHqTo9X" opacity="1" fill-opacity="0" stroke="#000000" stroke-width="1" stroke-opacity="0"></use></g></g><g><use xlink:href="#a356crXkN" opacity="1" fill="#000000" fill-opacity="0"></use><g><use xlink:href="#a356crXkN" opacity="1" fill-opacity="0" stroke="#000000" stroke-width="1" stroke-opacity="0"></use></g></g><g><use xlink:href="#a16wkEOMj" opacity="1" fill="#ffffff" fill-opacity="1"></use><g><use xlink:href="#a16wkEOMj" opacity="1" fill-opacity="0" stroke="#000000" stroke-width="1" stroke-opacity="0"></use></g></g><g><use xlink:href="#h7wjxROgT" opacity="1" fill="#000000" fill-opacity="0"></use><g><use xlink:href="#h7wjxROgT" opacity="1" fill-opacity="0" stroke="#000000" stroke-width="1" stroke-opacity="0"></use></g></g><g><use xlink:href="#ciH5uJc2Z" opacity="1" fill="#000000" fill-opacity="1"></use><g><use xlink:href="#ciH5uJc2Z" opacity="1" fill-opacity="0" stroke="#000000" stroke-width="1" stroke-opacity="0"></use></g></g><g><use xlink:href="#c1nL5ohGsI" opacity="1" fill="#000000" fill-opacity="0"></use><g><use xlink:href="#c1nL5ohGsI" opacity="1" fill-opacity="0" stroke="#000000" stroke-width="1" stroke-opacity="0"></use></g></g></g></g></svg>