
<?xml version="1.0" encoding="UTF-8" standalone="no"?>
<!DOCTYPE svg PUBLIC "-//W3C//DTD SVG 1.1//EN" "http://www.w3.org/Graphics/SVG/1.1/DTD/svg11.dtd">
<svg version="1.1" xmlns="http://www.w3.org/2000/svg" xmlns:xlink="http://www.w3.org/1999/xlink" preserveAspectRatio="xMidYMid meet" viewBox="0 0 210 26" width="210" height="26"><defs><path d="M0.58 25.52L8.02 6.61L13.12 6.61L20.7 25.52L14.96 25.52L13.91 22.45L7.22 22.45L6.17 25.52L0.58 25.52ZM10.56 12.53L8.48 18.37L12.65 18.37L10.56 12.53Z" id="a1aRCXp0sE"></path><path d="M0.58 25.52L8.02 6.61L13.12 6.61L20.7 25.52L14.96 25.52L13.91 22.45L7.22 22.45L6.17 25.52L0.58 25.52ZM10.56 12.53L8.48 18.37L12.65 18.37L10.56 12.53Z" id="b7Jc1UcGNs"></path><path d="M0.58 25.52L8.02 6.61L13.12 6.61L20.7 25.52L14.96 25.52L13.91 22.45L7.22 22.45L6.17 25.52L0.58 25.52ZM10.56 12.53L8.48 18.37L12.65 18.37L10.56 12.53Z" id="a8yQziOyes"></path><path d="M0.58 25.52L8.02 6.61L13.12 6.61L20.7 25.52L14.96 25.52L13.91 22.45L7.22 22.45L6.17 25.52L0.58 25.52ZM10.56 12.53L8.48 18.37L12.65 18.37L10.56 12.53Z" id="alElC3Dj4"></path><path d="M22.53 6.62L27.81 6.62L27.81 20.76L34.53 20.76L34.53 25.53L22.53 25.53L22.53 6.62Z" id="atefyrxfd"></path><path d="M22.53 6.62L27.81 6.62L27.81 20.76L34.53 20.76L34.53 25.53L22.53 25.53L22.53 6.62Z" id="e2tVYc43q6"></path><path d="M22.53 6.62L27.81 6.62L27.81 20.76L34.53 20.76L34.53 25.53L22.53 25.53L22.53 6.62Z" id="aKUqY9ett"></path><path d="M22.53 6.62L27.81 6.62L27.81 20.76L34.53 20.76L34.53 25.53L22.53 25.53L22.53 6.62Z" id="d5ali1aPXs"></path><path d="M38.32 25.53L38.32 11.31L33.18 11.31L33.18 6.62L48.69 6.62L48.69 11.31L43.56 11.31L43.56 25.53L38.32 25.53Z" id="b2d1Xoizs7"></path><path d="M38.32 25.53L38.32 11.31L33.18 11.31L33.18 6.62L48.69 6.62L48.69 11.31L43.56 11.31L43.56 25.53L38.32 25.53Z" id="a8ibtyjtf"></path><path d="M38.32 25.53L38.32 11.31L33.18 11.31L33.18 6.62L48.69 6.62L48.69 11.31L43.56 11.31L43.56 25.53L38.32 25.53Z" id="d7HU87OzPF"></path><path d="M38.32 25.53L38.32 11.31L33.18 11.31L33.18 6.62L48.69 6.62L48.69 11.31L43.56 11.31L43.56 25.53L38.32 25.53Z" id="b3cD7aPr6a"></path><path d="M47.27 25.52L54.71 6.61L59.8 6.61L67.39 25.52L61.64 25.52L60.59 22.45L53.9 22.45L52.85 25.52L47.27 25.52ZM57.25 12.53L55.17 18.37L59.34 18.37L57.25 12.53Z" id="cAPjYDMMy"></path><path d="M47.27 25.52L54.71 6.61L59.8 6.61L67.39 25.52L61.64 25.52L60.59 22.45L53.9 22.45L52.85 25.52L47.27 25.52ZM57.25 12.53L55.17 18.37L59.34 18.37L57.25 12.53Z" id="cEYmmveLR"></path><path d="M47.27 25.52L54.71 6.61L59.8 6.61L67.39 25.52L61.64 25.52L60.59 22.45L53.9 22.45L52.85 25.52L47.27 25.52ZM57.25 12.53L55.17 18.37L59.34 18.37L57.25 12.53Z" id="a3d7P2hPZ1"></path><path d="M47.27 25.52L54.71 6.61L59.8 6.61L67.39 25.52L61.64 25.52L60.59 22.45L53.9 22.45L52.85 25.52L47.27 25.52ZM57.25 12.53L55.17 18.37L59.34 18.37L57.25 12.53Z" id="b4FiiVkJX"></path><path d="M74.26 15.26L74.26 25.53L69.2 25.53L69.2 6.62L73.76 6.62L81.03 16.54L81.03 6.62L86.07 6.62L86.07 25.53L81.76 25.53L74.26 15.26Z" id="b402IeQouM"></path><path d="M74.26 15.26L74.26 25.53L69.2 25.53L69.2 6.62L73.76 6.62L81.03 16.54L81.03 6.62L86.07 6.62L86.07 25.53L81.76 25.53L74.26 15.26Z" id="b13YyZTDzo"></path><path d="M74.26 15.26L74.26 25.53L69.2 25.53L69.2 6.62L73.76 6.62L81.03 16.54L81.03 6.62L86.07 6.62L86.07 25.53L81.76 25.53L74.26 15.26Z" id="b7zmS6SN2S"></path><path d="M74.26 15.26L74.26 25.53L69.2 25.53L69.2 6.62L73.76 6.62L81.03 16.54L81.03 6.62L86.07 6.62L86.07 25.53L81.76 25.53L74.26 15.26Z" id="eORLMloA"></path><path d="M94.69 18.12L88.13 6.62L93.91 6.62L97.36 13.45L100.81 6.62L106.59 6.62L100 18.14L100 25.53L94.69 25.53L94.69 18.12Z" id="bQ4RScpBM"></path><path d="M94.69 18.12L88.13 6.62L93.91 6.62L97.36 13.45L100.81 6.62L106.59 6.62L100 18.14L100 25.53L94.69 25.53L94.69 18.12Z" id="c2L8QJ52DU"></path><path d="M94.69 18.12L88.13 6.62L93.91 6.62L97.36 13.45L100.81 6.62L106.59 6.62L100 18.14L100 25.53L94.69 25.53L94.69 18.12Z" id="a3IB3GdSJp"></path><path d="M94.69 18.12L88.13 6.62L93.91 6.62L97.36 13.45L100.81 6.62L106.59 6.62L100 18.14L100 25.53L94.69 25.53L94.69 18.12Z" id="a3lwiw4b7F"></path><path d="M114.16 25.53L114.16 6.62L119.37 6.62L119.37 14.6L124.37 6.62L130.41 6.62L124.36 15.77L130.97 25.53L124.8 25.53L119.37 17.18L119.37 25.53L114.16 25.53Z" id="e1aRA5k18o"></path><path d="M114.16 25.53L114.16 6.62L119.37 6.62L119.37 14.6L124.37 6.62L130.41 6.62L124.36 15.77L130.97 25.53L124.8 25.53L119.37 17.18L119.37 25.53L114.16 25.53Z" id="a10967enzJ"></path><path d="M114.16 25.53L114.16 6.62L119.37 6.62L119.37 14.6L124.37 6.62L130.41 6.62L124.36 15.77L130.97 25.53L124.8 25.53L119.37 17.18L119.37 25.53L114.16 25.53Z" id="f4MgFhHjcE"></path><path d="M114.16 25.53L114.16 6.62L119.37 6.62L119.37 14.6L124.37 6.62L130.41 6.62L124.36 15.77L130.97 25.53L124.8 25.53L119.37 17.18L119.37 25.53L114.16 25.53Z" id="cmOjjUKnZ"></path><path d="M130.62 25.52L138.05 6.61L143.15 6.61L150.73 25.52L144.99 25.52L143.95 22.45L137.25 22.45L136.2 25.52L130.62 25.52ZM140.59 12.53L138.51 18.37L142.67 18.37L140.59 12.53Z" id="a2zILfmh28"></path><path d="M130.62 25.52L138.05 6.61L143.15 6.61L150.73 25.52L144.99 25.52L143.95 22.45L137.25 22.45L136.2 25.52L130.62 25.52ZM140.59 12.53L138.51 18.37L142.67 18.37L140.59 12.53Z" id="b1bUIkWYd"></path><path d="M130.62 25.52L138.05 6.61L143.15 6.61L150.73 25.52L144.99 25.52L143.95 22.45L137.25 22.45L136.2 25.52L130.62 25.52ZM140.59 12.53L138.51 18.37L142.67 18.37L140.59 12.53Z" id="d5vO4i2Rx"></path><path d="M130.62 25.52L138.05 6.61L143.15 6.61L150.73 25.52L144.99 25.52L143.95 22.45L137.25 22.45L136.2 25.52L130.62 25.52ZM140.59 12.53L138.51 18.37L142.67 18.37L140.59 12.53Z" id="a1edJm671b"></path><path d="M152.55 25.53C152.55 14.18 152.55 7.87 152.55 6.62C157.47 6.62 160.2 6.62 160.74 6.62C164.83 6.62 167.77 9.36 167.77 13.31C167.77 15.64 166.63 17.53 164.78 18.65C165.02 19.11 166.28 21.39 168.52 25.52C168.13 25.52 166.2 25.52 162.72 25.52C162.51 25.13 161.49 23.21 159.66 19.75L157.76 19.75L157.76 25.53C154.63 25.53 152.9 25.53 152.55 25.53ZM160.15 11.24C159.99 11.24 159.18 11.24 157.76 11.24C157.76 11.65 157.76 14.94 157.76 15.35C159.18 15.35 159.99 15.35 160.15 15.35C161.6 15.35 162.43 14.48 162.43 13.29C162.43 12.11 161.6 11.24 160.15 11.24Z" id="baLfNm7Fp"></path><path d="M152.55 25.53C152.55 14.18 152.55 7.87 152.55 6.62C157.47 6.62 160.2 6.62 160.74 6.62C164.83 6.62 167.77 9.36 167.77 13.31C167.77 15.64 166.63 17.53 164.78 18.65C165.02 19.11 166.28 21.39 168.52 25.52C168.13 25.52 166.2 25.52 162.72 25.52C162.51 25.13 161.49 23.21 159.66 19.75L157.76 19.75L157.76 25.53C154.63 25.53 152.9 25.53 152.55 25.53ZM160.15 11.24C159.99 11.24 159.18 11.24 157.76 11.24C157.76 11.65 157.76 14.94 157.76 15.35C159.18 15.35 159.99 15.35 160.15 15.35C161.6 15.35 162.43 14.48 162.43 13.29C162.43 12.11 161.6 11.24 160.15 11.24Z" id="c4AUW8Oor"></path><path d="M152.55 25.53C152.55 14.18 152.55 7.87 152.55 6.62C157.47 6.62 160.2 6.62 160.74 6.62C164.83 6.62 167.77 9.36 167.77 13.31C167.77 15.64 166.63 17.53 164.78 18.65C165.02 19.11 166.28 21.39 168.52 25.52C168.13 25.52 166.2 25.52 162.72 25.52C162.51 25.13 161.49 23.21 159.66 19.75L157.76 19.75L157.76 25.53C154.63 25.53 152.9 25.53 152.55 25.53ZM160.15 11.24C159.99 11.24 159.18 11.24 157.76 11.24C157.76 11.65 157.76 14.94 157.76 15.35C159.18 15.35 159.99 15.35 160.15 15.35C161.6 15.35 162.43 14.48 162.43 13.29C162.43 12.11 161.6 11.24 160.15 11.24Z" id="a2L05igBk"></path><path d="M152.55 25.53C152.55 14.18 152.55 7.87 152.55 6.62C157.47 6.62 160.2 6.62 160.74 6.62C164.83 6.62 167.77 9.36 167.77 13.31C167.77 15.64 166.63 17.53 164.78 18.65C165.02 19.11 166.28 21.39 168.52 25.52C168.13 25.52 166.2 25.52 162.72 25.52C162.51 25.13 161.49 23.21 159.66 19.75L157.76 19.75L157.76 25.53C154.63 25.53 152.9 25.53 152.55 25.53ZM160.15 11.24C159.99 11.24 159.18 11.24 157.76 11.24C157.76 11.65 157.76 14.94 157.76 15.35C159.18 15.35 159.99 15.35 160.15 15.35C161.6 15.35 162.43 14.48 162.43 13.29C162.43 12.11 161.6 11.24 160.15 11.24Z" id="eWo2s1zBo"></path><path d="M169.66 16.08C169.66 10.29 173.99 6.14 180.08 6.14C186.14 6.14 190.46 10.28 190.46 16.08C190.47 21.87 186.14 26 180.08 26C180.08 26 180.08 26 180.08 26C178.83 25.96 177.69 25.79 176.68 25.53C175.45 25.21 174.39 24.71 173.52 24.11C170.58 22.05 169.66 18.58 169.66 16.08ZM180.08 21.17C182.96 21.16 185.04 19.04 185.04 16.09C185.04 13.11 182.97 10.99 180.08 10.99C177.2 10.99 175.09 13.12 175.09 16.09C175.09 19.03 177.2 21.17 180.08 21.17Z" id="e26LwtWIyw"></path><path d="M169.66 16.08C169.66 10.29 173.99 6.14 180.08 6.14C186.14 6.14 190.46 10.28 190.46 16.08C190.47 21.87 186.14 26 180.08 26C180.08 26 180.08 26 180.08 26C178.83 25.96 177.69 25.79 176.68 25.53C175.45 25.21 174.39 24.71 173.52 24.11C170.58 22.05 169.66 18.58 169.66 16.08ZM180.08 21.17C182.96 21.16 185.04 19.04 185.04 16.09C185.04 13.11 182.97 10.99 180.08 10.99C177.2 10.99 175.09 13.12 175.09 16.09C175.09 19.03 177.2 21.17 180.08 21.17Z" id="h28tI4SvM4"></path><path d="M169.66 16.08C169.66 10.29 173.99 6.14 180.08 6.14C186.14 6.14 190.46 10.28 190.46 16.08C190.47 21.87 186.14 26 180.08 26C180.08 26 180.08 26 180.08 26C178.83 25.96 177.69 25.79 176.68 25.53C175.45 25.21 174.39 24.71 173.52 24.11C170.58 22.05 169.66 18.58 169.66 16.08ZM180.08 21.17C182.96 21.16 185.04 19.04 185.04 16.09C185.04 13.11 182.97 10.99 180.08 10.99C177.2 10.99 175.09 13.12 175.09 16.09C175.09 19.03 177.2 21.17 180.08 21.17Z" id="amOvbdUe"></path><path d="M169.66 16.08C169.66 10.29 173.99 6.14 180.08 6.14C186.14 6.14 190.46 10.28 190.46 16.08C190.47 21.87 186.14 26 180.08 26C180.08 26 180.08 26 180.08 26C178.83 25.96 177.69 25.79 176.68 25.53C175.45 25.21 174.39 24.71 173.52 24.11C170.58 22.05 169.66 18.58 169.66 16.08ZM180.08 21.17C182.96 21.16 185.04 19.04 185.04 16.09C185.04 13.11 182.97 10.99 180.08 10.99C177.2 10.99 175.09 13.12 175.09 16.09C175.09 19.03 177.2 21.17 180.08 21.17Z" id="c3Llt0Z37w"></path><path d="M198.18 15.26L198.18 25.53L193.14 25.53L193.14 6.62L197.69 6.62L204.96 16.54L204.96 6.62L210 6.62L210 25.53L205.7 25.53L198.18 15.26Z" id="a13woUqSyo"></path><path d="M198.18 15.26L198.18 25.53L193.14 25.53L193.14 6.62L197.69 6.62L204.96 16.54L204.96 6.62L210 6.62L210 25.53L205.7 25.53L198.18 15.26Z" id="a2sqUDJfzc"></path><path d="M198.18 15.26L198.18 25.53L193.14 25.53L193.14 6.62L197.69 6.62L204.96 16.54L204.96 6.62L210 6.62L210 25.53L205.7 25.53L198.18 15.26Z" id="c1RgtixTlv"></path><path d="M198.18 15.26L198.18 25.53L193.14 25.53L193.14 6.62L197.69 6.62L204.96 16.54L204.96 6.62L210 6.62L210 25.53L205.7 25.53L198.18 15.26Z" id="cPZPKtgDb"></path><path d="M206.08 0.28L203.15 4.86L200.28 4.86L203.21 0.28L206.08 0.28Z" id="d146cE3qD7"></path><path d="M206.08 0.28L203.15 4.86L200.28 4.86L203.21 0.28L206.08 0.28Z" id="b6iQ8PvvGi"></path><path d="M206.08 0.28L203.15 4.86L200.28 4.86L203.21 0.28L206.08 0.28Z" id="b3ZNjtAFg5"></path><path d="M206.08 0.28L203.15 4.86L200.28 4.86L203.21 0.28L206.08 0.28Z" id="egH6hNjMP"></path></defs><g><g><g><use xlink:href="#a1aRCXp0sE" opacity="1" fill="#ffffff" fill-opacity="1"></use><g><use xlink:href="#a1aRCXp0sE" opacity="1" fill-opacity="0" stroke="#000000" stroke-width="1" stroke-opacity="0"></use></g></g><g><use xlink:href="#b7Jc1UcGNs" opacity="1" fill="#ffffff" fill-opacity="1"></use><g><use xlink:href="#b7Jc1UcGNs" opacity="1" fill-opacity="0" stroke="#000000" stroke-width="1" stroke-opacity="0"></use></g></g><g><use xlink:href="#a8yQziOyes" opacity="1" fill="#ffffff" fill-opacity="1"></use><g><use xlink:href="#a8yQziOyes" opacity="1" fill-opacity="0" stroke="#000000" stroke-width="1" stroke-opacity="0"></use></g></g><g><use xlink:href="#alElC3Dj4" opacity="1" fill="#ffffff" fill-opacity="1"></use><g><use xlink:href="#alElC3Dj4" opacity="1" fill-opacity="0" stroke="#000000" stroke-width="1" stroke-opacity="0"></use></g></g><g><use xlink:href="#atefyrxfd" opacity="1" fill="#ffffff" fill-opacity="1"></use><g><use xlink:href="#atefyrxfd" opacity="1" fill-opacity="0" stroke="#000000" stroke-width="1" stroke-opacity="0"></use></g></g><g><use xlink:href="#e2tVYc43q6" opacity="1" fill="#ffffff" fill-opacity="1"></use><g><use xlink:href="#e2tVYc43q6" opacity="1" fill-opacity="0" stroke="#000000" stroke-width="1" stroke-opacity="0"></use></g></g><g><use xlink:href="#aKUqY9ett" opacity="1" fill="#ffffff" fill-opacity="1"></use><g><use xlink:href="#aKUqY9ett" opacity="1" fill-opacity="0" stroke="#000000" stroke-width="1" stroke-opacity="0"></use></g></g><g><use xlink:href="#d5ali1aPXs" opacity="1" fill="#ffffff" fill-opacity="1"></use><g><use xlink:href="#d5ali1aPXs" opacity="1" fill-opacity="0" stroke="#000000" stroke-width="1" stroke-opacity="0"></use></g></g><g><use xlink:href="#b2d1Xoizs7" opacity="1" fill="#ffffff" fill-opacity="1"></use><g><use xlink:href="#b2d1Xoizs7" opacity="1" fill-opacity="0" stroke="#000000" stroke-width="1" stroke-opacity="0"></use></g></g><g><use xlink:href="#a8ibtyjtf" opacity="1" fill="#ffffff" fill-opacity="1"></use><g><use xlink:href="#a8ibtyjtf" opacity="1" fill-opacity="0" stroke="#000000" stroke-width="1" stroke-opacity="0"></use></g></g><g><use xlink:href="#d7HU87OzPF" opacity="1" fill="#ffffff" fill-opacity="1"></use><g><use xlink:href="#d7HU87OzPF" opacity="1" fill-opacity="0" stroke="#000000" stroke-width="1" stroke-opacity="0"></use></g></g><g><use xlink:href="#b3cD7aPr6a" opacity="1" fill="#ffffff" fill-opacity="1"></use><g><use xlink:href="#b3cD7aPr6a" opacity="1" fill-opacity="0" stroke="#000000" stroke-width="1" stroke-opacity="0"></use></g></g><g><use xlink:href="#cAPjYDMMy" opacity="1" fill="#ffffff" fill-opacity="1"></use><g><use xlink:href="#cAPjYDMMy" opacity="1" fill-opacity="0" stroke="#000000" stroke-width="1" stroke-opacity="0"></use></g></g><g><use xlink:href="#cEYmmveLR" opacity="1" fill="#ffffff" fill-opacity="1"></use><g><use xlink:href="#cEYmmveLR" opacity="1" fill-opacity="0" stroke="#000000" stroke-width="1" stroke-opacity="0"></use></g></g><g><use xlink:href="#a3d7P2hPZ1" opacity="1" fill="#ffffff" fill-opacity="1"></use><g><use xlink:href="#a3d7P2hPZ1" opacity="1" fill-opacity="0" stroke="#000000" stroke-width="1" stroke-opacity="0"></use></g></g><g><use xlink:href="#b4FiiVkJX" opacity="1" fill="#ffffff" fill-opacity="1"></use><g><use xlink:href="#b4FiiVkJX" opacity="1" fill-opacity="0" stroke="#000000" stroke-width="1" stroke-opacity="0"></use></g></g><g><use xlink:href="#b402IeQouM" opacity="1" fill="#ffffff" fill-opacity="1"></use><g><use xlink:href="#b402IeQouM" opacity="1" fill-opacity="0" stroke="#000000" stroke-width="1" stroke-opacity="0"></use></g></g><g><use xlink:href="#b13YyZTDzo" opacity="1" fill="#ffffff" fill-opacity="1"></use><g><use xlink:href="#b13YyZTDzo" opacity="1" fill-opacity="0" stroke="#000000" stroke-width="1" stroke-opacity="0"></use></g></g><g><use xlink:href="#b7zmS6SN2S" opacity="1" fill="#ffffff" fill-opacity="1"></use><g><use xlink:href="#b7zmS6SN2S" opacity="1" fill-opacity="0" stroke="#000000" stroke-width="1" stroke-opacity="0"></use></g></g><g><use xlink:href="#eORLMloA" opacity="1" fill="#ffffff" fill-opacity="1"></use><g><use xlink:href="#eORLMloA" opacity="1" fill-opacity="0" stroke="#000000" stroke-width="1" stroke-opacity="0"></use></g></g><g><use xlink:href="#bQ4RScpBM" opacity="1" fill="#ffffff" fill-opacity="1"></use><g><use xlink:href="#bQ4RScpBM" opacity="1" fill-opacity="0" stroke="#000000" stroke-width="1" stroke-opacity="0"></use></g></g><g><use xlink:href="#c2L8QJ52DU" opacity="1" fill="#ffffff" fill-opacity="1"></use><g><use xlink:href="#c2L8QJ52DU" opacity="1" fill-opacity="0" stroke="#000000" stroke-width="1" stroke-opacity="0"></use></g></g><g><use xlink:href="#a3IB3GdSJp" opacity="1" fill="#ffffff" fill-opacity="1"></use><g><use xlink:href="#a3IB3GdSJp" opacity="1" fill-opacity="0" stroke="#000000" stroke-width="1" stroke-opacity="0"></use></g></g><g><use xlink:href="#a3lwiw4b7F" opacity="1" fill="#ffffff" fill-opacity="1"></use><g><use xlink:href="#a3lwiw4b7F" opacity="1" fill-opacity="0" stroke="#000000" stroke-width="1" stroke-opacity="0"></use></g></g><g><use xlink:href="#e1aRA5k18o" opacity="1" fill="#ffffff" fill-opacity="1"></use><g><use xlink:href="#e1aRA5k18o" opacity="1" fill-opacity="0" stroke="#000000" stroke-width="1" stroke-opacity="0"></use></g></g><g><use xlink:href="#a10967enzJ" opacity="1" fill="#ffffff" fill-opacity="1"></use><g><use xlink:href="#a10967enzJ" opacity="1" fill-opacity="0" stroke="#000000" stroke-width="1" stroke-opacity="0"></use></g></g><g><use xlink:href="#f4MgFhHjcE" opacity="1" fill="#ffffff" fill-opacity="1"></use><g><use xlink:href="#f4MgFhHjcE" opacity="1" fill-opacity="0" stroke="#000000" stroke-width="1" stroke-opacity="0"></use></g></g><g><use xlink:href="#cmOjjUKnZ" opacity="1" fill="#ffffff" fill-opacity="1"></use><g><use xlink:href="#cmOjjUKnZ" opacity="1" fill-opacity="0" stroke="#000000" stroke-width="1" stroke-opacity="0"></use></g></g><g><use xlink:href="#a2zILfmh28" opacity="1" fill="#ffffff" fill-opacity="1"></use><g><use xlink:href="#a2zILfmh28" opacity="1" fill-opacity="0" stroke="#000000" stroke-width="1" stroke-opacity="0"></use></g></g><g><use xlink:href="#b1bUIkWYd" opacity="1" fill="#ffffff" fill-opacity="1"></use><g><use xlink:href="#b1bUIkWYd" opacity="1" fill-opacity="0" stroke="#000000" stroke-width="1" stroke-opacity="0"></use></g></g><g><use xlink:href="#d5vO4i2Rx" opacity="1" fill="#ffffff" fill-opacity="1"></use><g><use xlink:href="#d5vO4i2Rx" opacity="1" fill-opacity="0" stroke="#000000" stroke-width="1" stroke-opacity="0"></use></g></g><g><use xlink:href="#a1edJm671b" opacity="1" fill="#ffffff" fill-opacity="1"></use><g><use xlink:href="#a1edJm671b" opacity="1" fill-opacity="0" stroke="#000000" stroke-width="1" stroke-opacity="0"></use></g></g><g><use xlink:href="#baLfNm7Fp" opacity="1" fill="#ffffff" fill-opacity="1"></use><g><use xlink:href="#baLfNm7Fp" opacity="1" fill-opacity="0" stroke="#000000" stroke-width="1" stroke-opacity="0"></use></g></g><g><use xlink:href="#c4AUW8Oor" opacity="1" fill="#ffffff" fill-opacity="1"></use><g><use xlink:href="#c4AUW8Oor" opacity="1" fill-opacity="0" stroke="#000000" stroke-width="1" stroke-opacity="0"></use></g></g><g><use xlink:href="#a2L05igBk" opacity="1" fill="#ffffff" fill-opacity="1"></use><g><use xlink:href="#a2L05igBk" opacity="1" fill-opacity="0" stroke="#000000" stroke-width="1" stroke-opacity="0"></use></g></g><g><use xlink:href="#eWo2s1zBo" opacity="1" fill="#ffffff" fill-opacity="1"></use><g><use xlink:href="#eWo2s1zBo" opacity="1" fill-opacity="0" stroke="#000000" stroke-width="1" stroke-opacity="0"></use></g></g><g><use xlink:href="#e26LwtWIyw" opacity="1" fill="#ffffff" fill-opacity="1"></use><g><use xlink:href="#e26LwtWIyw" opacity="1" fill-opacity="0" stroke="#000000" stroke-width="1" stroke-opacity="0"></use></g></g><g><use xlink:href="#h28tI4SvM4" opacity="1" fill="#ffffff" fill-opacity="1"></use><g><use xlink:href="#h28tI4SvM4" opacity="1" fill-opacity="0" stroke="#000000" stroke-width="1" stroke-opacity="0"></use></g></g><g><use xlink:href="#amOvbdUe" opacity="1" fill="#ffffff" fill-opacity="1"></use><g><use xlink:href="#amOvbdUe" opacity="1" fill-opacity="0" stroke="#000000" stroke-width="1" stroke-opacity="0"></use></g></g><g><use xlink:href="#c3Llt0Z37w" opacity="1" fill="#ffffff" fill-opacity="1"></use><g><use xlink:href="#c3Llt0Z37w" opacity="1" fill-opacity="0" stroke="#000000" stroke-width="1" stroke-opacity="0"></use></g></g><g><use xlink:href="#a13woUqSyo" opacity="1" fill="#ffffff" fill-opacity="1"></use><g><use xlink:href="#a13woUqSyo" opacity="1" fill-opacity="0" stroke="#000000" stroke-width="1" stroke-opacity="0"></use></g></g><g><use xlink:href="#a2sqUDJfzc" opacity="1" fill="#ffffff" fill-opacity="1"></use><g><use xlink:href="#a2sqUDJfzc" opacity="1" fill-opacity="0" stroke="#000000" stroke-width="1" stroke-opacity="0"></use></g></g><g><use xlink:href="#c1RgtixTlv" opacity="1" fill="#ffffff" fill-opacity="1"></use><g><use xlink:href="#c1RgtixTlv" opacity="1" fill-opacity="0" stroke="#000000" stroke-width="1" stroke-opacity="0"></use></g></g><g><use xlink:href="#cPZPKtgDb" opacity="1" fill="#ffffff" fill-opacity="1"></use><g><use xlink:href="#cPZPKtgDb" opacity="1" fill-opacity="0" stroke="#000000" stroke-width="1" stroke-opacity="0"></use></g></g><g><use xlink:href="#d146cE3qD7" opacity="1" fill="#ffffff" fill-opacity="1"></use><g><use xlink:href="#d146cE3qD7" opacity="1" fill-opacity="0" stroke="#000000" stroke-width="1" stroke-opacity="0"></use></g></g><g><use xlink:href="#b6iQ8PvvGi" opacity="1" fill="#ffffff" fill-opacity="1"></use><g><use xlink:href="#b6iQ8PvvGi" opacity="1" fill-opacity="0" stroke="#000000" stroke-width="1" stroke-opacity="0"></use></g></g><g><use xlink:href="#b3ZNjtAFg5" opacity="1" fill="#ffffff" fill-opacity="1"></use><g><use xlink:href="#b3ZNjtAFg5" opacity="1" fill-opacity="0" stroke="#000000" stroke-width="1" stroke-opacity="0"></use></g></g><g><use xlink:href="#egH6hNjMP" opacity="1" fill="#ffffff" fill-opacity="1"></use><g><use xlink:href="#egH6hNjMP" opacity="1" fill-opacity="0" stroke="#000000" stroke-width="1" stroke-opacity="0"></use></g></g></g></g></svg>