<?xml version="1.0" encoding="UTF-8" standalone="no"?>
<!DOCTYPE svg PUBLIC "-//W3C//DTD SVG 1.1//EN" "http://www.w3.org/Graphics/SVG/1.1/DTD/svg11.dtd">
<svg version="1.1" xmlns="http://www.w3.org/2000/svg" xmlns:xlink="http://www.w3.org/1999/xlink" preserveAspectRatio="xMidYMid meet" viewBox="0 0 176.15 21.63" width="176.15" height="21.63"><defs><path d="M6.26 5.32L10.54 5.32L16.92 21.23L12.1 21.23L11.21 18.65L5.58 18.65L4.69 21.23L0 21.23L6.26 5.32ZM6.64 15.22L10.15 15.22L8.39 10.3L6.64 15.22Z" id="bJdxFrfZM"></path><path d="M6.26 5.32L10.54 5.32L16.92 21.23L12.1 21.23L11.21 18.65L5.58 18.65L4.69 21.23L0 21.23L6.26 5.32ZM6.64 15.22L10.15 15.22L8.39 10.3L6.64 15.22Z" id="d9RrTapyp"></path><path d="M6.26 5.32L10.54 5.32L16.92 21.23L12.1 21.23L11.21 18.65L5.58 18.65L4.69 21.23L0 21.23L6.26 5.32ZM6.64 15.22L10.15 15.22L8.39 10.3L6.64 15.22Z" id="a59azK3Sy"></path><path d="M6.26 5.32L10.54 5.32L16.92 21.23L12.1 21.23L11.21 18.65L5.58 18.65L4.69 21.23L0 21.23L6.26 5.32ZM6.64 15.22L10.15 15.22L8.39 10.3L6.64 15.22Z" id="a2ftjMSFGm"></path><path d="M6.26 5.32L10.54 5.32L16.92 21.23L12.1 21.23L11.21 18.65L5.58 18.65L4.69 21.23L0 21.23L6.26 5.32ZM6.64 15.22L10.15 15.22L8.39 10.3L6.64 15.22Z" id="lXEcULGrk"></path><path d="M6.26 5.32L10.54 5.32L16.92 21.23L12.1 21.23L11.21 18.65L5.58 18.65L4.69 21.23L0 21.23L6.26 5.32ZM6.64 15.22L10.15 15.22L8.39 10.3L6.64 15.22Z" id="ba4mOs7fb"></path><path d="M6.26 5.32L10.54 5.32L16.92 21.23L12.1 21.23L11.21 18.65L5.58 18.65L4.69 21.23L0 21.23L6.26 5.32ZM6.64 15.22L10.15 15.22L8.39 10.3L6.64 15.22Z" id="bllVC0OI4"></path><path d="M6.26 5.32L10.54 5.32L16.92 21.23L12.1 21.23L11.21 18.65L5.58 18.65L4.69 21.23L0 21.23L6.26 5.32ZM6.64 15.22L10.15 15.22L8.39 10.3L6.64 15.22Z" id="a1l02AQbrQ"></path><path d="M22.9 5.33L22.9 17.23L28.56 17.23L28.56 21.24L18.45 21.24L18.45 5.33L22.9 5.33Z" id="a1AySDjkxZ"></path><path d="M22.9 5.33L22.9 17.23L28.56 17.23L28.56 21.24L18.45 21.24L18.45 5.33L22.9 5.33Z" id="d15mhtZzBk"></path><path d="M22.9 5.33L22.9 17.23L28.56 17.23L28.56 21.24L18.45 21.24L18.45 5.33L22.9 5.33Z" id="c3jzfNWaMZ"></path><path d="M22.9 5.33L22.9 17.23L28.56 17.23L28.56 21.24L18.45 21.24L18.45 5.33L22.9 5.33Z" id="b1kWVUyVn1"></path><path d="M22.9 5.33L22.9 17.23L28.56 17.23L28.56 21.24L18.45 21.24L18.45 5.33L22.9 5.33Z" id="dpyjN90Qn"></path><path d="M22.9 5.33L22.9 17.23L28.56 17.23L28.56 21.24L18.45 21.24L18.45 5.33L22.9 5.33Z" id="b20qZXpKK"></path><path d="M22.9 5.33L22.9 17.23L28.56 17.23L28.56 21.24L18.45 21.24L18.45 5.33L22.9 5.33Z" id="b6cABpsqT9"></path><path d="M22.9 5.33L22.9 17.23L28.56 17.23L28.56 21.24L18.45 21.24L18.45 5.33L22.9 5.33Z" id="e691dpIGTO"></path><path d="M31.74 9.28L27.42 9.28L27.42 5.33L40.47 5.33L40.47 9.28L36.14 9.28L36.14 21.24L31.74 21.24L31.74 9.28Z" id="a3YDBrZ9s"></path><path d="M31.74 9.28L27.42 9.28L27.42 5.33L40.47 5.33L40.47 9.28L36.14 9.28L36.14 21.24L31.74 21.24L31.74 9.28Z" id="b4VNGxSG8R"></path><path d="M31.74 9.28L27.42 9.28L27.42 5.33L40.47 5.33L40.47 9.28L36.14 9.28L36.14 21.24L31.74 21.24L31.74 9.28Z" id="cqrkPnWQ1"></path><path d="M31.74 9.28L27.42 9.28L27.42 5.33L40.47 5.33L40.47 9.28L36.14 9.28L36.14 21.24L31.74 21.24L31.74 9.28Z" id="cBEPkHfAM"></path><path d="M31.74 9.28L27.42 9.28L27.42 5.33L40.47 5.33L40.47 9.28L36.14 9.28L36.14 21.24L31.74 21.24L31.74 9.28Z" id="e2esVR2IEo"></path><path d="M31.74 9.28L27.42 9.28L27.42 5.33L40.47 5.33L40.47 9.28L36.14 9.28L36.14 21.24L31.74 21.24L31.74 9.28Z" id="c9Ip1GMgL"></path><path d="M31.74 9.28L27.42 9.28L27.42 5.33L40.47 5.33L40.47 9.28L36.14 9.28L36.14 21.24L31.74 21.24L31.74 9.28Z" id="f1ecFlIeub"></path><path d="M31.74 9.28L27.42 9.28L27.42 5.33L40.47 5.33L40.47 9.28L36.14 9.28L36.14 21.24L31.74 21.24L31.74 9.28Z" id="cyIlZvFTK"></path><path d="M45.52 5.32L49.81 5.32L56.19 21.23L51.36 21.23L50.48 18.65L44.85 18.65L43.97 21.23L39.26 21.23L45.52 5.32ZM45.91 15.22L49.42 15.22L47.66 10.3L45.91 15.22Z" id="a45sBUThXa"></path><path d="M45.52 5.32L49.81 5.32L56.19 21.23L51.36 21.23L50.48 18.65L44.85 18.65L43.97 21.23L39.26 21.23L45.52 5.32ZM45.91 15.22L49.42 15.22L47.66 10.3L45.91 15.22Z" id="aaE1Ztp70"></path><path d="M45.52 5.32L49.81 5.32L56.19 21.23L51.36 21.23L50.48 18.65L44.85 18.65L43.97 21.23L39.26 21.23L45.52 5.32ZM45.91 15.22L49.42 15.22L47.66 10.3L45.91 15.22Z" id="b1kJ24G5U"></path><path d="M45.52 5.32L49.81 5.32L56.19 21.23L51.36 21.23L50.48 18.65L44.85 18.65L43.97 21.23L39.26 21.23L45.52 5.32ZM45.91 15.22L49.42 15.22L47.66 10.3L45.91 15.22Z" id="g1KD5ov5wj"></path><path d="M45.52 5.32L49.81 5.32L56.19 21.23L51.36 21.23L50.48 18.65L44.85 18.65L43.97 21.23L39.26 21.23L45.52 5.32ZM45.91 15.22L49.42 15.22L47.66 10.3L45.91 15.22Z" id="b1QoXhgd7"></path><path d="M45.52 5.32L49.81 5.32L56.19 21.23L51.36 21.23L50.48 18.65L44.85 18.65L43.97 21.23L39.26 21.23L45.52 5.32ZM45.91 15.22L49.42 15.22L47.66 10.3L45.91 15.22Z" id="b77BfHXSG"></path><path d="M45.52 5.32L49.81 5.32L56.19 21.23L51.36 21.23L50.48 18.65L44.85 18.65L43.97 21.23L39.26 21.23L45.52 5.32ZM45.91 15.22L49.42 15.22L47.66 10.3L45.91 15.22Z" id="bez1TJwVJ"></path><path d="M45.52 5.32L49.81 5.32L56.19 21.23L51.36 21.23L50.48 18.65L44.85 18.65L43.97 21.23L39.26 21.23L45.52 5.32ZM45.91 15.22L49.42 15.22L47.66 10.3L45.91 15.22Z" id="aU5DzyJyA"></path><path d="M61.97 21.24L57.72 21.24L57.72 5.33L61.55 5.33L67.66 13.68L67.66 5.33L71.91 5.33L71.91 21.24L68.28 21.24L61.97 12.61L61.97 21.24Z" id="cYwOtvqoG"></path><path d="M61.97 21.24L57.72 21.24L57.72 5.33L61.55 5.33L67.66 13.68L67.66 5.33L71.91 5.33L71.91 21.24L68.28 21.24L61.97 12.61L61.97 21.24Z" id="a70XwyzUD"></path><path d="M61.97 21.24L57.72 21.24L57.72 5.33L61.55 5.33L67.66 13.68L67.66 5.33L71.91 5.33L71.91 21.24L68.28 21.24L61.97 12.61L61.97 21.24Z" id="b8bJy6yLwk"></path><path d="M61.97 21.24L57.72 21.24L57.72 5.33L61.55 5.33L67.66 13.68L67.66 5.33L71.91 5.33L71.91 21.24L68.28 21.24L61.97 12.61L61.97 21.24Z" id="acZDYF48t"></path><path d="M61.97 21.24L57.72 21.24L57.72 5.33L61.55 5.33L67.66 13.68L67.66 5.33L71.91 5.33L71.91 21.24L68.28 21.24L61.97 12.61L61.97 21.24Z" id="a1pSloiaAQ"></path><path d="M61.97 21.24L57.72 21.24L57.72 5.33L61.55 5.33L67.66 13.68L67.66 5.33L71.91 5.33L71.91 21.24L68.28 21.24L61.97 12.61L61.97 21.24Z" id="a10pRqety2"></path><path d="M61.97 21.24L57.72 21.24L57.72 5.33L61.55 5.33L67.66 13.68L67.66 5.33L71.91 5.33L71.91 21.24L68.28 21.24L61.97 12.61L61.97 21.24Z" id="a7tk6KZRCX"></path><path d="M61.97 21.24L57.72 21.24L57.72 5.33L61.55 5.33L67.66 13.68L67.66 5.33L71.91 5.33L71.91 21.24L68.28 21.24L61.97 12.61L61.97 21.24Z" id="bmei0K574"></path><path d="M73.64 5.33L78.5 5.33L81.4 11.08L84.31 5.33L89.17 5.33L83.62 15.02L83.62 21.24L79.15 21.24L79.15 15.01L73.64 5.33Z" id="b3rDZSvXCM"></path><path d="M73.64 5.33L78.5 5.33L81.4 11.08L84.31 5.33L89.17 5.33L83.62 15.02L83.62 21.24L79.15 21.24L79.15 15.01L73.64 5.33Z" id="b219HbZXeG"></path><path d="M73.64 5.33L78.5 5.33L81.4 11.08L84.31 5.33L89.17 5.33L83.62 15.02L83.62 21.24L79.15 21.24L79.15 15.01L73.64 5.33Z" id="b2DSHStxSn"></path><path d="M73.64 5.33L78.5 5.33L81.4 11.08L84.31 5.33L89.17 5.33L83.62 15.02L83.62 21.24L79.15 21.24L79.15 15.01L73.64 5.33Z" id="gzOE8w5tC"></path><path d="M73.64 5.33L78.5 5.33L81.4 11.08L84.31 5.33L89.17 5.33L83.62 15.02L83.62 21.24L79.15 21.24L79.15 15.01L73.64 5.33Z" id="e4qXHcAmm"></path><path d="M73.64 5.33L78.5 5.33L81.4 11.08L84.31 5.33L89.17 5.33L83.62 15.02L83.62 21.24L79.15 21.24L79.15 15.01L73.64 5.33Z" id="bUe2dahnC"></path><path d="M73.64 5.33L78.5 5.33L81.4 11.08L84.31 5.33L89.17 5.33L83.62 15.02L83.62 21.24L79.15 21.24L79.15 15.01L73.64 5.33Z" id="b1CU7uHYYn"></path><path d="M73.64 5.33L78.5 5.33L81.4 11.08L84.31 5.33L89.17 5.33L83.62 15.02L83.62 21.24L79.15 21.24L79.15 15.01L73.64 5.33Z" id="a6gX1Vbye5"></path><path d="M95.53 5.33L99.92 5.33L99.92 12.04L104.12 5.33L109.2 5.33L104.11 13.04L109.67 21.24L104.48 21.24L99.92 14.22L99.92 21.24L95.53 21.24L95.53 5.33Z" id="b1rfA89dmp"></path><path d="M95.53 5.33L99.92 5.33L99.92 12.04L104.12 5.33L109.2 5.33L104.11 13.04L109.67 21.24L104.48 21.24L99.92 14.22L99.92 21.24L95.53 21.24L95.53 5.33Z" id="b3z0nhhnO8"></path><path d="M95.53 5.33L99.92 5.33L99.92 12.04L104.12 5.33L109.2 5.33L104.11 13.04L109.67 21.24L104.48 21.24L99.92 14.22L99.92 21.24L95.53 21.24L95.53 5.33Z" id="a16Vy9cX6c"></path><path d="M95.53 5.33L99.92 5.33L99.92 12.04L104.12 5.33L109.2 5.33L104.11 13.04L109.67 21.24L104.48 21.24L99.92 14.22L99.92 21.24L95.53 21.24L95.53 5.33Z" id="c1sqqFEPEc"></path><path d="M95.53 5.33L99.92 5.33L99.92 12.04L104.12 5.33L109.2 5.33L104.11 13.04L109.67 21.24L104.48 21.24L99.92 14.22L99.92 21.24L95.53 21.24L95.53 5.33Z" id="b3lgMBHbY"></path><path d="M95.53 5.33L99.92 5.33L99.92 12.04L104.12 5.33L109.2 5.33L104.11 13.04L109.67 21.24L104.48 21.24L99.92 14.22L99.92 21.24L95.53 21.24L95.53 5.33Z" id="a1743dqcpH"></path><path d="M95.53 5.33L99.92 5.33L99.92 12.04L104.12 5.33L109.2 5.33L104.11 13.04L109.67 21.24L104.48 21.24L99.92 14.22L99.92 21.24L95.53 21.24L95.53 5.33Z" id="c1IQNbejN"></path><path d="M95.53 5.33L99.92 5.33L99.92 12.04L104.12 5.33L109.2 5.33L104.11 13.04L109.67 21.24L104.48 21.24L99.92 14.22L99.92 21.24L95.53 21.24L95.53 5.33Z" id="b7GXoqtnu"></path><path d="M115.62 5.32L119.91 5.32L126.3 21.23L121.47 21.23L120.59 18.65L114.96 18.65L114.07 21.23L109.37 21.23L115.62 5.32ZM116.01 15.22L119.51 15.22L117.76 10.3L116.01 15.22Z" id="aOcBSYoVl"></path><path d="M115.62 5.32L119.91 5.32L126.3 21.23L121.47 21.23L120.59 18.65L114.96 18.65L114.07 21.23L109.37 21.23L115.62 5.32ZM116.01 15.22L119.51 15.22L117.76 10.3L116.01 15.22Z" id="aG8DrDnng"></path><path d="M115.62 5.32L119.91 5.32L126.3 21.23L121.47 21.23L120.59 18.65L114.96 18.65L114.07 21.23L109.37 21.23L115.62 5.32ZM116.01 15.22L119.51 15.22L117.76 10.3L116.01 15.22Z" id="ajzvRvjQf"></path><path d="M115.62 5.32L119.91 5.32L126.3 21.23L121.47 21.23L120.59 18.65L114.96 18.65L114.07 21.23L109.37 21.23L115.62 5.32ZM116.01 15.22L119.51 15.22L117.76 10.3L116.01 15.22Z" id="b2OxUkcgwO"></path><path d="M115.62 5.32L119.91 5.32L126.3 21.23L121.47 21.23L120.59 18.65L114.96 18.65L114.07 21.23L109.37 21.23L115.62 5.32ZM116.01 15.22L119.51 15.22L117.76 10.3L116.01 15.22Z" id="c97dfNBGi"></path><path d="M115.62 5.32L119.91 5.32L126.3 21.23L121.47 21.23L120.59 18.65L114.96 18.65L114.07 21.23L109.37 21.23L115.62 5.32ZM116.01 15.22L119.51 15.22L117.76 10.3L116.01 15.22Z" id="gqBLRnrh"></path><path d="M115.62 5.32L119.91 5.32L126.3 21.23L121.47 21.23L120.59 18.65L114.96 18.65L114.07 21.23L109.37 21.23L115.62 5.32ZM116.01 15.22L119.51 15.22L117.76 10.3L116.01 15.22Z" id="a1r2c00Izz"></path><path d="M115.62 5.32L119.91 5.32L126.3 21.23L121.47 21.23L120.59 18.65L114.96 18.65L114.07 21.23L109.37 21.23L115.62 5.32ZM116.01 15.22L119.51 15.22L117.76 10.3L116.01 15.22Z" id="aoLiwigzR"></path><path d="M127.83 5.33C131.96 5.33 134.26 5.33 134.72 5.33C138.15 5.33 140.63 7.64 140.63 10.96C140.63 12.92 139.67 14.51 138.11 15.45C138.32 15.84 139.38 17.76 141.25 21.23C140.93 21.23 139.31 21.23 136.37 21.23C136.2 20.91 135.35 19.29 133.8 16.38C133.69 16.38 133.16 16.38 132.21 16.38C132.21 19.29 132.21 20.91 132.21 21.24C129.58 21.24 128.11 21.24 127.83 21.24C127.83 11.7 127.83 6.39 127.83 5.33ZM132.21 9.22C132.21 9.56 132.21 12.33 132.21 12.68C133.4 12.68 134.08 12.68 134.21 12.68C135.43 12.68 136.14 11.94 136.14 10.94C136.14 9.96 135.43 9.22 134.21 9.22C134.08 9.22 133.4 9.22 132.21 9.22Z" id="czXUwuCnl"></path><path d="M127.83 5.33C131.96 5.33 134.26 5.33 134.72 5.33C138.15 5.33 140.63 7.64 140.63 10.96C140.63 12.92 139.67 14.51 138.11 15.45C138.32 15.84 139.38 17.76 141.25 21.23C140.93 21.23 139.31 21.23 136.37 21.23C136.2 20.91 135.35 19.29 133.8 16.38C133.69 16.38 133.16 16.38 132.21 16.38C132.21 19.29 132.21 20.91 132.21 21.24C129.58 21.24 128.11 21.24 127.83 21.24C127.83 11.7 127.83 6.39 127.83 5.33ZM132.21 9.22C132.21 9.56 132.21 12.33 132.21 12.68C133.4 12.68 134.08 12.68 134.21 12.68C135.43 12.68 136.14 11.94 136.14 10.94C136.14 9.96 135.43 9.22 134.21 9.22C134.08 9.22 133.4 9.22 132.21 9.22Z" id="b3b2XjkZq9"></path><path d="M127.83 5.33C131.96 5.33 134.26 5.33 134.72 5.33C138.15 5.33 140.63 7.64 140.63 10.96C140.63 12.92 139.67 14.51 138.11 15.45C138.32 15.84 139.38 17.76 141.25 21.23C140.93 21.23 139.31 21.23 136.37 21.23C136.2 20.91 135.35 19.29 133.8 16.38C133.69 16.38 133.16 16.38 132.21 16.38C132.21 19.29 132.21 20.91 132.21 21.24C129.58 21.24 128.11 21.24 127.83 21.24C127.83 11.7 127.83 6.39 127.83 5.33ZM132.21 9.22C132.21 9.56 132.21 12.33 132.21 12.68C133.4 12.68 134.08 12.68 134.21 12.68C135.43 12.68 136.14 11.94 136.14 10.94C136.14 9.96 135.43 9.22 134.21 9.22C134.08 9.22 133.4 9.22 132.21 9.22Z" id="j2ZyWCKZ5z"></path><path d="M127.83 5.33C131.96 5.33 134.26 5.33 134.72 5.33C138.15 5.33 140.63 7.64 140.63 10.96C140.63 12.92 139.67 14.51 138.11 15.45C138.32 15.84 139.38 17.76 141.25 21.23C140.93 21.23 139.31 21.23 136.37 21.23C136.2 20.91 135.35 19.29 133.8 16.38C133.69 16.38 133.16 16.38 132.21 16.38C132.21 19.29 132.21 20.91 132.21 21.24C129.58 21.24 128.11 21.24 127.83 21.24C127.83 11.7 127.83 6.39 127.83 5.33ZM132.21 9.22C132.21 9.56 132.21 12.33 132.21 12.68C133.4 12.68 134.08 12.68 134.21 12.68C135.43 12.68 136.14 11.94 136.14 10.94C136.14 9.96 135.43 9.22 134.21 9.22C134.08 9.22 133.4 9.22 132.21 9.22Z" id="dO7XwWhbN"></path><path d="M127.83 5.33C131.96 5.33 134.26 5.33 134.72 5.33C138.15 5.33 140.63 7.64 140.63 10.96C140.63 12.92 139.67 14.51 138.11 15.45C138.32 15.84 139.38 17.76 141.25 21.23C140.93 21.23 139.31 21.23 136.37 21.23C136.2 20.91 135.35 19.29 133.8 16.38C133.69 16.38 133.16 16.38 132.21 16.38C132.21 19.29 132.21 20.91 132.21 21.24C129.58 21.24 128.11 21.24 127.83 21.24C127.83 11.7 127.83 6.39 127.83 5.33ZM132.21 9.22C132.21 9.56 132.21 12.33 132.21 12.68C133.4 12.68 134.08 12.68 134.21 12.68C135.43 12.68 136.14 11.94 136.14 10.94C136.14 9.96 135.43 9.22 134.21 9.22C134.08 9.22 133.4 9.22 132.21 9.22Z" id="b4LLsBKZtu"></path><path d="M127.83 5.33C131.96 5.33 134.26 5.33 134.72 5.33C138.15 5.33 140.63 7.64 140.63 10.96C140.63 12.92 139.67 14.51 138.11 15.45C138.32 15.84 139.38 17.76 141.25 21.23C140.93 21.23 139.31 21.23 136.37 21.23C136.2 20.91 135.35 19.29 133.8 16.38C133.69 16.38 133.16 16.38 132.21 16.38C132.21 19.29 132.21 20.91 132.21 21.24C129.58 21.24 128.11 21.24 127.83 21.24C127.83 11.7 127.83 6.39 127.83 5.33ZM132.21 9.22C132.21 9.56 132.21 12.33 132.21 12.68C133.4 12.68 134.08 12.68 134.21 12.68C135.43 12.68 136.14 11.94 136.14 10.94C136.14 9.96 135.43 9.22 134.21 9.22C134.08 9.22 133.4 9.22 132.21 9.22Z" id="b8oEwESL7"></path><path d="M127.83 5.33C131.96 5.33 134.26 5.33 134.72 5.33C138.15 5.33 140.63 7.64 140.63 10.96C140.63 12.92 139.67 14.51 138.11 15.45C138.32 15.84 139.38 17.76 141.25 21.23C140.93 21.23 139.31 21.23 136.37 21.23C136.2 20.91 135.35 19.29 133.8 16.38C133.69 16.38 133.16 16.38 132.21 16.38C132.21 19.29 132.21 20.91 132.21 21.24C129.58 21.24 128.11 21.24 127.83 21.24C127.83 11.7 127.83 6.39 127.83 5.33ZM132.21 9.22C132.21 9.56 132.21 12.33 132.21 12.68C133.4 12.68 134.08 12.68 134.21 12.68C135.43 12.68 136.14 11.94 136.14 10.94C136.14 9.96 135.43 9.22 134.21 9.22C134.08 9.22 133.4 9.22 132.21 9.22Z" id="a2GC6fMuoD"></path><path d="M127.83 5.33C131.96 5.33 134.26 5.33 134.72 5.33C138.15 5.33 140.63 7.64 140.63 10.96C140.63 12.92 139.67 14.51 138.11 15.45C138.32 15.84 139.38 17.76 141.25 21.23C140.93 21.23 139.31 21.23 136.37 21.23C136.2 20.91 135.35 19.29 133.8 16.38C133.69 16.38 133.16 16.38 132.21 16.38C132.21 19.29 132.21 20.91 132.21 21.24C129.58 21.24 128.11 21.24 127.83 21.24C127.83 11.7 127.83 6.39 127.83 5.33ZM132.21 9.22C132.21 9.56 132.21 12.33 132.21 12.68C133.4 12.68 134.08 12.68 134.21 12.68C135.43 12.68 136.14 11.94 136.14 10.94C136.14 9.96 135.43 9.22 134.21 9.22C134.08 9.22 133.4 9.22 132.21 9.22Z" id="cp3doAcP8"></path><path d="M150.97 4.93C156.08 4.93 159.71 8.41 159.71 13.29C159.72 18.16 156.08 21.63 150.97 21.63C150.97 21.63 150.97 21.63 150.97 21.63C149.93 21.6 148.97 21.47 148.12 21.24C147.08 20.97 146.19 20.56 145.46 20.04C142.98 18.32 142.21 15.39 142.21 13.29C142.21 8.42 145.86 4.93 150.97 4.93ZM155.15 13.3C155.15 10.8 153.41 9.02 150.97 9.02C148.56 9.02 146.79 10.81 146.79 13.3C146.79 15.77 148.56 17.57 150.97 17.57C153.41 17.56 155.15 15.78 155.15 13.3Z" id="g23lOwpNsV"></path><path d="M150.97 4.93C156.08 4.93 159.71 8.41 159.71 13.29C159.72 18.16 156.08 21.63 150.97 21.63C150.97 21.63 150.97 21.63 150.97 21.63C149.93 21.6 148.97 21.47 148.12 21.24C147.08 20.97 146.19 20.56 145.46 20.04C142.98 18.32 142.21 15.39 142.21 13.29C142.21 8.42 145.86 4.93 150.97 4.93ZM155.15 13.3C155.15 10.8 153.41 9.02 150.97 9.02C148.56 9.02 146.79 10.81 146.79 13.3C146.79 15.77 148.56 17.57 150.97 17.57C153.41 17.56 155.15 15.78 155.15 13.3Z" id="b15uqDmKG3"></path><path d="M150.97 4.93C156.08 4.93 159.71 8.41 159.71 13.29C159.72 18.16 156.08 21.63 150.97 21.63C150.97 21.63 150.97 21.63 150.97 21.63C149.93 21.6 148.97 21.47 148.12 21.24C147.08 20.97 146.19 20.56 145.46 20.04C142.98 18.32 142.21 15.39 142.21 13.29C142.21 8.42 145.86 4.93 150.97 4.93ZM155.15 13.3C155.15 10.8 153.41 9.02 150.97 9.02C148.56 9.02 146.79 10.81 146.79 13.3C146.79 15.77 148.56 17.57 150.97 17.57C153.41 17.56 155.15 15.78 155.15 13.3Z" id="a1PQ26XbQC"></path><path d="M150.97 4.93C156.08 4.93 159.71 8.41 159.71 13.29C159.72 18.16 156.08 21.63 150.97 21.63C150.97 21.63 150.97 21.63 150.97 21.63C149.93 21.6 148.97 21.47 148.12 21.24C147.08 20.97 146.19 20.56 145.46 20.04C142.98 18.32 142.21 15.39 142.21 13.29C142.21 8.42 145.86 4.93 150.97 4.93ZM155.15 13.3C155.15 10.8 153.41 9.02 150.97 9.02C148.56 9.02 146.79 10.81 146.79 13.3C146.79 15.77 148.56 17.57 150.97 17.57C153.41 17.56 155.15 15.78 155.15 13.3Z" id="b4C5bOt72"></path><path d="M150.97 4.93C156.08 4.93 159.71 8.41 159.71 13.29C159.72 18.16 156.08 21.63 150.97 21.63C150.97 21.63 150.97 21.63 150.97 21.63C149.93 21.6 148.97 21.47 148.12 21.24C147.08 20.97 146.19 20.56 145.46 20.04C142.98 18.32 142.21 15.39 142.21 13.29C142.21 8.42 145.86 4.93 150.97 4.93ZM155.15 13.3C155.15 10.8 153.41 9.02 150.97 9.02C148.56 9.02 146.79 10.81 146.79 13.3C146.79 15.77 148.56 17.57 150.97 17.57C153.41 17.56 155.15 15.78 155.15 13.3Z" id="d1JKAK0Ki2"></path><path d="M150.97 4.93C156.08 4.93 159.71 8.41 159.71 13.29C159.72 18.16 156.08 21.63 150.97 21.63C150.97 21.63 150.97 21.63 150.97 21.63C149.93 21.6 148.97 21.47 148.12 21.24C147.08 20.97 146.19 20.56 145.46 20.04C142.98 18.32 142.21 15.39 142.21 13.29C142.21 8.42 145.86 4.93 150.97 4.93ZM155.15 13.3C155.15 10.8 153.41 9.02 150.97 9.02C148.56 9.02 146.79 10.81 146.79 13.3C146.79 15.77 148.56 17.57 150.97 17.57C153.41 17.56 155.15 15.78 155.15 13.3Z" id="abLf8vMTJ"></path><path d="M150.97 4.93C156.08 4.93 159.71 8.41 159.71 13.29C159.72 18.16 156.08 21.63 150.97 21.63C150.97 21.63 150.97 21.63 150.97 21.63C149.93 21.6 148.97 21.47 148.12 21.24C147.08 20.97 146.19 20.56 145.46 20.04C142.98 18.32 142.21 15.39 142.21 13.29C142.21 8.42 145.86 4.93 150.97 4.93ZM155.15 13.3C155.15 10.8 153.41 9.02 150.97 9.02C148.56 9.02 146.79 10.81 146.79 13.3C146.79 15.77 148.56 17.57 150.97 17.57C153.41 17.56 155.15 15.78 155.15 13.3Z" id="f1uQQbBGSK"></path><path d="M150.97 4.93C156.08 4.93 159.71 8.41 159.71 13.29C159.72 18.16 156.08 21.63 150.97 21.63C150.97 21.63 150.97 21.63 150.97 21.63C149.93 21.6 148.97 21.47 148.12 21.24C147.08 20.97 146.19 20.56 145.46 20.04C142.98 18.32 142.21 15.39 142.21 13.29C142.21 8.42 145.86 4.93 150.97 4.93ZM155.15 13.3C155.15 10.8 153.41 9.02 150.97 9.02C148.56 9.02 146.79 10.81 146.79 13.3C146.79 15.77 148.56 17.57 150.97 17.57C153.41 17.56 155.15 15.78 155.15 13.3Z" id="a1fGP0KlYd"></path><path d="M166.21 21.24L161.97 21.24L161.97 5.33L165.8 5.33L171.9 13.68L171.9 5.33L176.15 5.33L176.15 21.24L172.53 21.24L166.21 12.61L166.21 21.24Z" id="b1D1k2ZqVT"></path><path d="M166.21 21.24L161.97 21.24L161.97 5.33L165.8 5.33L171.9 13.68L171.9 5.33L176.15 5.33L176.15 21.24L172.53 21.24L166.21 12.61L166.21 21.24Z" id="c9TG97dsy"></path><path d="M166.21 21.24L161.97 21.24L161.97 5.33L165.8 5.33L171.9 13.68L171.9 5.33L176.15 5.33L176.15 21.24L172.53 21.24L166.21 12.61L166.21 21.24Z" id="bzXlij3a"></path><path d="M166.21 21.24L161.97 21.24L161.97 5.33L165.8 5.33L171.9 13.68L171.9 5.33L176.15 5.33L176.15 21.24L172.53 21.24L166.21 12.61L166.21 21.24Z" id="fJl9d8J8G"></path><path d="M166.21 21.24L161.97 21.24L161.97 5.33L165.8 5.33L171.9 13.68L171.9 5.33L176.15 5.33L176.15 21.24L172.53 21.24L166.21 12.61L166.21 21.24Z" id="a1ncxlkgIl"></path><path d="M166.21 21.24L161.97 21.24L161.97 5.33L165.8 5.33L171.9 13.68L171.9 5.33L176.15 5.33L176.15 21.24L172.53 21.24L166.21 12.61L166.21 21.24Z" id="l2o0JAZbG"></path><path d="M166.21 21.24L161.97 21.24L161.97 5.33L165.8 5.33L171.9 13.68L171.9 5.33L176.15 5.33L176.15 21.24L172.53 21.24L166.21 12.61L166.21 21.24Z" id="b8YRn6rfLq"></path><path d="M166.21 21.24L161.97 21.24L161.97 5.33L165.8 5.33L171.9 13.68L171.9 5.33L176.15 5.33L176.15 21.24L172.53 21.24L166.21 12.61L166.21 21.24Z" id="a3etLm028l"></path><path d="M170.39 3.85L167.97 3.85L170.44 0L172.85 0L170.39 3.85Z" id="a1iM3VbZLS"></path><path d="M170.39 3.85L167.97 3.85L170.44 0L172.85 0L170.39 3.85Z" id="bFnZCOdHu"></path><path d="M170.39 3.85L167.97 3.85L170.44 0L172.85 0L170.39 3.85Z" id="c7kZSf9qR"></path><path d="M170.39 3.85L167.97 3.85L170.44 0L172.85 0L170.39 3.85Z" id="dpiPDHnZ0"></path><path d="M170.39 3.85L167.97 3.85L170.44 0L172.85 0L170.39 3.85Z" id="da9Gvyhvo"></path><path d="M170.39 3.85L167.97 3.85L170.44 0L172.85 0L170.39 3.85Z" id="e7UhMvEBx"></path><path d="M170.39 3.85L167.97 3.85L170.44 0L172.85 0L170.39 3.85Z" id="dsK9GkIZG"></path><path d="M170.39 3.85L167.97 3.85L170.44 0L172.85 0L170.39 3.85Z" id="e7XHt5cWC"></path></defs><g><g><g><use xlink:href="#bJdxFrfZM" opacity="1" fill="#ffffff" fill-opacity="1"></use><g><use xlink:href="#bJdxFrfZM" opacity="1" fill-opacity="0" stroke="#000000" stroke-width="1" stroke-opacity="0"></use></g></g><g><use xlink:href="#d9RrTapyp" opacity="1" fill="#000000" fill-opacity="0"></use><g><use xlink:href="#d9RrTapyp" opacity="1" fill-opacity="0" stroke="#ffffff" stroke-width="1" stroke-opacity="0"></use></g></g><g><use xlink:href="#a59azK3Sy" opacity="1" fill="#ffffff" fill-opacity="1"></use><g><use xlink:href="#a59azK3Sy" opacity="1" fill-opacity="0" stroke="#000000" stroke-width="1" stroke-opacity="0"></use></g></g><g><use xlink:href="#a2ftjMSFGm" opacity="1" fill="#000000" fill-opacity="0"></use><g><use xlink:href="#a2ftjMSFGm" opacity="1" fill-opacity="0" stroke="#ffffff" stroke-width="1" stroke-opacity="0"></use></g></g><g><use xlink:href="#lXEcULGrk" opacity="1" fill="#ffffff" fill-opacity="1"></use><g><use xlink:href="#lXEcULGrk" opacity="1" fill-opacity="0" stroke="#000000" stroke-width="1" stroke-opacity="0"></use></g></g><g><use xlink:href="#ba4mOs7fb" opacity="1" fill="#000000" fill-opacity="0"></use><g><use xlink:href="#ba4mOs7fb" opacity="1" fill-opacity="0" stroke="#ffffff" stroke-width="1" stroke-opacity="0"></use></g></g><g><use xlink:href="#bllVC0OI4" opacity="1" fill="#ffffff" fill-opacity="1"></use><g><use xlink:href="#bllVC0OI4" opacity="1" fill-opacity="0" stroke="#000000" stroke-width="1" stroke-opacity="0"></use></g></g><g><use xlink:href="#a1l02AQbrQ" opacity="1" fill="#000000" fill-opacity="0"></use><g><use xlink:href="#a1l02AQbrQ" opacity="1" fill-opacity="0" stroke="#ffffff" stroke-width="1" stroke-opacity="0"></use></g></g><g><use xlink:href="#a1AySDjkxZ" opacity="1" fill="#ffffff" fill-opacity="1"></use><g><use xlink:href="#a1AySDjkxZ" opacity="1" fill-opacity="0" stroke="#000000" stroke-width="1" stroke-opacity="0"></use></g></g><g><use xlink:href="#d15mhtZzBk" opacity="1" fill="#000000" fill-opacity="0"></use><g><use xlink:href="#d15mhtZzBk" opacity="1" fill-opacity="0" stroke="#ffffff" stroke-width="1" stroke-opacity="0"></use></g></g><g><use xlink:href="#c3jzfNWaMZ" opacity="1" fill="#ffffff" fill-opacity="1"></use><g><use xlink:href="#c3jzfNWaMZ" opacity="1" fill-opacity="0" stroke="#000000" stroke-width="1" stroke-opacity="0"></use></g></g><g><use xlink:href="#b1kWVUyVn1" opacity="1" fill="#000000" fill-opacity="0"></use><g><use xlink:href="#b1kWVUyVn1" opacity="1" fill-opacity="0" stroke="#ffffff" stroke-width="1" stroke-opacity="0"></use></g></g><g><use xlink:href="#dpyjN90Qn" opacity="1" fill="#ffffff" fill-opacity="1"></use><g><use xlink:href="#dpyjN90Qn" opacity="1" fill-opacity="0" stroke="#000000" stroke-width="1" stroke-opacity="0"></use></g></g><g><use xlink:href="#b20qZXpKK" opacity="1" fill="#000000" fill-opacity="0"></use><g><use xlink:href="#b20qZXpKK" opacity="1" fill-opacity="0" stroke="#ffffff" stroke-width="1" stroke-opacity="0"></use></g></g><g><use xlink:href="#b6cABpsqT9" opacity="1" fill="#ffffff" fill-opacity="1"></use><g><use xlink:href="#b6cABpsqT9" opacity="1" fill-opacity="0" stroke="#000000" stroke-width="1" stroke-opacity="0"></use></g></g><g><use xlink:href="#e691dpIGTO" opacity="1" fill="#000000" fill-opacity="0"></use><g><use xlink:href="#e691dpIGTO" opacity="1" fill-opacity="0" stroke="#ffffff" stroke-width="1" stroke-opacity="0"></use></g></g><g><use xlink:href="#a3YDBrZ9s" opacity="1" fill="#ffffff" fill-opacity="1"></use><g><use xlink:href="#a3YDBrZ9s" opacity="1" fill-opacity="0" stroke="#000000" stroke-width="1" stroke-opacity="0"></use></g></g><g><use xlink:href="#b4VNGxSG8R" opacity="1" fill="#000000" fill-opacity="0"></use><g><use xlink:href="#b4VNGxSG8R" opacity="1" fill-opacity="0" stroke="#ffffff" stroke-width="1" stroke-opacity="0"></use></g></g><g><use xlink:href="#cqrkPnWQ1" opacity="1" fill="#ffffff" fill-opacity="1"></use><g><use xlink:href="#cqrkPnWQ1" opacity="1" fill-opacity="0" stroke="#000000" stroke-width="1" stroke-opacity="0"></use></g></g><g><use xlink:href="#cBEPkHfAM" opacity="1" fill="#000000" fill-opacity="0"></use><g><use xlink:href="#cBEPkHfAM" opacity="1" fill-opacity="0" stroke="#ffffff" stroke-width="1" stroke-opacity="0"></use></g></g><g><use xlink:href="#e2esVR2IEo" opacity="1" fill="#ffffff" fill-opacity="1"></use><g><use xlink:href="#e2esVR2IEo" opacity="1" fill-opacity="0" stroke="#000000" stroke-width="1" stroke-opacity="0"></use></g></g><g><use xlink:href="#c9Ip1GMgL" opacity="1" fill="#000000" fill-opacity="0"></use><g><use xlink:href="#c9Ip1GMgL" opacity="1" fill-opacity="0" stroke="#ffffff" stroke-width="1" stroke-opacity="0"></use></g></g><g><use xlink:href="#f1ecFlIeub" opacity="1" fill="#ffffff" fill-opacity="1"></use><g><use xlink:href="#f1ecFlIeub" opacity="1" fill-opacity="0" stroke="#000000" stroke-width="1" stroke-opacity="0"></use></g></g><g><use xlink:href="#cyIlZvFTK" opacity="1" fill="#000000" fill-opacity="0"></use><g><use xlink:href="#cyIlZvFTK" opacity="1" fill-opacity="0" stroke="#ffffff" stroke-width="1" stroke-opacity="0"></use></g></g><g><use xlink:href="#a45sBUThXa" opacity="1" fill="#ffffff" fill-opacity="1"></use><g><use xlink:href="#a45sBUThXa" opacity="1" fill-opacity="0" stroke="#000000" stroke-width="1" stroke-opacity="0"></use></g></g><g><use xlink:href="#aaE1Ztp70" opacity="1" fill="#000000" fill-opacity="0"></use><g><use xlink:href="#aaE1Ztp70" opacity="1" fill-opacity="0" stroke="#ffffff" stroke-width="1" stroke-opacity="0"></use></g></g><g><use xlink:href="#b1kJ24G5U" opacity="1" fill="#ffffff" fill-opacity="1"></use><g><use xlink:href="#b1kJ24G5U" opacity="1" fill-opacity="0" stroke="#000000" stroke-width="1" stroke-opacity="0"></use></g></g><g><use xlink:href="#g1KD5ov5wj" opacity="1" fill="#000000" fill-opacity="0"></use><g><use xlink:href="#g1KD5ov5wj" opacity="1" fill-opacity="0" stroke="#ffffff" stroke-width="1" stroke-opacity="0"></use></g></g><g><use xlink:href="#b1QoXhgd7" opacity="1" fill="#ffffff" fill-opacity="1"></use><g><use xlink:href="#b1QoXhgd7" opacity="1" fill-opacity="0" stroke="#000000" stroke-width="1" stroke-opacity="0"></use></g></g><g><use xlink:href="#b77BfHXSG" opacity="1" fill="#000000" fill-opacity="0"></use><g><use xlink:href="#b77BfHXSG" opacity="1" fill-opacity="0" stroke="#ffffff" stroke-width="1" stroke-opacity="0"></use></g></g><g><use xlink:href="#bez1TJwVJ" opacity="1" fill="#ffffff" fill-opacity="1"></use><g><use xlink:href="#bez1TJwVJ" opacity="1" fill-opacity="0" stroke="#000000" stroke-width="1" stroke-opacity="0"></use></g></g><g><use xlink:href="#aU5DzyJyA" opacity="1" fill="#000000" fill-opacity="0"></use><g><use xlink:href="#aU5DzyJyA" opacity="1" fill-opacity="0" stroke="#ffffff" stroke-width="1" stroke-opacity="0"></use></g></g><g><use xlink:href="#cYwOtvqoG" opacity="1" fill="#ffffff" fill-opacity="1"></use><g><use xlink:href="#cYwOtvqoG" opacity="1" fill-opacity="0" stroke="#000000" stroke-width="1" stroke-opacity="0"></use></g></g><g><use xlink:href="#a70XwyzUD" opacity="1" fill="#000000" fill-opacity="0"></use><g><use xlink:href="#a70XwyzUD" opacity="1" fill-opacity="0" stroke="#ffffff" stroke-width="1" stroke-opacity="0"></use></g></g><g><use xlink:href="#b8bJy6yLwk" opacity="1" fill="#ffffff" fill-opacity="1"></use><g><use xlink:href="#b8bJy6yLwk" opacity="1" fill-opacity="0" stroke="#000000" stroke-width="1" stroke-opacity="0"></use></g></g><g><use xlink:href="#acZDYF48t" opacity="1" fill="#000000" fill-opacity="0"></use><g><use xlink:href="#acZDYF48t" opacity="1" fill-opacity="0" stroke="#ffffff" stroke-width="1" stroke-opacity="0"></use></g></g><g><use xlink:href="#a1pSloiaAQ" opacity="1" fill="#ffffff" fill-opacity="1"></use><g><use xlink:href="#a1pSloiaAQ" opacity="1" fill-opacity="0" stroke="#000000" stroke-width="1" stroke-opacity="0"></use></g></g><g><use xlink:href="#a10pRqety2" opacity="1" fill="#000000" fill-opacity="0"></use><g><use xlink:href="#a10pRqety2" opacity="1" fill-opacity="0" stroke="#ffffff" stroke-width="1" stroke-opacity="0"></use></g></g><g><use xlink:href="#a7tk6KZRCX" opacity="1" fill="#ffffff" fill-opacity="1"></use><g><use xlink:href="#a7tk6KZRCX" opacity="1" fill-opacity="0" stroke="#000000" stroke-width="1" stroke-opacity="0"></use></g></g><g><use xlink:href="#bmei0K574" opacity="1" fill="#000000" fill-opacity="0"></use><g><use xlink:href="#bmei0K574" opacity="1" fill-opacity="0" stroke="#ffffff" stroke-width="1" stroke-opacity="0"></use></g></g><g><use xlink:href="#b3rDZSvXCM" opacity="1" fill="#ffffff" fill-opacity="1"></use><g><use xlink:href="#b3rDZSvXCM" opacity="1" fill-opacity="0" stroke="#000000" stroke-width="1" stroke-opacity="0"></use></g></g><g><use xlink:href="#b219HbZXeG" opacity="1" fill="#000000" fill-opacity="0"></use><g><use xlink:href="#b219HbZXeG" opacity="1" fill-opacity="0" stroke="#ffffff" stroke-width="1" stroke-opacity="0"></use></g></g><g><use xlink:href="#b2DSHStxSn" opacity="1" fill="#ffffff" fill-opacity="1"></use><g><use xlink:href="#b2DSHStxSn" opacity="1" fill-opacity="0" stroke="#000000" stroke-width="1" stroke-opacity="0"></use></g></g><g><use xlink:href="#gzOE8w5tC" opacity="1" fill="#000000" fill-opacity="0"></use><g><use xlink:href="#gzOE8w5tC" opacity="1" fill-opacity="0" stroke="#ffffff" stroke-width="1" stroke-opacity="0"></use></g></g><g><use xlink:href="#e4qXHcAmm" opacity="1" fill="#ffffff" fill-opacity="1"></use><g><use xlink:href="#e4qXHcAmm" opacity="1" fill-opacity="0" stroke="#000000" stroke-width="1" stroke-opacity="0"></use></g></g><g><use xlink:href="#bUe2dahnC" opacity="1" fill="#000000" fill-opacity="0"></use><g><use xlink:href="#bUe2dahnC" opacity="1" fill-opacity="0" stroke="#ffffff" stroke-width="1" stroke-opacity="0"></use></g></g><g><use xlink:href="#b1CU7uHYYn" opacity="1" fill="#ffffff" fill-opacity="1"></use><g><use xlink:href="#b1CU7uHYYn" opacity="1" fill-opacity="0" stroke="#000000" stroke-width="1" stroke-opacity="0"></use></g></g><g><use xlink:href="#a6gX1Vbye5" opacity="1" fill="#000000" fill-opacity="0"></use><g><use xlink:href="#a6gX1Vbye5" opacity="1" fill-opacity="0" stroke="#ffffff" stroke-width="1" stroke-opacity="0"></use></g></g><g><use xlink:href="#b1rfA89dmp" opacity="1" fill="#ffffff" fill-opacity="1"></use><g><use xlink:href="#b1rfA89dmp" opacity="1" fill-opacity="0" stroke="#000000" stroke-width="1" stroke-opacity="0"></use></g></g><g><use xlink:href="#b3z0nhhnO8" opacity="1" fill="#000000" fill-opacity="0"></use><g><use xlink:href="#b3z0nhhnO8" opacity="1" fill-opacity="0" stroke="#ffffff" stroke-width="1" stroke-opacity="0"></use></g></g><g><use xlink:href="#a16Vy9cX6c" opacity="1" fill="#ffffff" fill-opacity="1"></use><g><use xlink:href="#a16Vy9cX6c" opacity="1" fill-opacity="0" stroke="#000000" stroke-width="1" stroke-opacity="0"></use></g></g><g><use xlink:href="#c1sqqFEPEc" opacity="1" fill="#000000" fill-opacity="0"></use><g><use xlink:href="#c1sqqFEPEc" opacity="1" fill-opacity="0" stroke="#ffffff" stroke-width="1" stroke-opacity="0"></use></g></g><g><use xlink:href="#b3lgMBHbY" opacity="1" fill="#ffffff" fill-opacity="1"></use><g><use xlink:href="#b3lgMBHbY" opacity="1" fill-opacity="0" stroke="#000000" stroke-width="1" stroke-opacity="0"></use></g></g><g><use xlink:href="#a1743dqcpH" opacity="1" fill="#000000" fill-opacity="0"></use><g><use xlink:href="#a1743dqcpH" opacity="1" fill-opacity="0" stroke="#ffffff" stroke-width="1" stroke-opacity="0"></use></g></g><g><use xlink:href="#c1IQNbejN" opacity="1" fill="#ffffff" fill-opacity="1"></use><g><use xlink:href="#c1IQNbejN" opacity="1" fill-opacity="0" stroke="#000000" stroke-width="1" stroke-opacity="0"></use></g></g><g><use xlink:href="#b7GXoqtnu" opacity="1" fill="#000000" fill-opacity="0"></use><g><use xlink:href="#b7GXoqtnu" opacity="1" fill-opacity="0" stroke="#ffffff" stroke-width="1" stroke-opacity="0"></use></g></g><g><use xlink:href="#aOcBSYoVl" opacity="1" fill="#ffffff" fill-opacity="1"></use><g><use xlink:href="#aOcBSYoVl" opacity="1" fill-opacity="0" stroke="#000000" stroke-width="1" stroke-opacity="0"></use></g></g><g><use xlink:href="#aG8DrDnng" opacity="1" fill="#000000" fill-opacity="0"></use><g><use xlink:href="#aG8DrDnng" opacity="1" fill-opacity="0" stroke="#ffffff" stroke-width="1" stroke-opacity="0"></use></g></g><g><use xlink:href="#ajzvRvjQf" opacity="1" fill="#ffffff" fill-opacity="1"></use><g><use xlink:href="#ajzvRvjQf" opacity="1" fill-opacity="0" stroke="#000000" stroke-width="1" stroke-opacity="0"></use></g></g><g><use xlink:href="#b2OxUkcgwO" opacity="1" fill="#000000" fill-opacity="0"></use><g><use xlink:href="#b2OxUkcgwO" opacity="1" fill-opacity="0" stroke="#ffffff" stroke-width="1" stroke-opacity="0"></use></g></g><g><use xlink:href="#c97dfNBGi" opacity="1" fill="#ffffff" fill-opacity="1"></use><g><use xlink:href="#c97dfNBGi" opacity="1" fill-opacity="0" stroke="#000000" stroke-width="1" stroke-opacity="0"></use></g></g><g><use xlink:href="#gqBLRnrh" opacity="1" fill="#000000" fill-opacity="0"></use><g><use xlink:href="#gqBLRnrh" opacity="1" fill-opacity="0" stroke="#ffffff" stroke-width="1" stroke-opacity="0"></use></g></g><g><use xlink:href="#a1r2c00Izz" opacity="1" fill="#ffffff" fill-opacity="1"></use><g><use xlink:href="#a1r2c00Izz" opacity="1" fill-opacity="0" stroke="#000000" stroke-width="1" stroke-opacity="0"></use></g></g><g><use xlink:href="#aoLiwigzR" opacity="1" fill="#000000" fill-opacity="0"></use><g><use xlink:href="#aoLiwigzR" opacity="1" fill-opacity="0" stroke="#ffffff" stroke-width="1" stroke-opacity="0"></use></g></g><g><use xlink:href="#czXUwuCnl" opacity="1" fill="#ffffff" fill-opacity="1"></use><g><use xlink:href="#czXUwuCnl" opacity="1" fill-opacity="0" stroke="#000000" stroke-width="1" stroke-opacity="0"></use></g></g><g><use xlink:href="#b3b2XjkZq9" opacity="1" fill="#000000" fill-opacity="0"></use><g><use xlink:href="#b3b2XjkZq9" opacity="1" fill-opacity="0" stroke="#ffffff" stroke-width="1" stroke-opacity="0"></use></g></g><g><use xlink:href="#j2ZyWCKZ5z" opacity="1" fill="#ffffff" fill-opacity="1"></use><g><use xlink:href="#j2ZyWCKZ5z" opacity="1" fill-opacity="0" stroke="#000000" stroke-width="1" stroke-opacity="0"></use></g></g><g><use xlink:href="#dO7XwWhbN" opacity="1" fill="#000000" fill-opacity="0"></use><g><use xlink:href="#dO7XwWhbN" opacity="1" fill-opacity="0" stroke="#ffffff" stroke-width="1" stroke-opacity="0"></use></g></g><g><use xlink:href="#b4LLsBKZtu" opacity="1" fill="#ffffff" fill-opacity="1"></use><g><use xlink:href="#b4LLsBKZtu" opacity="1" fill-opacity="0" stroke="#000000" stroke-width="1" stroke-opacity="0"></use></g></g><g><use xlink:href="#b8oEwESL7" opacity="1" fill="#000000" fill-opacity="0"></use><g><use xlink:href="#b8oEwESL7" opacity="1" fill-opacity="0" stroke="#ffffff" stroke-width="1" stroke-opacity="0"></use></g></g><g><use xlink:href="#a2GC6fMuoD" opacity="1" fill="#ffffff" fill-opacity="1"></use><g><use xlink:href="#a2GC6fMuoD" opacity="1" fill-opacity="0" stroke="#000000" stroke-width="1" stroke-opacity="0"></use></g></g><g><use xlink:href="#cp3doAcP8" opacity="1" fill="#000000" fill-opacity="0"></use><g><use xlink:href="#cp3doAcP8" opacity="1" fill-opacity="0" stroke="#ffffff" stroke-width="1" stroke-opacity="0"></use></g></g><g><use xlink:href="#g23lOwpNsV" opacity="1" fill="#ffffff" fill-opacity="1"></use><g><use xlink:href="#g23lOwpNsV" opacity="1" fill-opacity="0" stroke="#000000" stroke-width="1" stroke-opacity="0"></use></g></g><g><use xlink:href="#b15uqDmKG3" opacity="1" fill="#000000" fill-opacity="0"></use><g><use xlink:href="#b15uqDmKG3" opacity="1" fill-opacity="0" stroke="#ffffff" stroke-width="1" stroke-opacity="0"></use></g></g><g><use xlink:href="#a1PQ26XbQC" opacity="1" fill="#ffffff" fill-opacity="1"></use><g><use xlink:href="#a1PQ26XbQC" opacity="1" fill-opacity="0" stroke="#000000" stroke-width="1" stroke-opacity="0"></use></g></g><g><use xlink:href="#b4C5bOt72" opacity="1" fill="#000000" fill-opacity="0"></use><g><use xlink:href="#b4C5bOt72" opacity="1" fill-opacity="0" stroke="#ffffff" stroke-width="1" stroke-opacity="0"></use></g></g><g><use xlink:href="#d1JKAK0Ki2" opacity="1" fill="#ffffff" fill-opacity="1"></use><g><use xlink:href="#d1JKAK0Ki2" opacity="1" fill-opacity="0" stroke="#000000" stroke-width="1" stroke-opacity="0"></use></g></g><g><use xlink:href="#abLf8vMTJ" opacity="1" fill="#000000" fill-opacity="0"></use><g><use xlink:href="#abLf8vMTJ" opacity="1" fill-opacity="0" stroke="#ffffff" stroke-width="1" stroke-opacity="0"></use></g></g><g><use xlink:href="#f1uQQbBGSK" opacity="1" fill="#ffffff" fill-opacity="1"></use><g><use xlink:href="#f1uQQbBGSK" opacity="1" fill-opacity="0" stroke="#000000" stroke-width="1" stroke-opacity="0"></use></g></g><g><use xlink:href="#a1fGP0KlYd" opacity="1" fill="#000000" fill-opacity="0"></use><g><use xlink:href="#a1fGP0KlYd" opacity="1" fill-opacity="0" stroke="#ffffff" stroke-width="1" stroke-opacity="0"></use></g></g><g><use xlink:href="#b1D1k2ZqVT" opacity="1" fill="#ffffff" fill-opacity="1"></use><g><use xlink:href="#b1D1k2ZqVT" opacity="1" fill-opacity="0" stroke="#000000" stroke-width="1" stroke-opacity="0"></use></g></g><g><use xlink:href="#c9TG97dsy" opacity="1" fill="#000000" fill-opacity="0"></use><g><use xlink:href="#c9TG97dsy" opacity="1" fill-opacity="0" stroke="#ffffff" stroke-width="1" stroke-opacity="0"></use></g></g><g><use xlink:href="#bzXlij3a" opacity="1" fill="#ffffff" fill-opacity="1"></use><g><use xlink:href="#bzXlij3a" opacity="1" fill-opacity="0" stroke="#000000" stroke-width="1" stroke-opacity="0"></use></g></g><g><use xlink:href="#fJl9d8J8G" opacity="1" fill="#000000" fill-opacity="0"></use><g><use xlink:href="#fJl9d8J8G" opacity="1" fill-opacity="0" stroke="#ffffff" stroke-width="1" stroke-opacity="0"></use></g></g><g><use xlink:href="#a1ncxlkgIl" opacity="1" fill="#ffffff" fill-opacity="1"></use><g><use xlink:href="#a1ncxlkgIl" opacity="1" fill-opacity="0" stroke="#000000" stroke-width="1" stroke-opacity="0"></use></g></g><g><use xlink:href="#l2o0JAZbG" opacity="1" fill="#000000" fill-opacity="0"></use><g><use xlink:href="#l2o0JAZbG" opacity="1" fill-opacity="0" stroke="#ffffff" stroke-width="1" stroke-opacity="0"></use></g></g><g><use xlink:href="#b8YRn6rfLq" opacity="1" fill="#ffffff" fill-opacity="1"></use><g><use xlink:href="#b8YRn6rfLq" opacity="1" fill-opacity="0" stroke="#000000" stroke-width="1" stroke-opacity="0"></use></g></g><g><use xlink:href="#a3etLm028l" opacity="1" fill="#000000" fill-opacity="0"></use><g><use xlink:href="#a3etLm028l" opacity="1" fill-opacity="0" stroke="#ffffff" stroke-width="1" stroke-opacity="0"></use></g></g><g><use xlink:href="#a1iM3VbZLS" opacity="1" fill="#ffffff" fill-opacity="1"></use><g><use xlink:href="#a1iM3VbZLS" opacity="1" fill-opacity="0" stroke="#000000" stroke-width="1" stroke-opacity="0"></use></g></g><g><use xlink:href="#bFnZCOdHu" opacity="1" fill="#000000" fill-opacity="0"></use><g><use xlink:href="#bFnZCOdHu" opacity="1" fill-opacity="0" stroke="#ffffff" stroke-width="1" stroke-opacity="0"></use></g></g><g><use xlink:href="#c7kZSf9qR" opacity="1" fill="#ffffff" fill-opacity="1"></use><g><use xlink:href="#c7kZSf9qR" opacity="1" fill-opacity="0" stroke="#000000" stroke-width="1" stroke-opacity="0"></use></g></g><g><use xlink:href="#dpiPDHnZ0" opacity="1" fill="#000000" fill-opacity="0"></use><g><use xlink:href="#dpiPDHnZ0" opacity="1" fill-opacity="0" stroke="#ffffff" stroke-width="1" stroke-opacity="0"></use></g></g><g><use xlink:href="#da9Gvyhvo" opacity="1" fill="#ffffff" fill-opacity="1"></use><g><use xlink:href="#da9Gvyhvo" opacity="1" fill-opacity="0" stroke="#000000" stroke-width="1" stroke-opacity="0"></use></g></g><g><use xlink:href="#e7UhMvEBx" opacity="1" fill="#000000" fill-opacity="0"></use><g><use xlink:href="#e7UhMvEBx" opacity="1" fill-opacity="0" stroke="#ffffff" stroke-width="1" stroke-opacity="0"></use></g></g><g><use xlink:href="#dsK9GkIZG" opacity="1" fill="#ffffff" fill-opacity="1"></use><g><use xlink:href="#dsK9GkIZG" opacity="1" fill-opacity="0" stroke="#000000" stroke-width="1" stroke-opacity="0"></use></g></g><g><use xlink:href="#e7XHt5cWC" opacity="1" fill="#000000" fill-opacity="0"></use><g><use xlink:href="#e7XHt5cWC" opacity="1" fill-opacity="0" stroke="#ffffff" stroke-width="1" stroke-opacity="0"></use></g></g></g></g></svg>