<?xml version="1.0" encoding="UTF-8" standalone="no"?>
<!DOCTYPE svg PUBLIC "-//W3C//DTD SVG 1.1//EN" "http://www.w3.org/Graphics/SVG/1.1/DTD/svg11.dtd">
<svg version="1.1" xmlns="http://www.w3.org/2000/svg" xmlns:xlink="http://www.w3.org/1999/xlink" preserveAspectRatio="xMidYMid meet" viewBox="0 0 258 39" width="258" height="39"><defs><path d="M38.32 39C38.32 39 38.32 39 38.32 39C15.34 39 2.6 39 0.04 39C0.04 39 0.04 39 0.04 39C0.04 16.04 0.04 3.28 0.04 0.73C0.04 0.73 0.04 0.73 0.04 0.73C23.01 0.73 35.77 0.73 38.32 0.73C38.32 0.73 38.32 0.73 38.32 0.73C38.32 23.7 38.32 36.45 38.32 39Z" id="a1wwwD6R6a"></path><path d="M38.32 39C38.32 39 38.32 39 38.32 39C15.34 39 2.6 39 0.04 39C0.04 39 0.04 39 0.04 39C0.04 16.04 0.04 3.28 0.04 0.73C0.04 0.73 0.04 0.73 0.04 0.73C23.01 0.73 35.77 0.73 38.32 0.73C38.32 0.73 38.32 0.73 38.32 0.73C38.32 23.7 38.32 36.45 38.32 39Z" id="a2MwU9VqKy"></path><path d="M38.32 39C38.32 39 38.32 39 38.32 39C15.34 39 2.6 39 0.04 39C0.04 39 0.04 39 0.04 39C0.04 16.04 0.04 3.28 0.04 0.73C0.04 0.73 0.04 0.73 0.04 0.73C23.01 0.73 35.77 0.73 38.32 0.73C38.32 0.73 38.32 0.73 38.32 0.73C38.32 23.7 38.32 36.45 38.32 39Z" id="e8NUtTh3gI"></path><path d="M38.32 39C38.32 39 38.32 39 38.32 39C15.34 39 2.6 39 0.04 39C0.04 39 0.04 39 0.04 39C0.04 16.04 0.04 3.28 0.04 0.73C0.04 0.73 0.04 0.73 0.04 0.73C23.01 0.73 35.77 0.73 38.32 0.73C38.32 0.73 38.32 0.73 38.32 0.73C38.32 23.7 38.32 36.45 38.32 39Z" id="c4fKpjy7AA"></path><path d="M48.58 28.96L56.02 10.05L61.12 10.05L68.7 28.96L62.96 28.96L61.91 25.89L55.22 25.89L54.17 28.96L48.58 28.96ZM58.56 15.97L56.48 21.82L60.65 21.82L58.56 15.97Z" id="i105fEPmJ"></path><path d="M48.58 28.96L56.02 10.05L61.12 10.05L68.7 28.96L62.96 28.96L61.91 25.89L55.22 25.89L54.17 28.96L48.58 28.96ZM58.56 15.97L56.48 21.82L60.65 21.82L58.56 15.97Z" id="a1nNHj5Ti2"></path><path d="M48.58 28.96L56.02 10.05L61.12 10.05L68.7 28.96L62.96 28.96L61.91 25.89L55.22 25.89L54.17 28.96L48.58 28.96ZM58.56 15.97L56.48 21.82L60.65 21.82L58.56 15.97Z" id="c3sjqbCodB"></path><path d="M48.58 28.96L56.02 10.05L61.12 10.05L68.7 28.96L62.96 28.96L61.91 25.89L55.22 25.89L54.17 28.96L48.58 28.96ZM58.56 15.97L56.48 21.82L60.65 21.82L58.56 15.97Z" id="eGto5wjH3"></path><path d="M70.53 10.06L75.81 10.06L75.81 24.2L82.53 24.2L82.53 28.97L70.53 28.97L70.53 10.06Z" id="b2gZYwMm29"></path><path d="M70.53 10.06L75.81 10.06L75.81 24.2L82.53 24.2L82.53 28.97L70.53 28.97L70.53 10.06Z" id="dg05NcmMo"></path><path d="M70.53 10.06L75.81 10.06L75.81 24.2L82.53 24.2L82.53 28.97L70.53 28.97L70.53 10.06Z" id="a205wdw0J3"></path><path d="M70.53 10.06L75.81 10.06L75.81 24.2L82.53 24.2L82.53 28.97L70.53 28.97L70.53 10.06Z" id="a3bBYXStAt"></path><path d="M86.32 28.97L86.32 14.75L81.18 14.75L81.18 10.06L96.69 10.06L96.69 14.75L91.56 14.75L91.56 28.97L86.32 28.97Z" id="h3y6XWgwoa"></path><path d="M86.32 28.97L86.32 14.75L81.18 14.75L81.18 10.06L96.69 10.06L96.69 14.75L91.56 14.75L91.56 28.97L86.32 28.97Z" id="atvC1RyNY"></path><path d="M86.32 28.97L86.32 14.75L81.18 14.75L81.18 10.06L96.69 10.06L96.69 14.75L91.56 14.75L91.56 28.97L86.32 28.97Z" id="b32sx96kGY"></path><path d="M86.32 28.97L86.32 14.75L81.18 14.75L81.18 10.06L96.69 10.06L96.69 14.75L91.56 14.75L91.56 28.97L86.32 28.97Z" id="cdxUcCS6X"></path><path d="M95.27 28.96L102.71 10.05L107.8 10.05L115.39 28.96L109.64 28.96L108.59 25.89L101.9 25.89L100.85 28.96L95.27 28.96ZM105.25 15.97L103.17 21.82L107.34 21.82L105.25 15.97Z" id="euyj6UVHO"></path><path d="M95.27 28.96L102.71 10.05L107.8 10.05L115.39 28.96L109.64 28.96L108.59 25.89L101.9 25.89L100.85 28.96L95.27 28.96ZM105.25 15.97L103.17 21.82L107.34 21.82L105.25 15.97Z" id="b2oGGyqOnc"></path><path d="M95.27 28.96L102.71 10.05L107.8 10.05L115.39 28.96L109.64 28.96L108.59 25.89L101.9 25.89L100.85 28.96L95.27 28.96ZM105.25 15.97L103.17 21.82L107.34 21.82L105.25 15.97Z" id="agTPMsCjc"></path><path d="M95.27 28.96L102.71 10.05L107.8 10.05L115.39 28.96L109.64 28.96L108.59 25.89L101.9 25.89L100.85 28.96L95.27 28.96ZM105.25 15.97L103.17 21.82L107.34 21.82L105.25 15.97Z" id="a84AuhkBq"></path><path d="M122.26 18.71L122.26 28.97L117.2 28.97L117.2 10.06L121.76 10.06L129.03 19.98L129.03 10.06L134.07 10.06L134.07 28.97L129.76 28.97L122.26 18.71Z" id="e1dLi6thQl"></path><path d="M122.26 18.71L122.26 28.97L117.2 28.97L117.2 10.06L121.76 10.06L129.03 19.98L129.03 10.06L134.07 10.06L134.07 28.97L129.76 28.97L122.26 18.71Z" id="a2hqL3uzUT"></path><path d="M122.26 18.71L122.26 28.97L117.2 28.97L117.2 10.06L121.76 10.06L129.03 19.98L129.03 10.06L134.07 10.06L134.07 28.97L129.76 28.97L122.26 18.71Z" id="d1GHKfvs9I"></path><path d="M122.26 18.71L122.26 28.97L117.2 28.97L117.2 10.06L121.76 10.06L129.03 19.98L129.03 10.06L134.07 10.06L134.07 28.97L129.76 28.97L122.26 18.71Z" id="bozhETyaw"></path><path d="M142.69 21.56L136.13 10.06L141.91 10.06L145.36 16.89L148.81 10.06L154.59 10.06L148 21.58L148 28.97L142.69 28.97L142.69 21.56Z" id="aTf4Z8Qx8"></path><path d="M142.69 21.56L136.13 10.06L141.91 10.06L145.36 16.89L148.81 10.06L154.59 10.06L148 21.58L148 28.97L142.69 28.97L142.69 21.56Z" id="b5yyBGySwI"></path><path d="M142.69 21.56L136.13 10.06L141.91 10.06L145.36 16.89L148.81 10.06L154.59 10.06L148 21.58L148 28.97L142.69 28.97L142.69 21.56Z" id="b2AJCniuBB"></path><path d="M142.69 21.56L136.13 10.06L141.91 10.06L145.36 16.89L148.81 10.06L154.59 10.06L148 21.58L148 28.97L142.69 28.97L142.69 21.56Z" id="f1cAaDHW0Y"></path><path d="M162.16 28.97L162.16 10.06L167.37 10.06L167.37 18.04L172.37 10.06L178.41 10.06L172.36 19.22L178.97 28.97L172.8 28.97L167.37 20.62L167.37 28.97L162.16 28.97Z" id="a2Fgi1OwbH"></path><path d="M162.16 28.97L162.16 10.06L167.37 10.06L167.37 18.04L172.37 10.06L178.41 10.06L172.36 19.22L178.97 28.97L172.8 28.97L167.37 20.62L167.37 28.97L162.16 28.97Z" id="aaJUvgUgP"></path><path d="M162.16 28.97L162.16 10.06L167.37 10.06L167.37 18.04L172.37 10.06L178.41 10.06L172.36 19.22L178.97 28.97L172.8 28.97L167.37 20.62L167.37 28.97L162.16 28.97Z" id="a1eZyrKzNM"></path><path d="M162.16 28.97L162.16 10.06L167.37 10.06L167.37 18.04L172.37 10.06L178.41 10.06L172.36 19.22L178.97 28.97L172.8 28.97L167.37 20.62L167.37 28.97L162.16 28.97Z" id="aBR2OYrVs"></path><path d="M178.62 28.96L186.05 10.05L191.15 10.05L198.73 28.96L192.99 28.96L191.95 25.89L185.25 25.89L184.2 28.96L178.62 28.96ZM188.59 15.97L186.51 21.82L190.67 21.82L188.59 15.97Z" id="e2D8BianFw"></path><path d="M178.62 28.96L186.05 10.05L191.15 10.05L198.73 28.96L192.99 28.96L191.95 25.89L185.25 25.89L184.2 28.96L178.62 28.96ZM188.59 15.97L186.51 21.82L190.67 21.82L188.59 15.97Z" id="e10KK48mup"></path><path d="M178.62 28.96L186.05 10.05L191.15 10.05L198.73 28.96L192.99 28.96L191.95 25.89L185.25 25.89L184.2 28.96L178.62 28.96ZM188.59 15.97L186.51 21.82L190.67 21.82L188.59 15.97Z" id="bqxsZgT8P"></path><path d="M178.62 28.96L186.05 10.05L191.15 10.05L198.73 28.96L192.99 28.96L191.95 25.89L185.25 25.89L184.2 28.96L178.62 28.96ZM188.59 15.97L186.51 21.82L190.67 21.82L188.59 15.97Z" id="g3JNtAr5Uy"></path><path d="M200.55 28.97C200.55 17.63 200.55 11.32 200.55 10.06C205.47 10.06 208.2 10.06 208.74 10.06C212.83 10.06 215.77 12.8 215.77 16.75C215.77 19.08 214.63 20.97 212.78 22.09C213.02 22.55 214.28 24.83 216.52 28.96C216.13 28.96 214.2 28.96 210.72 28.96C210.51 28.58 209.49 26.65 207.66 23.19L205.76 23.19L205.76 28.97C202.63 28.97 200.9 28.97 200.55 28.97ZM208.15 14.68C207.99 14.68 207.18 14.68 205.76 14.68C205.76 15.09 205.76 18.38 205.76 18.79C207.18 18.79 207.99 18.79 208.15 18.79C209.6 18.79 210.43 17.92 210.43 16.73C210.43 15.55 209.6 14.68 208.15 14.68Z" id="a22RUnoAbb"></path><path d="M200.55 28.97C200.55 17.63 200.55 11.32 200.55 10.06C205.47 10.06 208.2 10.06 208.74 10.06C212.83 10.06 215.77 12.8 215.77 16.75C215.77 19.08 214.63 20.97 212.78 22.09C213.02 22.55 214.28 24.83 216.52 28.96C216.13 28.96 214.2 28.96 210.72 28.96C210.51 28.58 209.49 26.65 207.66 23.19L205.76 23.19L205.76 28.97C202.63 28.97 200.9 28.97 200.55 28.97ZM208.15 14.68C207.99 14.68 207.18 14.68 205.76 14.68C205.76 15.09 205.76 18.38 205.76 18.79C207.18 18.79 207.99 18.79 208.15 18.79C209.6 18.79 210.43 17.92 210.43 16.73C210.43 15.55 209.6 14.68 208.15 14.68Z" id="amGzEbuBe"></path><path d="M200.55 28.97C200.55 17.63 200.55 11.32 200.55 10.06C205.47 10.06 208.2 10.06 208.74 10.06C212.83 10.06 215.77 12.8 215.77 16.75C215.77 19.08 214.63 20.97 212.78 22.09C213.02 22.55 214.28 24.83 216.52 28.96C216.13 28.96 214.2 28.96 210.72 28.96C210.51 28.58 209.49 26.65 207.66 23.19L205.76 23.19L205.76 28.97C202.63 28.97 200.9 28.97 200.55 28.97ZM208.15 14.68C207.99 14.68 207.18 14.68 205.76 14.68C205.76 15.09 205.76 18.38 205.76 18.79C207.18 18.79 207.99 18.79 208.15 18.79C209.6 18.79 210.43 17.92 210.43 16.73C210.43 15.55 209.6 14.68 208.15 14.68Z" id="e26329Rn57"></path><path d="M200.55 28.97C200.55 17.63 200.55 11.32 200.55 10.06C205.47 10.06 208.2 10.06 208.74 10.06C212.83 10.06 215.77 12.8 215.77 16.75C215.77 19.08 214.63 20.97 212.78 22.09C213.02 22.55 214.28 24.83 216.52 28.96C216.13 28.96 214.2 28.96 210.72 28.96C210.51 28.58 209.49 26.65 207.66 23.19L205.76 23.19L205.76 28.97C202.63 28.97 200.9 28.97 200.55 28.97ZM208.15 14.68C207.99 14.68 207.18 14.68 205.76 14.68C205.76 15.09 205.76 18.38 205.76 18.79C207.18 18.79 207.99 18.79 208.15 18.79C209.6 18.79 210.43 17.92 210.43 16.73C210.43 15.55 209.6 14.68 208.15 14.68Z" id="d14TQvhtLY"></path><path d="M217.66 19.52C217.66 13.73 221.99 9.58 228.08 9.58C234.14 9.58 238.46 13.72 238.46 19.52C238.47 25.31 234.14 29.44 228.08 29.44C228.08 29.44 228.08 29.44 228.08 29.44C226.83 29.4 225.69 29.24 224.68 28.97C223.45 28.65 222.39 28.16 221.52 27.55C218.58 25.5 217.66 22.02 217.66 19.52ZM228.08 24.61C230.96 24.6 233.04 22.48 233.04 19.53C233.04 16.56 230.97 14.44 228.08 14.44C225.2 14.44 223.09 16.57 223.09 19.53C223.09 22.47 225.2 24.61 228.08 24.61Z" id="e19Z5PucJ9"></path><path d="M217.66 19.52C217.66 13.73 221.99 9.58 228.08 9.58C234.14 9.58 238.46 13.72 238.46 19.52C238.47 25.31 234.14 29.44 228.08 29.44C228.08 29.44 228.08 29.44 228.08 29.44C226.83 29.4 225.69 29.24 224.68 28.97C223.45 28.65 222.39 28.16 221.52 27.55C218.58 25.5 217.66 22.02 217.66 19.52ZM228.08 24.61C230.96 24.6 233.04 22.48 233.04 19.53C233.04 16.56 230.97 14.44 228.08 14.44C225.2 14.44 223.09 16.57 223.09 19.53C223.09 22.47 225.2 24.61 228.08 24.61Z" id="dA206Geyp"></path><path d="M217.66 19.52C217.66 13.73 221.99 9.58 228.08 9.58C234.14 9.58 238.46 13.72 238.46 19.52C238.47 25.31 234.14 29.44 228.08 29.44C228.08 29.44 228.08 29.44 228.08 29.44C226.83 29.4 225.69 29.24 224.68 28.97C223.45 28.65 222.39 28.16 221.52 27.55C218.58 25.5 217.66 22.02 217.66 19.52ZM228.08 24.61C230.96 24.6 233.04 22.48 233.04 19.53C233.04 16.56 230.97 14.44 228.08 14.44C225.2 14.44 223.09 16.57 223.09 19.53C223.09 22.47 225.2 24.61 228.08 24.61Z" id="bWr9mPW3o"></path><path d="M217.66 19.52C217.66 13.73 221.99 9.58 228.08 9.58C234.14 9.58 238.46 13.72 238.46 19.52C238.47 25.31 234.14 29.44 228.08 29.44C228.08 29.44 228.08 29.44 228.08 29.44C226.83 29.4 225.69 29.24 224.68 28.97C223.45 28.65 222.39 28.16 221.52 27.55C218.58 25.5 217.66 22.02 217.66 19.52ZM228.08 24.61C230.96 24.6 233.04 22.48 233.04 19.53C233.04 16.56 230.97 14.44 228.08 14.44C225.2 14.44 223.09 16.57 223.09 19.53C223.09 22.47 225.2 24.61 228.08 24.61Z" id="a472mAGtcW"></path><path d="M246.18 18.71L246.18 28.97L241.14 28.97L241.14 10.06L245.69 10.06L252.96 19.98L252.96 10.06L258 10.06L258 28.97L253.7 28.97L246.18 18.71Z" id="f9YiReYfx"></path><path d="M246.18 18.71L246.18 28.97L241.14 28.97L241.14 10.06L245.69 10.06L252.96 19.98L252.96 10.06L258 10.06L258 28.97L253.7 28.97L246.18 18.71Z" id="a1flQn0tgF"></path><path d="M246.18 18.71L246.18 28.97L241.14 28.97L241.14 10.06L245.69 10.06L252.96 19.98L252.96 10.06L258 10.06L258 28.97L253.7 28.97L246.18 18.71Z" id="e1a1sYmJ60"></path><path d="M246.18 18.71L246.18 28.97L241.14 28.97L241.14 10.06L245.69 10.06L252.96 19.98L252.96 10.06L258 10.06L258 28.97L253.7 28.97L246.18 18.71Z" id="aVwPO6ogO"></path><path d="M5.31 16.18L34.52 16.18L34.61 16.24L34.61 18.5L5.31 18.5L5.31 16.18Z" id="a6rGZonnA"></path><path d="M5.31 16.18L34.52 16.18L34.61 16.24L34.61 18.5L5.31 18.5L5.31 16.18Z" id="ibjuzyk"></path><path d="M5.31 16.18L34.52 16.18L34.61 16.24L34.61 18.5L5.31 18.5L5.31 16.18Z" id="eMuRN4Kio"></path><path d="M5.31 16.18L34.52 16.18L34.61 16.24L34.61 18.5L5.31 18.5L5.31 16.18Z" id="b7D1eCjuM"></path><path d="M4.97 15.39L5.93 14.78L33.67 14.78L34.27 15.17L34.27 15.5L4.97 15.5L4.97 15.39Z" id="ab8bQOkZk"></path><path d="M4.97 15.39L5.93 14.78L33.67 14.78L34.27 15.17L34.27 15.5L4.97 15.5L4.97 15.39Z" id="blq0brmo6"></path><path d="M4.97 15.39L5.93 14.78L33.67 14.78L34.27 15.17L34.27 15.5L4.97 15.5L4.97 15.39Z" id="g47n66LQUQ"></path><path d="M4.97 15.39L5.93 14.78L33.67 14.78L34.27 15.17L34.27 15.5L4.97 15.5L4.97 15.39Z" id="b4BIy90P3"></path><path d="M31.14 13.13L32.26 13.86L7.33 13.86L8.45 13.13L31.14 13.13Z" id="a2uXljBhS5"></path><path d="M31.14 13.13L32.26 13.86L7.33 13.86L8.45 13.13L31.14 13.13Z" id="a3LyReB7Jz"></path><path d="M31.14 13.13L32.26 13.86L7.33 13.86L8.45 13.13L31.14 13.13Z" id="b38pPo0pp"></path><path d="M31.14 13.13L32.26 13.86L7.33 13.86L8.45 13.13L31.14 13.13Z" id="g79eeDoDBq"></path><path d="M28.61 11.49L29.74 12.22L9.85 12.22L10.97 11.49L28.61 11.49Z" id="a5Tk6KRqm"></path><path d="M28.61 11.49L29.74 12.22L9.85 12.22L10.97 11.49L28.61 11.49Z" id="jUjcyuKI6"></path><path d="M28.61 11.49L29.74 12.22L9.85 12.22L10.97 11.49L28.61 11.49Z" id="gKTOyyf2W"></path><path d="M28.61 11.49L29.74 12.22L9.85 12.22L10.97 11.49L28.61 11.49Z" id="a68Yr6JnL"></path><path d="M26.1 9.85L27.21 10.59L12.36 10.59L13.5 9.85L26.1 9.85Z" id="a5wheHbvo"></path><path d="M26.1 9.85L27.21 10.59L12.36 10.59L13.5 9.85L26.1 9.85Z" id="a4UQ7tl5Vz"></path><path d="M26.1 9.85L27.21 10.59L12.36 10.59L13.5 9.85L26.1 9.85Z" id="l15Qr8iSfV"></path><path d="M26.1 9.85L27.21 10.59L12.36 10.59L13.5 9.85L26.1 9.85Z" id="i2yTBu54yy"></path><path d="M7.62 35.97C7.62 35.97 7.62 35.97 7.62 35.97C6.24 35.97 5.47 35.97 5.31 35.97C5.31 35.97 5.31 35.97 5.31 35.97C5.31 24.1 5.31 17.51 5.31 16.18C5.31 16.18 5.31 16.18 5.31 16.18C6.7 16.18 7.47 16.18 7.62 16.18C7.62 16.18 7.62 16.18 7.62 16.18C7.62 28.05 7.62 34.64 7.62 35.97Z" id="fZ7iP7dYk"></path><path d="M7.62 35.97C7.62 35.97 7.62 35.97 7.62 35.97C6.24 35.97 5.47 35.97 5.31 35.97C5.31 35.97 5.31 35.97 5.31 35.97C5.31 24.1 5.31 17.51 5.31 16.18C5.31 16.18 5.31 16.18 5.31 16.18C6.7 16.18 7.47 16.18 7.62 16.18C7.62 16.18 7.62 16.18 7.62 16.18C7.62 28.05 7.62 34.64 7.62 35.97Z" id="a8uLDb01K"></path><path d="M7.62 35.97C7.62 35.97 7.62 35.97 7.62 35.97C6.24 35.97 5.47 35.97 5.31 35.97C5.31 35.97 5.31 35.97 5.31 35.97C5.31 24.1 5.31 17.51 5.31 16.18C5.31 16.18 5.31 16.18 5.31 16.18C6.7 16.18 7.47 16.18 7.62 16.18C7.62 16.18 7.62 16.18 7.62 16.18C7.62 28.05 7.62 34.64 7.62 35.97Z" id="b18kq7Vjw"></path><path d="M7.62 35.97C7.62 35.97 7.62 35.97 7.62 35.97C6.24 35.97 5.47 35.97 5.31 35.97C5.31 35.97 5.31 35.97 5.31 35.97C5.31 24.1 5.31 17.51 5.31 16.18C5.31 16.18 5.31 16.18 5.31 16.18C6.7 16.18 7.47 16.18 7.62 16.18C7.62 16.18 7.62 16.18 7.62 16.18C7.62 28.05 7.62 34.64 7.62 35.97Z" id="bdo0NAHw8"></path><path d="M32.3 16.18L34.52 16.18L34.61 16.24L34.61 35.97L32.3 35.97L32.3 16.18Z" id="b2iT4qqGxQ"></path><path d="M32.3 16.18L34.52 16.18L34.61 16.24L34.61 35.97L32.3 35.97L32.3 16.18Z" id="d1oaIcznQg"></path><path d="M32.3 16.18L34.52 16.18L34.61 16.24L34.61 35.97L32.3 35.97L32.3 16.18Z" id="gHPsHEGsO"></path><path d="M32.3 16.18L34.52 16.18L34.61 16.24L34.61 35.97L32.3 35.97L32.3 16.18Z" id="a3hTTPDU"></path><path d="M16.59 10.59L15.2 11.49L14.08 12.22L12.67 13.13L11.56 13.86L10.13 14.78L9.03 15.5L7.97 16.18L7.63 16.41L6.85 16.92L5.31 17.91L5.26 17.95L3.04 19.38L2.55 19.71L2.55 16.97L2.63 16.92L4.97 15.39L5.93 14.78L7.33 13.86L8.45 13.13L9.85 12.22L10.97 11.49L12.36 10.59L13.5 9.85L18.75 6.44L19.71 5.81L19.79 5.76L19.82 5.74L19.88 5.81L20.63 6.78L21.24 7.57L19.79 8.51L17.72 9.85L16.59 10.59Z" id="c1EyCQjUGn"></path><path d="M16.59 10.59L15.2 11.49L14.08 12.22L12.67 13.13L11.56 13.86L10.13 14.78L9.03 15.5L7.97 16.18L7.63 16.41L6.85 16.92L5.31 17.91L5.26 17.95L3.04 19.38L2.55 19.71L2.55 16.97L2.63 16.92L4.97 15.39L5.93 14.78L7.33 13.86L8.45 13.13L9.85 12.22L10.97 11.49L12.36 10.59L13.5 9.85L18.75 6.44L19.71 5.81L19.79 5.76L19.82 5.74L19.88 5.81L20.63 6.78L21.24 7.57L19.79 8.51L17.72 9.85L16.59 10.59Z" id="c1oDfqJNKB"></path><path d="M16.59 10.59L15.2 11.49L14.08 12.22L12.67 13.13L11.56 13.86L10.13 14.78L9.03 15.5L7.97 16.18L7.63 16.41L6.85 16.92L5.31 17.91L5.26 17.95L3.04 19.38L2.55 19.71L2.55 16.97L2.63 16.92L4.97 15.39L5.93 14.78L7.33 13.86L8.45 13.13L9.85 12.22L10.97 11.49L12.36 10.59L13.5 9.85L18.75 6.44L19.71 5.81L19.79 5.76L19.82 5.74L19.88 5.81L20.63 6.78L21.24 7.57L19.79 8.51L17.72 9.85L16.59 10.59Z" id="li0OVfChq"></path><path d="M16.59 10.59L15.2 11.49L14.08 12.22L12.67 13.13L11.56 13.86L10.13 14.78L9.03 15.5L7.97 16.18L7.63 16.41L6.85 16.92L5.31 17.91L5.26 17.95L3.04 19.38L2.55 19.71L2.55 16.97L2.63 16.92L4.97 15.39L5.93 14.78L7.33 13.86L8.45 13.13L9.85 12.22L10.97 11.49L12.36 10.59L13.5 9.85L18.75 6.44L19.71 5.81L19.79 5.76L19.82 5.74L19.88 5.81L20.63 6.78L21.24 7.57L19.79 8.51L17.72 9.85L16.59 10.59Z" id="i1pDNoc0cQ"></path><path d="M34.61 18.13L34.32 17.95L32.73 16.92L32.3 16.63L31.62 16.18L30.57 15.5L29.44 14.78L28.03 13.86L26.91 13.13L25.51 12.22L24.39 11.49L23 10.59L21.87 9.85L19.79 8.51L18.35 7.57L18.97 6.76L19.71 5.81L19.77 5.74L19.79 5.76L19.88 5.81L20.89 6.47L26.1 9.85L27.21 10.59L28.61 11.49L29.74 12.22L31.14 13.13L32.26 13.86L33.67 14.78L34.27 15.17L36.96 16.92L37.03 16.97L37.03 19.71L36.54 19.38L34.61 18.13Z" id="d2CtIWd1D6"></path><path d="M34.61 18.13L34.32 17.95L32.73 16.92L32.3 16.63L31.62 16.18L30.57 15.5L29.44 14.78L28.03 13.86L26.91 13.13L25.51 12.22L24.39 11.49L23 10.59L21.87 9.85L19.79 8.51L18.35 7.57L18.97 6.76L19.71 5.81L19.77 5.74L19.79 5.76L19.88 5.81L20.89 6.47L26.1 9.85L27.21 10.59L28.61 11.49L29.74 12.22L31.14 13.13L32.26 13.86L33.67 14.78L34.27 15.17L36.96 16.92L37.03 16.97L37.03 19.71L36.54 19.38L34.61 18.13Z" id="h3N3eiuu64"></path><path d="M34.61 18.13L34.32 17.95L32.73 16.92L32.3 16.63L31.62 16.18L30.57 15.5L29.44 14.78L28.03 13.86L26.91 13.13L25.51 12.22L24.39 11.49L23 10.59L21.87 9.85L19.79 8.51L18.35 7.57L18.97 6.76L19.71 5.81L19.77 5.74L19.79 5.76L19.88 5.81L20.89 6.47L26.1 9.85L27.21 10.59L28.61 11.49L29.74 12.22L31.14 13.13L32.26 13.86L33.67 14.78L34.27 15.17L36.96 16.92L37.03 16.97L37.03 19.71L36.54 19.38L34.61 18.13Z" id="b3GKa9O8XN"></path><path d="M34.61 18.13L34.32 17.95L32.73 16.92L32.3 16.63L31.62 16.18L30.57 15.5L29.44 14.78L28.03 13.86L26.91 13.13L25.51 12.22L24.39 11.49L23 10.59L21.87 9.85L19.79 8.51L18.35 7.57L18.97 6.76L19.71 5.81L19.77 5.74L19.79 5.76L19.88 5.81L20.89 6.47L26.1 9.85L27.21 10.59L28.61 11.49L29.74 12.22L31.14 13.13L32.26 13.86L33.67 14.78L34.27 15.17L36.96 16.92L37.03 16.97L37.03 19.71L36.54 19.38L34.61 18.13Z" id="a7rzb4FKNC"></path><path d="M5.87 24.26C5.87 24.26 5.87 24.26 5.87 24.26C5.59 23.87 5.43 23.65 5.4 23.6C5.4 23.6 5.4 23.6 5.4 23.6C11.04 19.59 14.17 17.35 14.78 16.91C14.78 16.91 14.78 16.91 14.78 16.91C15.07 17.3 15.24 17.53 15.27 17.57C15.27 17.57 15.27 17.57 15.27 17.57C9.62 21.59 6.5 23.82 5.87 24.26Z" id="c9lL0WPmY"></path><path d="M5.87 24.26C5.87 24.26 5.87 24.26 5.87 24.26C5.59 23.87 5.43 23.65 5.4 23.6C5.4 23.6 5.4 23.6 5.4 23.6C11.04 19.59 14.17 17.35 14.78 16.91C14.78 16.91 14.78 16.91 14.78 16.91C15.07 17.3 15.24 17.53 15.27 17.57C15.27 17.57 15.27 17.57 15.27 17.57C9.62 21.59 6.5 23.82 5.87 24.26Z" id="arfoHxhLq"></path><path d="M5.87 24.26C5.87 24.26 5.87 24.26 5.87 24.26C5.59 23.87 5.43 23.65 5.4 23.6C5.4 23.6 5.4 23.6 5.4 23.6C11.04 19.59 14.17 17.35 14.78 16.91C14.78 16.91 14.78 16.91 14.78 16.91C15.07 17.3 15.24 17.53 15.27 17.57C15.27 17.57 15.27 17.57 15.27 17.57C9.62 21.59 6.5 23.82 5.87 24.26Z" id="c2rGLMy4WA"></path><path d="M5.87 24.26C5.87 24.26 5.87 24.26 5.87 24.26C5.59 23.87 5.43 23.65 5.4 23.6C5.4 23.6 5.4 23.6 5.4 23.6C11.04 19.59 14.17 17.35 14.78 16.91C14.78 16.91 14.78 16.91 14.78 16.91C15.07 17.3 15.24 17.53 15.27 17.57C15.27 17.57 15.27 17.57 15.27 17.57C9.62 21.59 6.5 23.82 5.87 24.26Z" id="a7SlO3eYx"></path><path d="M23.91 17.03C23.91 17.03 23.91 17.03 23.91 17.03C24.19 16.63 24.35 16.42 24.38 16.38C24.38 16.38 24.38 16.38 24.38 16.38C30.02 20.39 33.15 22.63 33.77 23.07C33.77 23.07 33.77 23.07 33.77 23.07C33.48 23.46 33.33 23.69 33.3 23.74C33.3 23.74 33.3 23.74 33.3 23.74C27.67 19.72 24.54 17.49 23.91 17.03Z" id="f2iyrZlkKR"></path><path d="M23.91 17.03C23.91 17.03 23.91 17.03 23.91 17.03C24.19 16.63 24.35 16.42 24.38 16.38C24.38 16.38 24.38 16.38 24.38 16.38C30.02 20.39 33.15 22.63 33.77 23.07C33.77 23.07 33.77 23.07 33.77 23.07C33.48 23.46 33.33 23.69 33.3 23.74C33.3 23.74 33.3 23.74 33.3 23.74C27.67 19.72 24.54 17.49 23.91 17.03Z" id="a1aGohVwk"></path><path d="M23.91 17.03C23.91 17.03 23.91 17.03 23.91 17.03C24.19 16.63 24.35 16.42 24.38 16.38C24.38 16.38 24.38 16.38 24.38 16.38C30.02 20.39 33.15 22.63 33.77 23.07C33.77 23.07 33.77 23.07 33.77 23.07C33.48 23.46 33.33 23.69 33.3 23.74C33.3 23.74 33.3 23.74 33.3 23.74C27.67 19.72 24.54 17.49 23.91 17.03Z" id="a2HYd5VJ8"></path><path d="M23.91 17.03C23.91 17.03 23.91 17.03 23.91 17.03C24.19 16.63 24.35 16.42 24.38 16.38C24.38 16.38 24.38 16.38 24.38 16.38C30.02 20.39 33.15 22.63 33.77 23.07C33.77 23.07 33.77 23.07 33.77 23.07C33.48 23.46 33.33 23.69 33.3 23.74C33.3 23.74 33.3 23.74 33.3 23.74C27.67 19.72 24.54 17.49 23.91 17.03Z" id="bNa8XBHnd"></path><path d="M19.82 7.11C20.49 7.11 21.03 6.58 21.03 5.91C21.03 5.24 20.49 4.69 19.82 4.69C19.15 4.69 18.61 5.24 18.61 5.91C18.61 6.58 19.15 7.11 19.82 7.11Z" id="b3seqGQqiU"></path><path d="M19.82 7.11C20.49 7.11 21.03 6.58 21.03 5.91C21.03 5.24 20.49 4.69 19.82 4.69C19.15 4.69 18.61 5.24 18.61 5.91C18.61 6.58 19.15 7.11 19.82 7.11Z" id="m61PApbVFR"></path><path d="M19.82 7.11C20.49 7.11 21.03 6.58 21.03 5.91C21.03 5.24 20.49 4.69 19.82 4.69C19.15 4.69 18.61 5.24 18.61 5.91C18.61 6.58 19.15 7.11 19.82 7.11Z" id="bYFyTkV2"></path><path d="M19.82 7.11C20.49 7.11 21.03 6.58 21.03 5.91C21.03 5.24 20.49 4.69 19.82 4.69C19.15 4.69 18.61 5.24 18.61 5.91C18.61 6.58 19.15 7.11 19.82 7.11Z" id="e4MARsOWpK"></path><path d="M254.08 3.72L251.15 8.3L248.28 8.3L251.21 3.72L254.08 3.72Z" id="a42axv942j"></path><path d="M254.08 3.72L251.15 8.3L248.28 8.3L251.21 3.72L254.08 3.72Z" id="aBVGaY4Ot"></path><path d="M254.08 3.72L251.15 8.3L248.28 8.3L251.21 3.72L254.08 3.72Z" id="b5T3vn8Hgx"></path><path d="M254.08 3.72L251.15 8.3L248.28 8.3L251.21 3.72L254.08 3.72Z" id="b2L7JztkNY"></path></defs><g><g><g><use xlink:href="#a1wwwD6R6a" opacity="1" fill="#a21c26" fill-opacity="1"></use><g><use xlink:href="#a1wwwD6R6a" opacity="1" fill-opacity="0" stroke="#000000" stroke-width="1" stroke-opacity="0"></use></g></g><g><use xlink:href="#a2MwU9VqKy" opacity="1" fill="#000000" fill-opacity="0"></use><g><use xlink:href="#a2MwU9VqKy" opacity="1" fill-opacity="0" stroke="#000000" stroke-width="1" stroke-opacity="0"></use></g></g><g><use xlink:href="#e8NUtTh3gI" opacity="1" fill="#000000" fill-opacity="0"></use><g><use xlink:href="#e8NUtTh3gI" opacity="1" fill-opacity="0" stroke="#000000" stroke-width="1" stroke-opacity="0"></use></g></g><g><use xlink:href="#c4fKpjy7AA" opacity="1" fill="#000000" fill-opacity="0"></use><g><use xlink:href="#c4fKpjy7AA" opacity="1" fill-opacity="0" stroke="#000000" stroke-width="1" stroke-opacity="0"></use></g></g><g><use xlink:href="#i105fEPmJ" opacity="1" fill="#ffffff" fill-opacity="1"></use><g><use xlink:href="#i105fEPmJ" opacity="1" fill-opacity="0" stroke="#000000" stroke-width="1" stroke-opacity="0"></use></g></g><g><use xlink:href="#a1nNHj5Ti2" opacity="1" fill="#ffffff" fill-opacity="1"></use><g><use xlink:href="#a1nNHj5Ti2" opacity="1" fill-opacity="0" stroke="#000000" stroke-width="1" stroke-opacity="0"></use></g></g><g><use xlink:href="#c3sjqbCodB" opacity="1" fill="#ffffff" fill-opacity="1"></use><g><use xlink:href="#c3sjqbCodB" opacity="1" fill-opacity="0" stroke="#000000" stroke-width="1" stroke-opacity="0"></use></g></g><g><use xlink:href="#eGto5wjH3" opacity="1" fill="#ffffff" fill-opacity="1"></use><g><use xlink:href="#eGto5wjH3" opacity="1" fill-opacity="0" stroke="#000000" stroke-width="1" stroke-opacity="0"></use></g></g><g><use xlink:href="#b2gZYwMm29" opacity="1" fill="#ffffff" fill-opacity="1"></use><g><use xlink:href="#b2gZYwMm29" opacity="1" fill-opacity="0" stroke="#000000" stroke-width="1" stroke-opacity="0"></use></g></g><g><use xlink:href="#dg05NcmMo" opacity="1" fill="#ffffff" fill-opacity="1"></use><g><use xlink:href="#dg05NcmMo" opacity="1" fill-opacity="0" stroke="#000000" stroke-width="1" stroke-opacity="0"></use></g></g><g><use xlink:href="#a205wdw0J3" opacity="1" fill="#ffffff" fill-opacity="1"></use><g><use xlink:href="#a205wdw0J3" opacity="1" fill-opacity="0" stroke="#000000" stroke-width="1" stroke-opacity="0"></use></g></g><g><use xlink:href="#a3bBYXStAt" opacity="1" fill="#ffffff" fill-opacity="1"></use><g><use xlink:href="#a3bBYXStAt" opacity="1" fill-opacity="0" stroke="#000000" stroke-width="1" stroke-opacity="0"></use></g></g><g><use xlink:href="#h3y6XWgwoa" opacity="1" fill="#ffffff" fill-opacity="1"></use><g><use xlink:href="#h3y6XWgwoa" opacity="1" fill-opacity="0" stroke="#000000" stroke-width="1" stroke-opacity="0"></use></g></g><g><use xlink:href="#atvC1RyNY" opacity="1" fill="#ffffff" fill-opacity="1"></use><g><use xlink:href="#atvC1RyNY" opacity="1" fill-opacity="0" stroke="#000000" stroke-width="1" stroke-opacity="0"></use></g></g><g><use xlink:href="#b32sx96kGY" opacity="1" fill="#ffffff" fill-opacity="1"></use><g><use xlink:href="#b32sx96kGY" opacity="1" fill-opacity="0" stroke="#000000" stroke-width="1" stroke-opacity="0"></use></g></g><g><use xlink:href="#cdxUcCS6X" opacity="1" fill="#ffffff" fill-opacity="1"></use><g><use xlink:href="#cdxUcCS6X" opacity="1" fill-opacity="0" stroke="#000000" stroke-width="1" stroke-opacity="0"></use></g></g><g><use xlink:href="#euyj6UVHO" opacity="1" fill="#ffffff" fill-opacity="1"></use><g><use xlink:href="#euyj6UVHO" opacity="1" fill-opacity="0" stroke="#000000" stroke-width="1" stroke-opacity="0"></use></g></g><g><use xlink:href="#b2oGGyqOnc" opacity="1" fill="#ffffff" fill-opacity="1"></use><g><use xlink:href="#b2oGGyqOnc" opacity="1" fill-opacity="0" stroke="#000000" stroke-width="1" stroke-opacity="0"></use></g></g><g><use xlink:href="#agTPMsCjc" opacity="1" fill="#ffffff" fill-opacity="1"></use><g><use xlink:href="#agTPMsCjc" opacity="1" fill-opacity="0" stroke="#000000" stroke-width="1" stroke-opacity="0"></use></g></g><g><use xlink:href="#a84AuhkBq" opacity="1" fill="#ffffff" fill-opacity="1"></use><g><use xlink:href="#a84AuhkBq" opacity="1" fill-opacity="0" stroke="#000000" stroke-width="1" stroke-opacity="0"></use></g></g><g><use xlink:href="#e1dLi6thQl" opacity="1" fill="#ffffff" fill-opacity="1"></use><g><use xlink:href="#e1dLi6thQl" opacity="1" fill-opacity="0" stroke="#000000" stroke-width="1" stroke-opacity="0"></use></g></g><g><use xlink:href="#a2hqL3uzUT" opacity="1" fill="#ffffff" fill-opacity="1"></use><g><use xlink:href="#a2hqL3uzUT" opacity="1" fill-opacity="0" stroke="#000000" stroke-width="1" stroke-opacity="0"></use></g></g><g><use xlink:href="#d1GHKfvs9I" opacity="1" fill="#ffffff" fill-opacity="1"></use><g><use xlink:href="#d1GHKfvs9I" opacity="1" fill-opacity="0" stroke="#000000" stroke-width="1" stroke-opacity="0"></use></g></g><g><use xlink:href="#bozhETyaw" opacity="1" fill="#ffffff" fill-opacity="1"></use><g><use xlink:href="#bozhETyaw" opacity="1" fill-opacity="0" stroke="#000000" stroke-width="1" stroke-opacity="0"></use></g></g><g><use xlink:href="#aTf4Z8Qx8" opacity="1" fill="#ffffff" fill-opacity="1"></use><g><use xlink:href="#aTf4Z8Qx8" opacity="1" fill-opacity="0" stroke="#000000" stroke-width="1" stroke-opacity="0"></use></g></g><g><use xlink:href="#b5yyBGySwI" opacity="1" fill="#ffffff" fill-opacity="1"></use><g><use xlink:href="#b5yyBGySwI" opacity="1" fill-opacity="0" stroke="#000000" stroke-width="1" stroke-opacity="0"></use></g></g><g><use xlink:href="#b2AJCniuBB" opacity="1" fill="#ffffff" fill-opacity="1"></use><g><use xlink:href="#b2AJCniuBB" opacity="1" fill-opacity="0" stroke="#000000" stroke-width="1" stroke-opacity="0"></use></g></g><g><use xlink:href="#f1cAaDHW0Y" opacity="1" fill="#ffffff" fill-opacity="1"></use><g><use xlink:href="#f1cAaDHW0Y" opacity="1" fill-opacity="0" stroke="#000000" stroke-width="1" stroke-opacity="0"></use></g></g><g><use xlink:href="#a2Fgi1OwbH" opacity="1" fill="#ffffff" fill-opacity="1"></use><g><use xlink:href="#a2Fgi1OwbH" opacity="1" fill-opacity="0" stroke="#000000" stroke-width="1" stroke-opacity="0"></use></g></g><g><use xlink:href="#aaJUvgUgP" opacity="1" fill="#ffffff" fill-opacity="1"></use><g><use xlink:href="#aaJUvgUgP" opacity="1" fill-opacity="0" stroke="#000000" stroke-width="1" stroke-opacity="0"></use></g></g><g><use xlink:href="#a1eZyrKzNM" opacity="1" fill="#ffffff" fill-opacity="1"></use><g><use xlink:href="#a1eZyrKzNM" opacity="1" fill-opacity="0" stroke="#000000" stroke-width="1" stroke-opacity="0"></use></g></g><g><use xlink:href="#aBR2OYrVs" opacity="1" fill="#ffffff" fill-opacity="1"></use><g><use xlink:href="#aBR2OYrVs" opacity="1" fill-opacity="0" stroke="#000000" stroke-width="1" stroke-opacity="0"></use></g></g><g><use xlink:href="#e2D8BianFw" opacity="1" fill="#ffffff" fill-opacity="1"></use><g><use xlink:href="#e2D8BianFw" opacity="1" fill-opacity="0" stroke="#000000" stroke-width="1" stroke-opacity="0"></use></g></g><g><use xlink:href="#e10KK48mup" opacity="1" fill="#ffffff" fill-opacity="1"></use><g><use xlink:href="#e10KK48mup" opacity="1" fill-opacity="0" stroke="#000000" stroke-width="1" stroke-opacity="0"></use></g></g><g><use xlink:href="#bqxsZgT8P" opacity="1" fill="#ffffff" fill-opacity="1"></use><g><use xlink:href="#bqxsZgT8P" opacity="1" fill-opacity="0" stroke="#000000" stroke-width="1" stroke-opacity="0"></use></g></g><g><use xlink:href="#g3JNtAr5Uy" opacity="1" fill="#ffffff" fill-opacity="1"></use><g><use xlink:href="#g3JNtAr5Uy" opacity="1" fill-opacity="0" stroke="#000000" stroke-width="1" stroke-opacity="0"></use></g></g><g><use xlink:href="#a22RUnoAbb" opacity="1" fill="#ffffff" fill-opacity="1"></use><g><use xlink:href="#a22RUnoAbb" opacity="1" fill-opacity="0" stroke="#000000" stroke-width="1" stroke-opacity="0"></use></g></g><g><use xlink:href="#amGzEbuBe" opacity="1" fill="#ffffff" fill-opacity="1"></use><g><use xlink:href="#amGzEbuBe" opacity="1" fill-opacity="0" stroke="#000000" stroke-width="1" stroke-opacity="0"></use></g></g><g><use xlink:href="#e26329Rn57" opacity="1" fill="#ffffff" fill-opacity="1"></use><g><use xlink:href="#e26329Rn57" opacity="1" fill-opacity="0" stroke="#000000" stroke-width="1" stroke-opacity="0"></use></g></g><g><use xlink:href="#d14TQvhtLY" opacity="1" fill="#ffffff" fill-opacity="1"></use><g><use xlink:href="#d14TQvhtLY" opacity="1" fill-opacity="0" stroke="#000000" stroke-width="1" stroke-opacity="0"></use></g></g><g><use xlink:href="#e19Z5PucJ9" opacity="1" fill="#ffffff" fill-opacity="1"></use><g><use xlink:href="#e19Z5PucJ9" opacity="1" fill-opacity="0" stroke="#000000" stroke-width="1" stroke-opacity="0"></use></g></g><g><use xlink:href="#dA206Geyp" opacity="1" fill="#ffffff" fill-opacity="1"></use><g><use xlink:href="#dA206Geyp" opacity="1" fill-opacity="0" stroke="#000000" stroke-width="1" stroke-opacity="0"></use></g></g><g><use xlink:href="#bWr9mPW3o" opacity="1" fill="#ffffff" fill-opacity="1"></use><g><use xlink:href="#bWr9mPW3o" opacity="1" fill-opacity="0" stroke="#000000" stroke-width="1" stroke-opacity="0"></use></g></g><g><use xlink:href="#a472mAGtcW" opacity="1" fill="#ffffff" fill-opacity="1"></use><g><use xlink:href="#a472mAGtcW" opacity="1" fill-opacity="0" stroke="#000000" stroke-width="1" stroke-opacity="0"></use></g></g><g><use xlink:href="#f9YiReYfx" opacity="1" fill="#ffffff" fill-opacity="1"></use><g><use xlink:href="#f9YiReYfx" opacity="1" fill-opacity="0" stroke="#000000" stroke-width="1" stroke-opacity="0"></use></g></g><g><use xlink:href="#a1flQn0tgF" opacity="1" fill="#ffffff" fill-opacity="1"></use><g><use xlink:href="#a1flQn0tgF" opacity="1" fill-opacity="0" stroke="#000000" stroke-width="1" stroke-opacity="0"></use></g></g><g><use xlink:href="#e1a1sYmJ60" opacity="1" fill="#ffffff" fill-opacity="1"></use><g><use xlink:href="#e1a1sYmJ60" opacity="1" fill-opacity="0" stroke="#000000" stroke-width="1" stroke-opacity="0"></use></g></g><g><use xlink:href="#aVwPO6ogO" opacity="1" fill="#ffffff" fill-opacity="1"></use><g><use xlink:href="#aVwPO6ogO" opacity="1" fill-opacity="0" stroke="#000000" stroke-width="1" stroke-opacity="0"></use></g></g><g><use xlink:href="#a6rGZonnA" opacity="1" fill="#ffffff" fill-opacity="1"></use><g><use xlink:href="#a6rGZonnA" opacity="1" fill-opacity="0" stroke="#000000" stroke-width="1" stroke-opacity="0"></use></g></g><g><use xlink:href="#ibjuzyk" opacity="1" fill="#000000" fill-opacity="0"></use><g><use xlink:href="#ibjuzyk" opacity="1" fill-opacity="0" stroke="#000000" stroke-width="1" stroke-opacity="0"></use></g></g><g><use xlink:href="#eMuRN4Kio" opacity="1" fill="#000000" fill-opacity="0"></use><g><use xlink:href="#eMuRN4Kio" opacity="1" fill-opacity="0" stroke="#000000" stroke-width="1" stroke-opacity="0"></use></g></g><g><use xlink:href="#b7D1eCjuM" opacity="1" fill="#000000" fill-opacity="0"></use><g><use xlink:href="#b7D1eCjuM" opacity="1" fill-opacity="0" stroke="#000000" stroke-width="1" stroke-opacity="0"></use></g></g><g><use xlink:href="#ab8bQOkZk" opacity="1" fill="#ffffff" fill-opacity="1"></use><g><use xlink:href="#ab8bQOkZk" opacity="1" fill-opacity="0" stroke="#000000" stroke-width="1" stroke-opacity="0"></use></g></g><g><use xlink:href="#blq0brmo6" opacity="1" fill="#000000" fill-opacity="0"></use><g><use xlink:href="#blq0brmo6" opacity="1" fill-opacity="0" stroke="#000000" stroke-width="1" stroke-opacity="0"></use></g></g><g><use xlink:href="#g47n66LQUQ" opacity="1" fill="#000000" fill-opacity="0"></use><g><use xlink:href="#g47n66LQUQ" opacity="1" fill-opacity="0" stroke="#000000" stroke-width="1" stroke-opacity="0"></use></g></g><g><use xlink:href="#b4BIy90P3" opacity="1" fill="#000000" fill-opacity="0"></use><g><use xlink:href="#b4BIy90P3" opacity="1" fill-opacity="0" stroke="#000000" stroke-width="1" stroke-opacity="0"></use></g></g><g><use xlink:href="#a2uXljBhS5" opacity="1" fill="#ffffff" fill-opacity="1"></use><g><use xlink:href="#a2uXljBhS5" opacity="1" fill-opacity="0" stroke="#000000" stroke-width="1" stroke-opacity="0"></use></g></g><g><use xlink:href="#a3LyReB7Jz" opacity="1" fill="#000000" fill-opacity="0"></use><g><use xlink:href="#a3LyReB7Jz" opacity="1" fill-opacity="0" stroke="#000000" stroke-width="1" stroke-opacity="0"></use></g></g><g><use xlink:href="#b38pPo0pp" opacity="1" fill="#000000" fill-opacity="0"></use><g><use xlink:href="#b38pPo0pp" opacity="1" fill-opacity="0" stroke="#000000" stroke-width="1" stroke-opacity="0"></use></g></g><g><use xlink:href="#g79eeDoDBq" opacity="1" fill="#000000" fill-opacity="0"></use><g><use xlink:href="#g79eeDoDBq" opacity="1" fill-opacity="0" stroke="#000000" stroke-width="1" stroke-opacity="0"></use></g></g><g><use xlink:href="#a5Tk6KRqm" opacity="1" fill="#ffffff" fill-opacity="1"></use><g><use xlink:href="#a5Tk6KRqm" opacity="1" fill-opacity="0" stroke="#000000" stroke-width="1" stroke-opacity="0"></use></g></g><g><use xlink:href="#jUjcyuKI6" opacity="1" fill="#000000" fill-opacity="0"></use><g><use xlink:href="#jUjcyuKI6" opacity="1" fill-opacity="0" stroke="#000000" stroke-width="1" stroke-opacity="0"></use></g></g><g><use xlink:href="#gKTOyyf2W" opacity="1" fill="#000000" fill-opacity="0"></use><g><use xlink:href="#gKTOyyf2W" opacity="1" fill-opacity="0" stroke="#000000" stroke-width="1" stroke-opacity="0"></use></g></g><g><use xlink:href="#a68Yr6JnL" opacity="1" fill="#000000" fill-opacity="0"></use><g><use xlink:href="#a68Yr6JnL" opacity="1" fill-opacity="0" stroke="#000000" stroke-width="1" stroke-opacity="0"></use></g></g><g><use xlink:href="#a5wheHbvo" opacity="1" fill="#ffffff" fill-opacity="1"></use><g><use xlink:href="#a5wheHbvo" opacity="1" fill-opacity="0" stroke="#000000" stroke-width="1" stroke-opacity="0"></use></g></g><g><use xlink:href="#a4UQ7tl5Vz" opacity="1" fill="#000000" fill-opacity="0"></use><g><use xlink:href="#a4UQ7tl5Vz" opacity="1" fill-opacity="0" stroke="#000000" stroke-width="1" stroke-opacity="0"></use></g></g><g><use xlink:href="#l15Qr8iSfV" opacity="1" fill="#000000" fill-opacity="0"></use><g><use xlink:href="#l15Qr8iSfV" opacity="1" fill-opacity="0" stroke="#000000" stroke-width="1" stroke-opacity="0"></use></g></g><g><use xlink:href="#i2yTBu54yy" opacity="1" fill="#000000" fill-opacity="0"></use><g><use xlink:href="#i2yTBu54yy" opacity="1" fill-opacity="0" stroke="#000000" stroke-width="1" stroke-opacity="0"></use></g></g><g><use xlink:href="#fZ7iP7dYk" opacity="1" fill="#ffffff" fill-opacity="1"></use><g><use xlink:href="#fZ7iP7dYk" opacity="1" fill-opacity="0" stroke="#000000" stroke-width="1" stroke-opacity="0"></use></g></g><g><use xlink:href="#a8uLDb01K" opacity="1" fill="#000000" fill-opacity="0"></use><g><use xlink:href="#a8uLDb01K" opacity="1" fill-opacity="0" stroke="#000000" stroke-width="1" stroke-opacity="0"></use></g></g><g><use xlink:href="#b18kq7Vjw" opacity="1" fill="#000000" fill-opacity="0"></use><g><use xlink:href="#b18kq7Vjw" opacity="1" fill-opacity="0" stroke="#000000" stroke-width="1" stroke-opacity="0"></use></g></g><g><use xlink:href="#bdo0NAHw8" opacity="1" fill="#000000" fill-opacity="0"></use><g><use xlink:href="#bdo0NAHw8" opacity="1" fill-opacity="0" stroke="#000000" stroke-width="1" stroke-opacity="0"></use></g></g><g><use xlink:href="#b2iT4qqGxQ" opacity="1" fill="#ffffff" fill-opacity="1"></use><g><use xlink:href="#b2iT4qqGxQ" opacity="1" fill-opacity="0" stroke="#000000" stroke-width="1" stroke-opacity="0"></use></g></g><g><use xlink:href="#d1oaIcznQg" opacity="1" fill="#000000" fill-opacity="0"></use><g><use xlink:href="#d1oaIcznQg" opacity="1" fill-opacity="0" stroke="#000000" stroke-width="1" stroke-opacity="0"></use></g></g><g><use xlink:href="#gHPsHEGsO" opacity="1" fill="#000000" fill-opacity="0"></use><g><use xlink:href="#gHPsHEGsO" opacity="1" fill-opacity="0" stroke="#000000" stroke-width="1" stroke-opacity="0"></use></g></g><g><use xlink:href="#a3hTTPDU" opacity="1" fill="#000000" fill-opacity="0"></use><g><use xlink:href="#a3hTTPDU" opacity="1" fill-opacity="0" stroke="#000000" stroke-width="1" stroke-opacity="0"></use></g></g><g><use xlink:href="#c1EyCQjUGn" opacity="1" fill="#ffffff" fill-opacity="1"></use><g><use xlink:href="#c1EyCQjUGn" opacity="1" fill-opacity="0" stroke="#000000" stroke-width="1" stroke-opacity="0"></use></g></g><g><use xlink:href="#c1oDfqJNKB" opacity="1" fill="#000000" fill-opacity="0"></use><g><use xlink:href="#c1oDfqJNKB" opacity="1" fill-opacity="0" stroke="#000000" stroke-width="1" stroke-opacity="0"></use></g></g><g><use xlink:href="#li0OVfChq" opacity="1" fill="#000000" fill-opacity="0"></use><g><use xlink:href="#li0OVfChq" opacity="1" fill-opacity="0" stroke="#000000" stroke-width="1" stroke-opacity="0"></use></g></g><g><use xlink:href="#i1pDNoc0cQ" opacity="1" fill="#000000" fill-opacity="0"></use><g><use xlink:href="#i1pDNoc0cQ" opacity="1" fill-opacity="0" stroke="#000000" stroke-width="1" stroke-opacity="0"></use></g></g><g><use xlink:href="#d2CtIWd1D6" opacity="1" fill="#ffffff" fill-opacity="1"></use><g><use xlink:href="#d2CtIWd1D6" opacity="1" fill-opacity="0" stroke="#000000" stroke-width="1" stroke-opacity="0"></use></g></g><g><use xlink:href="#h3N3eiuu64" opacity="1" fill="#000000" fill-opacity="0"></use><g><use xlink:href="#h3N3eiuu64" opacity="1" fill-opacity="0" stroke="#000000" stroke-width="1" stroke-opacity="0"></use></g></g><g><use xlink:href="#b3GKa9O8XN" opacity="1" fill="#000000" fill-opacity="0"></use><g><use xlink:href="#b3GKa9O8XN" opacity="1" fill-opacity="0" stroke="#000000" stroke-width="1" stroke-opacity="0"></use></g></g><g><use xlink:href="#a7rzb4FKNC" opacity="1" fill="#000000" fill-opacity="0"></use><g><use xlink:href="#a7rzb4FKNC" opacity="1" fill-opacity="0" stroke="#000000" stroke-width="1" stroke-opacity="0"></use></g></g><g><use xlink:href="#c9lL0WPmY" opacity="1" fill="#ffffff" fill-opacity="1"></use><g><use xlink:href="#c9lL0WPmY" opacity="1" fill-opacity="0" stroke="#000000" stroke-width="1" stroke-opacity="0"></use></g></g><g><use xlink:href="#arfoHxhLq" opacity="1" fill="#000000" fill-opacity="0"></use><g><use xlink:href="#arfoHxhLq" opacity="1" fill-opacity="0" stroke="#000000" stroke-width="1" stroke-opacity="0"></use></g></g><g><use xlink:href="#c2rGLMy4WA" opacity="1" fill="#000000" fill-opacity="0"></use><g><use xlink:href="#c2rGLMy4WA" opacity="1" fill-opacity="0" stroke="#000000" stroke-width="1" stroke-opacity="0"></use></g></g><g><use xlink:href="#a7SlO3eYx" opacity="1" fill="#000000" fill-opacity="0"></use><g><use xlink:href="#a7SlO3eYx" opacity="1" fill-opacity="0" stroke="#000000" stroke-width="1" stroke-opacity="0"></use></g></g><g><use xlink:href="#f2iyrZlkKR" opacity="1" fill="#ffffff" fill-opacity="1"></use><g><use xlink:href="#f2iyrZlkKR" opacity="1" fill-opacity="0" stroke="#000000" stroke-width="1" stroke-opacity="0"></use></g></g><g><use xlink:href="#a1aGohVwk" opacity="1" fill="#000000" fill-opacity="0"></use><g><use xlink:href="#a1aGohVwk" opacity="1" fill-opacity="0" stroke="#000000" stroke-width="1" stroke-opacity="0"></use></g></g><g><use xlink:href="#a2HYd5VJ8" opacity="1" fill="#000000" fill-opacity="0"></use><g><use xlink:href="#a2HYd5VJ8" opacity="1" fill-opacity="0" stroke="#000000" stroke-width="1" stroke-opacity="0"></use></g></g><g><use xlink:href="#bNa8XBHnd" opacity="1" fill="#000000" fill-opacity="0"></use><g><use xlink:href="#bNa8XBHnd" opacity="1" fill-opacity="0" stroke="#000000" stroke-width="1" stroke-opacity="0"></use></g></g><g><use xlink:href="#b3seqGQqiU" opacity="1" fill="#ffffff" fill-opacity="1"></use><g><use xlink:href="#b3seqGQqiU" opacity="1" fill-opacity="0" stroke="#000000" stroke-width="1" stroke-opacity="0"></use></g></g><g><use xlink:href="#m61PApbVFR" opacity="1" fill="#000000" fill-opacity="0"></use><g><use xlink:href="#m61PApbVFR" opacity="1" fill-opacity="0" stroke="#000000" stroke-width="1" stroke-opacity="0"></use></g></g><g><use xlink:href="#bYFyTkV2" opacity="1" fill="#000000" fill-opacity="0"></use><g><use xlink:href="#bYFyTkV2" opacity="1" fill-opacity="0" stroke="#000000" stroke-width="1" stroke-opacity="0"></use></g></g><g><use xlink:href="#e4MARsOWpK" opacity="1" fill="#000000" fill-opacity="0"></use><g><use xlink:href="#e4MARsOWpK" opacity="1" fill-opacity="0" stroke="#000000" stroke-width="1" stroke-opacity="0"></use></g></g><g><use xlink:href="#a42axv942j" opacity="1" fill="#ffffff" fill-opacity="1"></use><g><use xlink:href="#a42axv942j" opacity="1" fill-opacity="0" stroke="#000000" stroke-width="1" stroke-opacity="0"></use></g></g><g><use xlink:href="#aBVGaY4Ot" opacity="1" fill="#ffffff" fill-opacity="1"></use><g><use xlink:href="#aBVGaY4Ot" opacity="1" fill-opacity="0" stroke="#000000" stroke-width="1" stroke-opacity="0"></use></g></g><g><use xlink:href="#b5T3vn8Hgx" opacity="1" fill="#ffffff" fill-opacity="1"></use><g><use xlink:href="#b5T3vn8Hgx" opacity="1" fill-opacity="0" stroke="#000000" stroke-width="1" stroke-opacity="0"></use></g></g><g><use xlink:href="#b2L7JztkNY" opacity="1" fill="#ffffff" fill-opacity="1"></use><g><use xlink:href="#b2L7JztkNY" opacity="1" fill-opacity="0" stroke="#000000" stroke-width="1" stroke-opacity="0"></use></g></g></g></g></svg>