<?xml version="1.0" encoding="utf-8"?>
<!-- Generator: Adobe Illustrator 23.0.5, SVG Export Plug-In . SVG Version: 6.00 Build 0)  -->
<svg version="1.1" id="Warstwa_1" xmlns="http://www.w3.org/2000/svg" xmlns:xlink="http://www.w3.org/1999/xlink" x="0px" y="0px"
	 viewBox="0 0 595.28 841.89" style="enable-background:new 0 0 595.28 841.89;" xml:space="preserve">
<style type="text/css">
	.st0{fill:#A21C26;}
	.st1{fill:#FFFFFF;}
</style>
<rect x="86.86" y="365.53" class="st0" width="52.27" height="52.27"/>
<g>
	<path d="M171.37,399.9h-9.15l-1.43,4.19h-7.63l10.15-25.83h6.96l10.37,25.83h-7.84L171.37,399.9z M166.78,386.33l-2.83,8h5.69
		L166.78,386.33z"/>
	<path d="M199.52,397.58v6.52h-16.4v-25.83h7.21v19.31H199.52z"/>
	<path d="M218.87,384.68h-7.02v19.42h-7.15v-19.42h-7.02v-6.41h21.18V384.68z"/>
	<path d="M235.13,399.9h-9.15l-1.43,4.19h-7.63l10.15-25.83h6.96l10.37,25.83h-7.84L235.13,399.9z M230.54,386.33l-2.83,8h5.69
		L230.54,386.33z"/>
	<path d="M269.92,378.27v25.83h-5.88l-10.26-14.02v14.02h-6.9v-25.83h6.23l9.92,13.55v-13.55H269.92z"/>
	<path d="M288.94,394v10.1h-7.25v-10.12l-8.96-15.71h7.89l4.72,9.33l4.72-9.33h7.89L288.94,394z"/>
	<path d="M322.81,404.1l-7.41-11.41v11.41h-7.12v-25.83h7.12v10.89l6.83-10.89h8.25l-8.27,12.51l9.04,13.32H322.81z"/>
	<path d="M348.97,399.9h-9.15l-1.43,4.19h-7.63l10.15-25.83h6.96l10.37,25.83h-7.84L348.97,399.9z M344.38,386.33l-2.83,8h5.68
		L344.38,386.33z"/>
	<path d="M370.42,396.2h-2.58v7.9h-7.12v-25.83h11.19c5.57,0,9.6,3.74,9.6,9.14c0,3.17-1.55,5.77-4.1,7.29l5.13,9.39h-7.94
		L370.42,396.2z M367.84,390.2h3.25c1.99,0,3.13-1.2,3.13-2.81s-1.14-2.8-3.13-2.8h-3.25V390.2z"/>
	<path d="M398.32,404.75c-8.3,0-14.23-5.67-14.23-13.57s5.92-13.57,14.23-13.57c8.28,0,14.18,5.65,14.18,13.57
		C412.51,399.1,406.6,404.75,398.32,404.75L398.32,404.75z M405.1,391.19c0-4.04-2.84-6.95-6.78-6.95c-3.93,0-6.82,2.92-6.82,6.95
		s2.89,6.95,6.82,6.95C402.25,398.13,405.1,395.23,405.1,391.19z"/>
	<path d="M439.19,378.27v25.83h-5.88l-10.26-14.02v14.02h-6.9v-25.83h6.23l9.92,13.55v-13.55H439.19z"/>
</g>
<polygon class="st1" points="134.07,386.72 134.07,389.79 94.06,389.79 94.06,386.64 133.95,386.64 "/>
<polygon class="st1" points="133.6,385.25 133.6,385.7 93.6,385.7 93.6,385.54 94.89,384.71 132.78,384.71 "/>
<polygon class="st1" points="130.86,383.46 96.81,383.46 98.34,382.47 129.33,382.47 "/>
<polygon class="st1" points="127.41,381.22 100.25,381.22 101.78,380.23 125.88,380.23 "/>
<polygon class="st1" points="123.97,378.99 103.69,378.99 105.23,377.99 122.44,377.99 "/>
<rect x="94.06" y="386.64" class="st1" width="3.15" height="27.01"/>
<polygon class="st1" points="134.07,386.72 134.07,413.65 130.91,413.65 130.91,386.64 133.95,386.64 "/>
<polygon class="st1" points="115.81,374.86 113.83,376.15 111,377.99 109.46,378.99 107.55,380.23 106.02,381.22 104.1,382.47 
	102.58,383.46 100.65,384.71 99.13,385.7 97.69,386.64 97.22,386.94 96.15,387.64 94.06,388.99 93.98,389.05 90.95,391.01 
	90.28,391.45 90.28,387.7 90.38,387.64 93.6,385.54 94.89,384.71 96.81,383.46 98.34,382.47 100.25,381.22 101.78,380.23 
	103.69,378.99 105.23,377.99 112.4,373.33 113.72,372.47 113.83,372.4 113.87,372.38 113.94,372.47 114.99,373.8 "/>
<polygon class="st1" points="137.39,387.7 137.39,391.45 136.71,391.01 134.07,389.3 133.68,389.05 131.51,387.64 130.91,387.25 
	129.98,386.64 128.54,385.7 127.01,384.71 125.09,383.46 123.56,382.47 121.64,381.22 120.11,380.23 118.2,378.99 116.67,377.99 
	113.83,376.15 111.85,374.86 112.71,373.77 113.72,372.47 113.8,372.38 113.83,372.4 113.94,372.47 115.32,373.37 122.44,377.99 
	123.97,378.99 125.88,380.23 127.41,381.22 129.33,382.47 130.86,383.46 132.78,384.71 133.6,385.25 137.28,387.64 "/>
<rect x="100.34" y="384.76" transform="matrix(0.5806 0.8142 -0.8142 0.5806 362.0107 82.5355)" class="st1" width="1.11" height="15.75"/>
<rect x="125.63" y="384.07" transform="matrix(-0.5806 0.8142 -0.8142 -0.5806 518.573 516.7441)" class="st1" width="1.11" height="15.75"/>
<circle class="st1" cx="113.87" cy="372.6" r="1.65"/>
<polygon points="429.83,375.87 425.92,375.87 429.92,369.61 433.83,369.61 "/>
</svg>
