<svg width="27" height="27" viewBox="0 0 27 27" fill="none" xmlns="http://www.w3.org/2000/svg">
    <path d="M13.4994 0C6.04457 0 0 6.04457 0 13.4994C0 20.9543 6.04457 27 13.4994 27C20.9543 27 27 20.9543 27 13.4994C27 6.04457 20.9543 0 13.4994 0ZM16.3097 20.9223C15.6149 21.1966 15.0617 21.4046 14.6469 21.5486C14.2331 21.6926 13.752 21.7646 13.2046 21.7646C12.3634 21.7646 11.7086 21.5589 11.2423 21.1486C10.776 20.7383 10.544 20.2183 10.544 19.5863C10.544 19.3406 10.5611 19.0891 10.5954 18.8331C10.6309 18.5771 10.6869 18.2891 10.7634 17.9657L11.6331 14.8937C11.7097 14.5989 11.776 14.3189 11.8286 14.0583C11.8811 13.7954 11.9063 13.5543 11.9063 13.3349C11.9063 12.944 11.8251 12.6697 11.664 12.5154C11.5006 12.3611 11.1931 12.2857 10.7349 12.2857C10.5109 12.2857 10.28 12.3189 10.0434 12.3886C9.80914 12.4606 9.60571 12.5257 9.43886 12.5897L9.66857 11.6434C10.2377 11.4114 10.7829 11.2126 11.3029 11.048C11.8229 10.8811 12.3143 10.7989 12.7771 10.7989C13.6126 10.7989 14.2571 11.0023 14.7109 11.4046C15.1623 11.808 15.3897 12.3326 15.3897 12.9771C15.3897 13.1109 15.3737 13.3463 15.3429 13.6823C15.312 14.0194 15.2537 14.3269 15.1691 14.6091L14.304 17.672C14.2331 17.9177 14.1703 18.1989 14.1131 18.5131C14.0571 18.8274 14.0297 19.0674 14.0297 19.2286C14.0297 19.6354 14.12 19.9131 14.3029 20.0606C14.4834 20.208 14.8 20.2823 15.248 20.2823C15.4594 20.2823 15.696 20.2446 15.9634 20.1714C16.2286 20.0983 16.4206 20.0331 16.5417 19.9771L16.3097 20.9223ZM16.1566 8.49029C15.7531 8.86514 15.2674 9.05257 14.6994 9.05257C14.1326 9.05257 13.6434 8.86514 13.2366 8.49029C12.832 8.11543 12.6274 7.65943 12.6274 7.12686C12.6274 6.59543 12.8331 6.13829 13.2366 5.76C13.6434 5.38057 14.1326 5.192 14.6994 5.192C15.2674 5.192 15.7543 5.38057 16.1566 5.76C16.56 6.13829 16.7623 6.59543 16.7623 7.12686C16.7623 7.66057 16.56 8.11543 16.1566 8.49029Z" fill="#7B7B7B"/>
</svg>
