<svg width="27" height="27" viewBox="0 0 27 27" fill="none" xmlns="http://www.w3.org/2000/svg">
    <path d="M15.3417 25.274C15.2716 23.5701 14.8832 21.8945 14.1965 20.3335L12.619 21.0334C13.208 22.374 13.5458 23.8114 13.6157 25.274H2.72667L5.90933 14.6646C7.36404 15.2229 8.69794 16.0555 9.83847 17.1172L11.0216 15.8598C9.68518 14.6162 8.11656 13.6484 6.40554 13.012L10.1604 0.498801L8.5069 0L0.406982 27H26.5932V25.274H15.3417Z" fill="#7B7B7B"/>
    <path d="M19.258 20.0961C20.9261 20.0961 22.2784 18.7439 22.2784 17.0757C22.2784 15.4076 20.9261 14.0553 19.258 14.0553C17.5898 14.0553 16.2375 15.4076 16.2375 17.0757C16.2375 18.7439 17.5898 20.0961 19.258 20.0961ZM19.258 15.7813C19.9729 15.7813 20.5524 16.3608 20.5524 17.0757C20.5524 17.7906 19.9729 18.3702 19.258 18.3702C18.543 18.3702 17.9635 17.7906 17.9635 17.0757C17.9635 16.3608 18.543 15.7813 19.258 15.7813Z" fill="#7B7B7B"/>
    <path d="M11.869 19.6086L13.3404 18.7051C13.0185 18.1824 12.6628 17.6814 12.2755 17.2052L10.937 18.2943C11.2762 18.7114 11.5875 19.1505 11.869 19.6086Z" fill="#7B7B7B"/>
</svg>
