<svg width="27" height="27" viewBox="0 0 27 27" fill="none" xmlns="http://www.w3.org/2000/svg">
    <path d="M13.5 0C6.04498 0 0 6.04498 0 13.5C0 20.955 6.04498 27 13.5 27C14.745 27 15.75 25.995 15.75 24.75C15.75 24.165 15.5325 23.64 15.165 23.2425C14.8125 22.845 14.6025 22.3275 14.6025 21.75C14.6025 20.505 15.6075 19.5 16.8525 19.5H19.5C23.64 19.5 27 16.14 27 12C27 5.36998 20.955 0 13.5 0ZM5.25002 13.5C4.005 13.5 3.00002 12.495 3.00002 11.25C3.00002 10.005 4.005 9 5.25002 9C6.49505 9 7.50002 10.005 7.50002 11.25C7.50002 12.495 6.49498 13.5 5.25002 13.5ZM9.75002 7.50002C8.505 7.50002 7.50002 6.49505 7.50002 5.25002C7.50002 4.005 8.505 3.00002 9.75002 3.00002C10.995 3.00002 12 4.005 12 5.25002C12 6.49505 10.995 7.50002 9.75002 7.50002ZM17.25 7.50002C16.005 7.50002 15 6.49505 15 5.25002C15 4.005 16.005 3.00002 17.25 3.00002C18.495 3.00002 19.5 4.005 19.5 5.25002C19.5 6.49505 18.495 7.50002 17.25 7.50002ZM21.75 13.5C20.505 13.5 19.5 12.495 19.5 11.25C19.5 10.005 20.505 9 21.75 9C22.995 9 24 10.005 24 11.25C24 12.495 22.995 13.5 21.75 13.5Z" fill="#7B7B7B"/>
</svg>
