<svg width="44" height="43" viewBox="0 0 44 43" fill="none" xmlns="http://www.w3.org/2000/svg">
<path d="M22.5942 15.2451H6.29275C5.94105 15.2451 5.65601 15.5269 5.65601 15.8745C5.65601 16.2221 5.94105 16.5038 6.29275 16.5038H22.5943C22.946 16.5038 23.2311 16.222 23.2311 15.8745C23.2311 15.5269 22.946 15.2451 22.5942 15.2451Z" fill="white"/>
<path d="M22.5942 19.6699H6.29275C5.94105 19.6699 5.65601 19.952 5.65601 20.2998C5.65601 20.6476 5.94105 20.9296 6.29275 20.9296H22.5943C22.946 20.9296 23.2311 20.6476 23.2311 20.2998C23.2311 19.952 22.946 19.6699 22.5942 19.6699Z" fill="white"/>
<path d="M22.5942 24.0952H6.29275C5.94105 24.0952 5.65601 24.3774 5.65601 24.7253C5.65601 25.0733 5.94105 25.3554 6.29275 25.3554H22.5943C22.946 25.3554 23.2311 25.0733 23.2311 24.7253C23.2311 24.3774 22.946 24.0952 22.5942 24.0952Z" fill="white"/>
<path d="M23.2311 29.1501C23.2311 28.8024 22.946 28.5205 22.5943 28.5205H6.29275C5.94105 28.5205 5.65601 28.8024 5.65601 29.1501C5.65601 29.4978 5.94105 29.7797 6.29275 29.7797H22.5943C22.946 29.7797 23.2311 29.4979 23.2311 29.1501Z" fill="white"/>
<path d="M6.29275 35.0071C5.94105 35.0071 5.65601 35.289 5.65601 35.6367C5.65601 35.9843 5.94105 36.2663 6.29275 36.2663H14.4644C14.8161 36.2663 15.1011 35.9843 15.1011 35.6367C15.1011 35.289 14.8161 35.0071 14.4644 35.0071H6.29275Z" fill="white"/>
<path d="M29.9323 7.79851V5.75534C29.9323 4.977 29.292 4.34375 28.5048 4.34375H15.4314C14.6443 4.34375 14.004 4.977 14.004 5.75534V7.79851C14.004 8.57685 14.6443 9.21002 15.4314 9.21002H16.5354C16.8871 9.21002 17.1721 8.92807 17.1721 8.58038C17.1721 8.2326 16.8871 7.95074 16.5354 7.95074H15.4314C15.3466 7.95074 15.2775 7.88247 15.2775 7.7986V5.75534C15.2775 5.67146 15.3466 5.60312 15.4314 5.60312H28.5048C28.5897 5.60312 28.6588 5.67138 28.6588 5.75534V7.79851C28.6588 7.88239 28.5897 7.95065 28.5048 7.95065H19.5124C19.1607 7.95065 18.8756 8.2326 18.8756 8.5803C18.8756 8.92807 19.1607 9.20994 19.5124 9.20994H28.5049C29.292 9.21011 29.9323 8.57685 29.9323 7.79851Z" fill="white"/>
<path d="M34.6936 38.4057C34.3419 38.4057 34.0568 38.6877 34.0568 39.0355V39.8837C34.0568 40.9074 33.2148 41.7403 32.1796 41.7403H4.0095C2.97452 41.7403 2.13238 40.9074 2.13238 39.8837V9.61016C2.13238 9.47386 2.14851 9.34015 2.17729 9.21006H7.97525C9.18573 9.21006 10.1705 8.23601 10.1705 7.03873V1.30411C10.3021 1.27564 10.4371 1.25968 10.575 1.25968H32.1795C33.2146 1.25968 34.0567 2.09255 34.0567 3.11632V11.5015C34.0567 11.8494 34.3418 12.1313 34.6935 12.1313C35.0452 12.1313 35.3302 11.8493 35.3302 11.5015V3.11624C35.3303 1.398 33.9169 0 32.1796 0H10.575C9.73349 0 8.94221 0.32418 8.34716 0.912742L1.78161 7.40667C1.18656 7.99523 0.858887 8.7778 0.858887 9.61025V39.8838C0.858887 41.6021 2.27222 43 4.0095 43H32.1796C33.9169 43 35.3303 41.602 35.3303 39.8838V39.0356C35.3303 38.6877 35.0453 38.4057 34.6936 38.4057ZM8.89704 2.15034V7.03873C8.89704 7.54146 8.48352 7.95046 7.97525 7.95046H3.03294L8.89704 2.15034Z" fill="white"/>
<path d="M43.4152 22.5092C43.8621 21.8603 43.9778 21.0598 43.7325 20.313C43.4872 19.5662 42.9179 18.9859 42.1706 18.7208C41.6749 18.5449 41.3442 18.0948 41.3284 17.5741C41.3044 16.7892 40.9222 16.0743 40.2799 15.6127C39.6377 15.1512 38.832 15.0128 38.0702 15.2326C37.5643 15.3786 37.0296 15.2066 36.7073 14.7946C36.2215 14.1736 35.4876 13.8174 34.6937 13.8174C33.8998 13.8174 33.1658 14.1736 32.6799 14.7946C32.3576 15.2067 31.8226 15.3784 31.3171 15.2326C30.5552 15.0126 29.7497 15.1512 29.1073 15.6127C28.465 16.0743 28.083 16.7891 28.0589 17.574C28.043 18.0947 27.7124 18.5448 27.2166 18.7207C26.4694 18.9858 25.9001 19.5662 25.6548 20.3129C25.4095 21.0597 25.5252 21.8603 25.9722 22.5092C26.2687 22.9397 26.2687 23.4961 25.9722 23.9266C25.5252 24.5755 25.4095 25.376 25.6548 26.1228C25.9001 26.8696 26.4694 27.45 27.2166 27.7151C27.7124 27.891 28.0431 28.3411 28.0589 28.8618C28.0811 29.5838 28.4155 30.2621 28.9768 30.7228C29.3471 31.0268 29.7919 31.2171 30.2575 31.2806V37.015C30.2575 37.4989 30.5229 37.9461 30.9499 38.182C31.3764 38.4177 31.9007 38.4072 32.3175 38.1534L34.653 36.7313C34.691 36.708 34.7137 36.7185 34.7347 36.7313L37.07 38.1534C37.4866 38.407 38.0108 38.4179 38.4377 38.1819C38.8648 37.9459 39.1301 37.4987 39.1301 37.0149V31.2805C39.5955 31.217 40.0403 31.0267 40.4106 30.7228C40.972 30.2621 41.3065 29.5839 41.3287 28.8618C41.3445 28.341 41.6752 27.8909 42.1709 27.715C42.9182 27.45 43.4875 26.8695 43.7327 26.1227C43.978 25.3759 43.8624 24.5755 43.4154 23.9265C43.1186 23.4962 43.1186 22.9398 43.4152 22.5092V22.5092ZM37.7375 37.0807L35.4021 35.6586C34.9679 35.3943 34.4197 35.3939 33.9852 35.6586L31.6498 37.0806C31.5966 37.1126 31.531 37.0757 31.531 37.0149V31.161C31.9688 31.1109 32.4029 31.2871 32.6799 31.6413C33.1659 32.2623 33.8998 32.6184 34.6938 32.6184C35.4876 32.6184 36.2215 32.2623 36.7073 31.6413C36.9845 31.287 37.4186 31.1109 37.8563 31.161V37.0149C37.8563 37.0762 37.7898 37.1127 37.7375 37.0807V37.0807ZM42.3627 24.636C42.5862 24.9604 42.6439 25.3604 42.5213 25.7336C42.3987 26.1069 42.1142 26.3969 41.7407 26.5295C40.7487 26.8814 40.0873 27.7819 40.0554 28.8238C40.0441 29.1901 39.8814 29.5202 39.5972 29.7535C39.2777 30.0158 38.8449 30.1147 38.427 29.9941C37.4155 29.7022 36.345 30.0462 35.7 30.8704C35.4573 31.1808 35.0904 31.3588 34.6936 31.3588C34.2969 31.3588 33.93 31.1809 33.6871 30.8704C33.1947 30.2409 32.4541 29.8915 31.6812 29.8915C31.4419 29.8915 31.1994 29.925 30.9603 29.994C30.5383 30.1157 30.1069 30.0137 29.7899 29.7534C29.5057 29.5201 29.3429 29.19 29.3318 28.8238C29.2999 27.7819 28.6384 26.8814 27.6464 26.5294C27.273 26.3969 26.9885 26.1069 26.8658 25.7336C26.7432 25.3604 26.801 24.9603 27.0245 24.6359C27.6177 23.7745 27.6177 22.6614 27.0245 21.8C26.801 21.4756 26.7432 21.0755 26.8658 20.7022C26.9885 20.329 27.273 20.0389 27.6464 19.9064C28.6384 19.5545 29.2999 18.6539 29.3318 17.612C29.3438 17.2197 29.5347 16.8625 29.8557 16.6318C30.1766 16.4011 30.5791 16.3319 30.9602 16.4418C31.9715 16.7338 33.0422 16.3897 33.6871 15.5655C33.9299 15.2551 34.2967 15.077 34.6936 15.077C35.0904 15.077 35.4572 15.255 35.7 15.5654C36.3449 16.3897 37.4151 16.7337 38.4269 16.4418C38.8078 16.3317 39.2103 16.401 39.5314 16.6317C39.8524 16.8624 40.0435 17.2197 40.0553 17.6119C40.0873 18.6538 40.7487 19.5545 41.7407 19.9064C42.1142 20.0388 42.3986 20.3289 42.5213 20.7021C42.6439 21.0753 42.5862 21.4755 42.3627 21.7998C41.7693 22.6613 41.7693 23.7746 42.3627 24.636V24.636Z" fill="white"/>
<path d="M34.6935 17.9375C31.7507 17.9375 29.3565 20.3056 29.3565 23.2164C29.3565 26.1272 31.7507 28.4953 34.6935 28.4953C37.6362 28.4953 40.0304 26.1272 40.0304 23.2164C40.0304 20.3056 37.6362 17.9375 34.6935 17.9375V17.9375ZM34.6935 27.2357C32.4529 27.2357 30.63 25.4326 30.63 23.2165C30.63 21.0003 32.4529 19.1972 34.6935 19.1972C36.9341 19.1972 38.7569 21.0002 38.7569 23.2165C38.7569 25.4327 36.934 27.2357 34.6935 27.2357Z" fill="white"/>
</svg>
