<svg width="43" height="43" viewBox="0 0 43 43" fill="none" xmlns="http://www.w3.org/2000/svg">
<g clip-path="url(#clip0)">
<path d="M30.6768 0H5.26411C2.53657 0.00352954 0.326283 2.21381 0.322754 4.94135V30.2954C0.326283 33.023 2.53657 35.2333 5.26411 35.2368H13.0291V33.825H5.26411C3.3158 33.8227 1.73686 32.2437 1.73457 30.2954V18.3536H6.26791C6.68625 18.323 7.00064 17.9591 6.97002 17.5407C6.96411 17.46 6.9454 17.3808 6.91452 17.306C6.28714 15.8783 6.93587 14.2124 8.36357 13.585C9.79127 12.9576 11.4572 13.6064 12.0846 15.0341C12.4027 15.758 12.4027 16.5821 12.0846 17.306C11.9102 17.6708 12.0646 18.1078 12.4294 18.2822C12.5237 18.3273 12.6267 18.3517 12.7312 18.3537H17.2645V22.5891C17.0313 22.5494 16.7952 22.5298 16.5586 22.5305C14.2194 22.5297 12.3226 24.4254 12.3217 26.7645C12.3211 28.4497 13.3197 29.9749 14.8645 30.6485L15.4292 29.3552C13.9992 28.7332 13.3442 27.0697 13.9662 25.6397C14.415 24.6079 15.4335 23.9411 16.5586 23.9424C16.9477 23.9423 17.3324 24.0235 17.6881 24.1809C18.0454 24.3369 18.4615 24.1736 18.6174 23.8163C18.6562 23.7274 18.6763 23.6314 18.6764 23.5343V18.3536H22.2659C22.2257 18.5867 22.2056 18.8229 22.2059 19.0595C22.2101 21.0708 23.6245 22.8035 25.5942 23.2102L25.8766 21.8274C24.5634 21.5557 23.6206 20.4005 23.6177 19.0595C23.6176 18.6705 23.6989 18.2857 23.8563 17.93C24.0122 17.5728 23.849 17.1566 23.4917 17.0007C23.4028 16.9619 23.3068 16.9419 23.2097 16.9418H18.6764V13.3522C18.9095 13.3924 19.1457 13.4125 19.3823 13.4122C21.7215 13.4122 23.6177 11.516 23.6177 9.1768C23.6177 6.8376 21.7215 4.94135 19.3823 4.94135C19.1457 4.94109 18.9095 4.96121 18.6764 5.00135V1.41181H30.6768C32.6251 1.41411 34.204 2.99305 34.2063 4.94135V16.9418H29.673C29.2831 16.942 28.9673 17.2582 28.9674 17.648C28.9675 17.7451 28.9875 17.8411 29.0264 17.93C29.1838 18.2857 29.2651 18.6705 29.265 19.0595H30.6768C30.677 18.8229 30.6569 18.5867 30.6168 18.3536H34.9122C35.3021 18.3536 35.6181 18.0375 35.6181 17.6477V4.94135C35.6146 2.21381 33.4043 0.00352954 30.6768 0ZM19.3823 6.35317C20.9417 6.35317 22.2059 7.61736 22.2059 9.1768C22.2059 10.7362 20.9417 12.0004 19.3823 12.0004C18.9932 12.0005 18.6085 11.9192 18.2528 11.7618C17.8955 11.6059 17.4794 11.7692 17.3235 12.1264C17.2847 12.2154 17.2646 12.3114 17.2645 12.4084V16.8832H13.6799C13.7153 16.6692 13.7337 16.4528 13.735 16.2359C13.735 16.2232 13.735 16.2119 13.735 16.1992C13.735 16.1865 13.735 16.1843 13.735 16.1773C13.735 13.8381 11.8388 11.9418 9.49955 11.9418C7.16035 11.9418 5.26411 13.8381 5.26411 16.1773C5.26411 16.1843 5.26411 16.1921 5.26411 16.1992C5.26411 16.2062 5.26411 16.2232 5.26411 16.2359C5.26543 16.4528 5.28378 16.6692 5.31917 16.8832H1.73457V4.94135C1.73686 2.99305 3.3158 1.41411 5.26411 1.41181H17.2645V5.94515C17.2647 6.33499 17.581 6.65088 17.9708 6.65071C18.0679 6.65062 18.1639 6.63059 18.2528 6.59176C18.6085 6.43435 18.9932 6.35308 19.3823 6.35317Z" fill="white"/>
<path d="M41.1673 30.3413L35.2327 26.2548L32.9534 20.1649C32.8174 19.7995 32.411 19.6136 32.0456 19.7496C32.0325 19.7545 32.0195 19.7598 32.0067 19.7654L27.4183 21.7949C27.0744 21.9467 26.9099 22.3416 27.0442 22.6928C27.1205 22.8905 27.1918 23.0401 27.2673 23.1954C27.3428 23.3507 27.4127 23.4961 27.4981 23.7255C28.0461 25.1897 27.3083 26.8216 25.847 27.3772C24.3864 27.9235 22.7594 27.1824 22.2131 25.7217C22.076 25.3553 22.0167 24.9645 22.0386 24.574C22.0591 24.1847 21.7601 23.8525 21.3707 23.832C21.2732 23.8269 21.1757 23.8421 21.0842 23.8766L16.1796 25.724C15.8154 25.8612 15.631 26.2672 15.7673 26.6318L17.5279 31.3352C17.2945 31.3778 17.0653 31.441 16.8431 31.5244C14.6465 32.343 13.5294 34.7874 14.3479 36.9841C15.1665 39.1808 17.6109 40.2979 19.8076 39.4793C20.0338 39.395 20.2523 39.2916 20.4609 39.1701L21.7231 42.5415C21.8599 42.9066 22.2666 43.0917 22.6318 42.9549C22.6322 42.9547 22.6326 42.9545 22.633 42.9545L29.6271 40.3193C30.0665 41.2636 30.8749 41.9855 31.8627 42.3156L32.3089 40.9744C31.727 40.7783 31.2435 40.3651 30.9592 39.8209L33.0875 39.0197C33.7866 40.9861 35.649 42.2986 37.7359 42.2958V40.884C35.7916 40.8721 34.2183 39.2988 34.2064 37.3545C34.2064 37.1673 34.1319 36.9878 33.9995 36.8554L31.5416 34.3975C31.1771 34.0298 31.136 33.4512 31.4448 33.0358C31.6247 32.793 31.9023 32.6418 32.2037 32.6221C32.5056 32.5967 32.8028 32.7079 33.0141 32.9249L37.9427 37.8536L38.9409 36.8554L37.4825 35.397C37.8418 34.3225 37.8196 33.157 37.4196 32.0969L36.0968 28.5638L40.3626 31.5011C40.928 31.898 41.2649 32.5454 41.2654 33.2362V42.3544H42.6772V33.2362C42.6763 32.0827 42.1127 31.0022 41.1673 30.3413ZM36.0975 32.5917C36.2925 33.1101 36.3631 33.6668 36.3036 34.2174L34.0122 31.9268C33.0664 30.9568 31.5134 30.9373 30.5434 31.883C29.5734 32.8288 29.5539 34.3818 30.4996 35.3518C30.514 35.3666 30.5286 35.3812 30.5434 35.3956L32.7762 37.6284L22.8003 41.3859L21.4548 37.7907C21.3711 37.5673 21.1802 37.4014 20.9473 37.3496C20.897 37.3384 20.8456 37.3327 20.7941 37.3326C20.6094 37.3324 20.4321 37.4047 20.3 37.5338C19.1665 38.6047 17.3793 38.554 16.3083 37.4204C15.2374 36.2869 15.2881 34.4997 16.4217 33.4288C16.6884 33.1768 17.0014 32.9794 17.3436 32.8472C17.5684 32.7639 17.8031 32.7108 18.0418 32.6891C18.1886 32.6711 18.3367 32.6661 18.4844 32.6742C18.8737 32.6946 19.2059 32.3956 19.2263 32.0063C19.2314 31.9095 19.2165 31.8127 19.1825 31.722L17.3387 26.799L20.7002 25.5333C21.1414 27.8305 23.3613 29.335 25.6585 28.8939C25.8932 28.8488 26.1237 28.784 26.3475 28.7C28.5364 27.8695 29.6428 25.4264 28.8231 23.2334C28.7582 23.0598 28.6996 22.9221 28.6431 22.7993L31.8903 21.3614L36.0975 32.5917Z" fill="white"/>
</g>
<defs>
<clipPath id="clip0">
<rect width="43" height="43" fill="white"/>
</clipPath>
</defs>
</svg>
