<svg width="27" height="27" viewBox="0 0 27 27" fill="none" xmlns="http://www.w3.org/2000/svg">
    <g clip-path="url(#clip0_89_577)">
        <path d="M23.7719 20.6051V10.1044L25.847 12.1969L26.9703 11.0829L15.9787 0L4.80933 11.0781L5.92355 12.2014L7.95052 10.1909V20.6051H23.7719ZM17.4433 19.0231H14.2791V14.2239H17.4433V19.0231ZM22.1896 8.50919V19.0231H19.0254V12.6418H12.697V19.0231H9.53276V8.62186L15.9696 2.2375L22.1896 8.50919Z" fill="#7B7B7B"/>
        <path d="M15.8613 11.0596C16.7335 11.0596 17.4433 10.35 17.4433 9.47757C17.4433 8.60519 16.7335 7.89554 15.8613 7.89554C14.9889 7.89554 14.2791 8.60519 14.2791 9.47757C14.2791 10.35 14.9889 11.0596 15.8613 11.0596V11.0596Z" fill="#7B7B7B"/>
        <path d="M23.5288 23.3795L23.9715 23.8221H7.8564L8.29908 23.3795L7.18033 22.2607L4.82788 24.6132L7.18033 26.9656L8.29908 25.8469L7.8564 25.4042H23.9715L23.5288 25.8469L24.6476 26.9656L27 24.6132L24.6476 22.2607L23.5288 23.3795Z" fill="#7B7B7B"/>
        <path d="M1.13482 17.4172L0 18.5194L2.35224 20.9409L4.71293 18.5804L3.59418 17.4617L3.1515 17.9044V4.26778L3.64691 4.76319L4.76566 3.64444L2.36048 1.23926L0.00803377 3.59171L1.12679 4.71046L1.56947 4.26778V17.8644L1.13482 17.4172Z" fill="#7B7B7B"/>
    </g>
    <defs>
        <clipPath id="clip0_89_577">
            <rect width="27" height="27" fill="white"/>
        </clipPath>
    </defs>
</svg>
