<svg width="44" height="36" viewBox="0 0 44 36" fill="none" xmlns="http://www.w3.org/2000/svg">
<path d="M44 0H0V36H44V0Z" fill="#A21C26"/>
<path d="M44 0H0V36H44V0Z" fill="#A21C26"/>
<path d="M39 14.0762V17H6V14H38.901L39 14.0762Z" fill="white"/>
<path d="M39 13.5455V14H6V13.8384L7.06425 13H38.3235L39 13.5455Z" fill="white"/>
<path d="M34 11H11L12.2957 10H32.7043L34 11Z" fill="white"/>
<path d="M9 14H6V33H9V14Z" fill="white"/>
<path d="M39 14.0563V33H37V14H38.924L39 14.0563Z" fill="white"/>
<path d="M24 6.6906L22.3713 7.57L20.0435 8.82432L18.7767 9.50602L17.2056 10.3513L15.9471 11.0262L14.3678 11.8783L13.1175 12.5532L11.53 13.4053L10.2797 14.0802L9.09519 14.721L8.70858 14.9255L7.82844 15.4027L6.10928 16.323L6.04348 16.3639L3.55111 17.7001L3 18V15.4436L3.08225 15.4027L5.7309 13.9712L6.79201 13.4053L8.37133 12.5532L9.62985 11.8783L11.2009 11.0262L12.4595 10.3513L14.0306 9.50602L15.2973 8.82432L21.1951 5.6476L22.2808 5.06135L22.3713 5.01363L22.4042 5L22.4618 5.06135L23.3255 5.968L24 6.6906Z" fill="white"/>
<path d="M42 15.4436V18L41.4409 17.7001L39.2702 16.5343L38.9495 16.3639L37.1652 15.4027L36.6719 15.1369L35.9072 14.721L34.7232 14.0802L33.4652 13.4053L31.8864 12.5532L30.6284 11.8783L29.0497 11.0262L27.7917 10.3513L26.2212 9.50602L24.9632 8.82432L22.628 7.57L21 6.6906L21.7071 5.94755L22.5376 5.06135L22.6034 5L22.628 5.01363L22.7185 5.06135L23.8532 5.67488L29.7075 8.82432L30.9655 9.50602L32.536 10.3513L33.7941 11.0262L35.3728 11.8783L36.6308 12.5532L38.2095 13.4053L38.8837 13.7735L41.9096 15.4027L42 15.4436Z" fill="white"/>
<path d="M17.3545 15.7439L16.8188 15.1234L6.16015 21.4016L6.69582 22.0221L17.3545 15.7439Z" fill="white"/>
<path d="M37.8321 21.5226L38.3678 20.9021L27.7091 14.6241L27.1734 15.2445L37.8321 21.5226Z" fill="white"/>
<path d="M22.5 6C23.3284 6 24 5.55229 24 5C24 4.44771 23.3284 4 22.5 4C21.6716 4 21 4.44771 21 5C21 5.55229 21.6716 6 22.5 6Z" fill="white"/>
</svg>
