<svg width="19" height="17" viewBox="0 0 19 17" fill="none" xmlns="http://www.w3.org/2000/svg">
<path d="M9.5 0C5.81682 0 2.82031 2.68109 2.82031 5.97656C2.82031 7.09 3.16502 8.1766 3.8174 9.1193L9.11978 16.7646C9.22135 16.911 9.40029 17 9.59274 17C9.59422 17 9.59567 17 9.59715 17C9.79127 16.9986 9.97058 16.9069 10.0703 16.7579L15.2375 9.03855C15.8539 8.11577 16.1797 7.05696 16.1797 5.97656C16.1797 2.68109 13.1832 0 9.5 0ZM14.2821 8.52716L9.58431 15.5452L4.76362 8.5945C4.2206 7.80984 3.92617 6.90459 3.92617 5.97656C3.92617 3.23033 6.43068 0.989453 9.5 0.989453C12.5693 0.989453 15.0701 3.23033 15.0701 5.97656C15.0701 6.87706 14.7951 7.75917 14.2821 8.52716Z" fill="white"/>
<path d="M9.5 2.98828C7.65841 2.98828 6.16016 4.32882 6.16016 5.97656C6.16016 7.61377 7.63403 8.96484 9.5 8.96484C11.389 8.96484 12.8398 7.59578 12.8398 5.97656C12.8398 4.32882 11.3416 2.98828 9.5 2.98828ZM9.5 7.97539C8.26585 7.97539 7.26602 7.07781 7.26602 5.97656C7.26602 4.87807 8.27227 3.97773 9.5 3.97773C10.7277 3.97773 11.7303 4.87807 11.7303 5.97656C11.7303 7.06174 10.7537 7.97539 9.5 7.97539Z" fill="white"/>
</svg>
