<svg width="43" height="43" viewBox="0 0 43 43" fill="none" xmlns="http://www.w3.org/2000/svg">
<path d="M35.3253 13.0568C35.1004 12.7134 34.9908 12.3073 35.0123 11.8974L35.1107 10.1105C35.1418 9.5436 35.0072 8.97987 34.7232 8.48823C34.4391 7.99658 34.0181 7.59831 33.5114 7.34208L31.9299 6.54196C31.565 6.3582 31.2689 6.06173 31.0857 5.69649L30.2869 4.11296C30.0313 3.60621 29.6337 3.18492 29.1425 2.90063C28.6513 2.61633 28.0879 2.48136 27.5212 2.51222L25.7374 2.61056C25.3283 2.63188 24.9231 2.52189 24.581 2.29663L23.1056 1.32241C22.6292 1.00734 22.0706 0.839355 21.4994 0.839355C20.9282 0.839355 20.3697 1.00734 19.8932 1.32241L18.4178 2.29663C18.0759 2.52195 17.6709 2.63187 17.2621 2.61031L15.4775 2.51205C14.9108 2.48084 14.3473 2.61563 13.8561 2.89992C13.3649 3.18421 12.9672 3.60563 12.712 4.11254L11.9131 5.69623C11.73 6.06145 11.434 6.35794 11.0692 6.54179L9.48757 7.34191C8.98119 7.59846 8.56044 7.99687 8.2767 8.48853C7.99295 8.98019 7.85847 9.54382 7.88968 10.1106L7.98803 11.8973C8.00963 12.3072 7.90002 12.7134 7.6751 13.0568L6.70198 14.5346C6.38736 15.012 6.21967 15.5712 6.21967 16.1429C6.21967 16.7146 6.38736 17.2738 6.70198 17.7512L7.67468 19.2287C7.89951 19.572 8.00912 19.9779 7.98761 20.3877L7.88926 22.1747C7.85813 22.7416 7.99267 23.3052 8.27647 23.7969C8.56028 24.2885 8.98107 24.6869 9.48748 24.9434L11.0688 25.7432C11.4338 25.927 11.7299 26.2235 11.9131 26.5887L12.7119 28.1725C12.7448 28.2378 12.7798 28.3013 12.817 28.3632L7.73784 36.4484C7.68828 36.5273 7.66156 36.6184 7.66064 36.7115C7.65973 36.8047 7.68466 36.8963 7.73266 36.9761C7.78067 37.0559 7.84987 37.1209 7.93258 37.1638C8.01529 37.2067 8.10826 37.2258 8.20118 37.219L13.5785 36.8266L15.559 41.8411C15.5933 41.9278 15.6508 42.0032 15.7254 42.0592C15.7999 42.1151 15.8885 42.1492 15.9812 42.1578C15.9969 42.1592 16.0124 42.1599 16.0278 42.1599C16.1131 42.1599 16.1969 42.1382 16.2716 42.097C16.3462 42.0557 16.4091 41.9962 16.4544 41.924L21.5 33.8929L26.5456 41.9243C26.591 41.9965 26.6539 42.056 26.7285 42.0973C26.8031 42.1386 26.8869 42.1602 26.9722 42.1602C26.9876 42.1602 27.0032 42.1595 27.0188 42.1581C27.1116 42.1495 27.2001 42.1154 27.2747 42.0595C27.3492 42.0036 27.4068 41.9281 27.441 41.8414L29.4215 36.8266L34.7989 37.219C34.8918 37.2258 34.9848 37.2067 35.0675 37.1638C35.1502 37.1209 35.2194 37.0559 35.2674 36.9761C35.3154 36.8963 35.3403 36.8047 35.3394 36.7115C35.3385 36.6184 35.3118 36.5273 35.2622 36.4484L30.183 28.3634C30.2202 28.3014 30.2552 28.2379 30.2881 28.1728L31.0869 26.5889C31.2701 26.2237 31.566 25.9272 31.9309 25.7435L33.5129 24.9434C34.0192 24.6869 34.44 24.2885 34.7237 23.7968C35.0074 23.3051 35.1419 22.7415 35.1107 22.1747L35.0123 20.3878C34.9908 19.978 35.1004 19.5721 35.3253 19.2288L36.2981 17.7508C36.6127 17.2734 36.7804 16.7142 36.7804 16.1425C36.7804 15.5707 36.6127 15.0115 36.2981 14.5342L35.3253 13.0568ZM16.1307 40.5452L14.3798 36.1119C14.3404 36.0121 14.2701 35.9275 14.1792 35.8704C14.0883 35.8133 13.9816 35.7867 13.8745 35.7945L9.12098 36.1414L13.512 29.1517C14.0698 29.5912 14.7687 29.8122 15.4778 29.7732L17.2615 29.6747C17.6706 29.6535 18.0757 29.7635 18.4179 29.9886L19.4935 30.6989L20.905 32.9456L16.1307 40.5452ZM33.8793 36.1414L29.1258 35.7942C29.0187 35.7864 28.912 35.813 28.8211 35.8701C28.7302 35.9272 28.6599 36.0118 28.6205 36.1117L26.8693 40.5452L21.1381 31.4225C21.8284 31.5124 22.5278 31.3492 23.1069 30.9629L24.5825 29.9887C24.9244 29.7638 25.3293 29.6538 25.738 29.675L27.5225 29.7735C28.2316 29.8125 28.9305 29.5915 29.4882 29.152L33.8793 36.1414ZM35.4564 17.1968L34.4837 18.6743C34.1405 19.1982 33.9733 19.8178 34.0062 20.4431L34.1046 22.2302C34.125 22.6015 34.037 22.9708 33.8511 23.2929C33.6652 23.6151 33.3896 23.8761 33.0579 24.0442L31.4763 24.8442C30.9191 25.1247 30.467 25.5774 30.1873 26.135L29.3883 27.7192C29.2214 28.0512 28.9611 28.3271 28.6396 28.5132C28.318 28.6994 27.949 28.7875 27.578 28.7669L25.7932 28.6685C25.1685 28.6359 24.5497 28.8038 24.0271 29.1478L22.5516 30.122C22.2398 30.3284 21.8741 30.4385 21.5001 30.4385C21.1262 30.4385 20.7605 30.3284 20.4487 30.122L18.9735 29.1478C18.4947 28.8328 17.9342 28.6647 17.361 28.6642C17.3095 28.6642 17.2579 28.6655 17.2064 28.6684L15.4222 28.7668C15.0512 28.7874 14.6822 28.6991 14.3606 28.513C14.039 28.3268 13.7787 28.0508 13.6117 27.7189L12.8128 26.1349C12.5331 25.5772 12.081 25.1245 11.5237 24.844L9.9426 24.0448C9.61082 23.8767 9.33516 23.6157 9.14925 23.2935C8.96334 22.9714 8.87522 22.6021 8.89565 22.2307L8.99399 20.4437C9.02691 19.8184 8.85967 19.1988 8.51654 18.6749L7.54383 17.1969C7.33776 16.884 7.22793 16.5175 7.22793 16.1429C7.22793 15.7682 7.33776 15.4018 7.54383 15.0889L8.51654 13.6112C8.85979 13.0872 9.02704 12.4674 8.99399 11.8419L8.89565 10.055C8.87517 9.68368 8.96325 9.31441 9.14911 8.99227C9.33498 8.67014 9.61061 8.40908 9.94234 8.24096L11.5239 7.44109C12.0812 7.16054 12.5332 6.70789 12.8129 6.15025L13.6119 4.56631C13.7789 4.23438 14.0391 3.95842 14.3607 3.77229C14.6823 3.58616 15.0512 3.49796 15.4222 3.51852L17.207 3.6167C17.8317 3.64901 18.4504 3.48113 18.9731 3.13748L20.4484 2.16326C20.7602 1.95708 21.1256 1.84715 21.4994 1.84715C21.8731 1.84715 22.2386 1.95708 22.5503 2.16326L24.0255 3.13748C24.5483 3.48165 25.1674 3.64965 25.7924 3.61695L27.5765 3.51869C27.9475 3.4983 28.3164 3.58659 28.638 3.77273C28.9596 3.95887 29.2199 4.23478 29.387 4.56664L30.1858 6.15034C30.4656 6.70797 30.9177 7.16059 31.4749 7.44109L33.0563 8.24138C33.3882 8.40931 33.6641 8.67029 33.8502 8.99244C34.0363 9.31459 34.1245 9.68397 34.1041 10.0554L34.006 11.8419C33.9731 12.4672 34.1403 13.0868 34.4835 13.6107L35.4562 15.0883C35.6624 15.4012 35.7723 15.7678 35.7723 16.1425C35.7723 16.5173 35.6624 16.8839 35.4562 17.1968H35.4564Z" fill="white"/>
<path d="M21.5 5.41895C15.5959 5.41895 10.792 10.2293 10.792 16.1419C10.792 22.0545 15.5959 26.8648 21.5 26.8648C27.4041 26.8648 32.208 22.0542 32.208 16.1417C32.208 10.2292 27.4041 5.41895 21.5 5.41895ZM21.5 25.857C16.1513 25.857 11.7998 21.4988 11.7998 16.1419C11.7998 10.785 16.1513 6.42676 21.5 6.42676C26.8487 6.42676 31.2002 10.785 31.2002 16.1417C31.2002 21.4985 26.8487 25.857 21.5 25.857Z" fill="white"/>
<path d="M26.9693 14.0196L23.5025 13.515L21.952 10.3686C21.9104 10.2842 21.8461 10.2131 21.7662 10.1634C21.6863 10.1137 21.5941 10.0874 21.5 10.0874C21.4059 10.0874 21.3137 10.1137 21.2339 10.1634C21.154 10.2131 21.0896 10.2842 21.048 10.3686L19.4973 13.515L16.0307 14.0196C15.9377 14.0331 15.8503 14.0724 15.7785 14.1329C15.7066 14.1935 15.6531 14.273 15.6241 14.3624C15.595 14.4518 15.5915 14.5475 15.614 14.6387C15.6365 14.73 15.684 14.8131 15.7513 14.8788L18.2603 17.328L17.6679 20.7867C17.652 20.8794 17.6624 20.9746 17.6979 21.0617C17.7333 21.1488 17.7924 21.2243 17.8685 21.2795C17.9446 21.3348 18.0347 21.3676 18.1285 21.3744C18.2223 21.3811 18.3161 21.3614 18.3993 21.3176L21.5 19.6851L24.6005 21.3175C24.6837 21.3613 24.7775 21.381 24.8713 21.3743C24.965 21.3675 25.0551 21.3347 25.1312 21.2795C25.2073 21.2242 25.2664 21.1488 25.3019 21.0617C25.3373 20.9746 25.3477 20.8794 25.3319 20.7867L24.7397 17.328L27.2487 14.8788C27.316 14.8131 27.3636 14.73 27.386 14.6387C27.4085 14.5475 27.405 14.4518 27.376 14.3624C27.3469 14.273 27.2934 14.1935 27.2216 14.1329C27.1497 14.0724 27.0623 14.0331 26.9693 14.0196ZM23.8464 16.7916C23.788 16.8486 23.7443 16.919 23.7191 16.9966C23.6939 17.0743 23.688 17.1569 23.7017 17.2373L24.1662 19.95L21.7352 18.6696C21.6628 18.6315 21.5822 18.6115 21.5004 18.6115C21.4186 18.6115 21.3381 18.6315 21.2657 18.6696L18.8341 19.9499L19.2987 17.2372C19.3125 17.1567 19.3065 17.0741 19.2813 16.9965C19.2562 16.9188 19.2125 16.8485 19.1541 16.7915L17.1854 14.8698L19.9051 14.474C19.986 14.4622 20.0628 14.431 20.1289 14.3829C20.195 14.3348 20.2485 14.2714 20.2846 14.1981L21.5 11.7313L22.7156 14.1983C22.7517 14.2716 22.8052 14.335 22.8713 14.3831C22.9374 14.4311 23.0142 14.4624 23.095 14.4742L25.815 14.87L23.8464 16.7916Z" fill="white"/>
<path d="M19.8845 8.82491C19.9183 8.82491 19.9521 8.82153 19.9852 8.81483C20.112 8.78905 20.2418 8.76629 20.3711 8.74697C20.5033 8.72722 20.6223 8.65578 20.7018 8.54834C20.7813 8.44091 20.8148 8.3063 20.7951 8.17411C20.7754 8.04193 20.7039 7.923 20.5965 7.8435C20.489 7.76399 20.3544 7.73042 20.2222 7.75016C20.0758 7.77208 19.9283 7.79795 19.785 7.82701C19.6625 7.85168 19.5535 7.92102 19.4792 8.02156C19.4049 8.1221 19.3706 8.24666 19.383 8.37105C19.3955 8.49544 19.4537 8.61077 19.5464 8.69465C19.6391 8.77852 19.7596 8.82495 19.8846 8.82491H19.8845Z" fill="white"/>
<path d="M18.5316 9.26604C18.6537 9.21311 18.7498 9.11404 18.7992 8.99045C18.8485 8.86686 18.8469 8.72878 18.7948 8.60634C18.7427 8.48391 18.6442 8.38706 18.521 8.33693C18.3977 8.2868 18.2596 8.28746 18.1368 8.33877C16.5839 8.99772 15.2594 10.0996 14.3289 11.5067C13.3984 12.9139 12.903 14.564 12.9046 16.2509C12.9046 16.3846 12.9577 16.5128 13.0522 16.6073C13.1467 16.7018 13.2749 16.7549 13.4085 16.7549C13.5422 16.7549 13.6703 16.7018 13.7648 16.6073C13.8593 16.5128 13.9124 16.3846 13.9124 16.2509C13.911 14.7616 14.3483 13.3049 15.1698 12.0627C15.9913 10.8205 17.1606 9.84775 18.5316 9.26604Z" fill="white"/>
</svg>
