<svg width="27" height="27" viewBox="0 0 27 27" fill="none" xmlns="http://www.w3.org/2000/svg">
    <path d="M26.9984 20.5028C26.9984 20.4953 26.9984 20.4888 26.9975 20.4814C26.9967 20.4764 26.9967 20.4715 26.9959 20.4666C26.995 20.4583 26.9934 20.4509 26.9926 20.4427C26.9918 20.4386 26.9918 20.4344 26.9901 20.4303C26.9885 20.4188 26.986 20.4064 26.9835 20.3949L23.0449 4.64504C22.9831 4.39455 22.7581 4.21863 22.4994 4.21863H4.4998C4.24187 4.21863 4.01696 4.39455 3.95431 4.64504L0.016506 20.3948C0.0132364 20.4064 0.0115489 20.4187 0.00907037 20.4303C0.00822661 20.4344 0.00822661 20.4385 0.00659184 20.4435C0.00574808 20.4509 0.00495706 20.4583 0.00332229 20.4666C0.00332229 20.4715 0.00247853 20.4765 0.00168751 20.4814C0.00168751 20.4888 0.000843755 20.4954 0.000843755 20.5028C0 20.5077 0 20.5135 0 20.5184C0 20.5226 0 20.5267 0 20.5308V22.2183C0 22.4004 0.0881724 22.5718 0.236462 22.6772C0.385596 22.7827 0.575968 22.8099 0.748147 22.7498L3.78366 21.6893L6.84718 22.7498C6.96583 22.7918 7.09603 22.7909 7.21632 22.7498L10.265 21.6893L13.3153 22.7498C13.434 22.7918 13.565 22.7918 13.6845 22.7498L16.734 21.6893L19.7835 22.7498C19.9038 22.7918 20.034 22.7918 20.1527 22.7498L23.203 21.6893L26.2525 22.7498C26.3127 22.7704 26.3753 22.7811 26.4371 22.7811C26.5525 22.7811 26.667 22.7456 26.7626 22.6772C26.9117 22.5718 26.9999 22.4004 26.9999 22.2183V20.5308C27 20.5267 27 20.5226 27 20.5184C26.9992 20.5135 26.9992 20.5077 26.9984 20.5028ZM25.6388 19.6582L23.3876 18.8747C23.2681 18.8335 23.138 18.8335 23.0185 18.8747L20.4403 19.7711L19.8809 15.2903L22.1797 14.4952L24.5585 15.3356L25.6388 19.6582ZM23.2938 10.2765L24.2314 14.0272L22.3684 13.3693C22.2489 13.3268 22.1171 13.3264 21.9968 13.368L19.7375 14.1496L19.2472 10.2246L21.1745 9.54931L23.2938 10.2765ZM22.0611 5.34372L22.9691 8.97582L21.3558 8.42211C21.2355 8.38092 21.1062 8.38135 20.9867 8.42332L19.1047 9.08251L18.6366 5.34372H22.0611ZM14.062 5.34378H17.5029L17.9627 9.01706L16.2406 8.42258C16.1219 8.3814 15.9917 8.3814 15.8731 8.42301L14.062 9.0525V5.34378ZM14.0619 10.2436L16.0577 9.54937L18.1176 10.2613L18.5946 14.0738L16.5792 13.3689C16.4597 13.3269 16.3287 13.3269 16.2092 13.3685L14.0619 14.115V10.2436ZM14.0619 15.3059L16.393 14.4952L18.7503 15.32L19.2975 19.7019L16.9195 18.8746C16.7992 18.8334 16.669 18.8334 16.5495 18.8746L14.0619 19.7398V15.3059ZM9.4963 5.34378H12.9372V9.0525L11.127 8.42301C11.0083 8.3814 10.8781 8.3814 10.7587 8.42258L9.03735 9.01706L9.4963 5.34378ZM12.9373 15.306V19.7398L10.4497 18.8746C10.331 18.8334 10.2008 18.8334 10.0806 18.8746L7.70174 19.7019L8.24971 15.3217L10.6063 14.4953L12.9373 15.306ZM8.88163 10.2612L10.9416 9.54931L12.9372 10.2435V14.115L10.7907 13.3685C10.6704 13.3269 10.5402 13.3269 10.42 13.3689L8.40454 14.0751L8.88163 10.2612ZM4.93897 5.34378H8.36256L7.89538 9.08256L6.01339 8.42338C5.89389 8.38135 5.76374 8.38092 5.64425 8.42216L4.03093 8.97588L4.93897 5.34378ZM3.7063 10.2765L5.82555 9.54937L7.752 10.2246L7.26257 14.1484L5.00157 13.3681C4.88128 13.3265 4.75108 13.3269 4.63079 13.3693L2.76862 14.0273L3.7063 10.2765ZM2.44067 15.3356L4.82032 14.4952L7.11918 15.2886L6.55888 19.7719L3.96749 18.8746C3.90732 18.854 3.84557 18.8433 3.78377 18.8433C3.72112 18.8433 3.65768 18.854 3.59756 18.8746L1.36129 19.6565L2.44067 15.3356ZM25.8743 21.4274L23.3877 20.5621C23.2682 20.5209 23.138 20.5209 23.0185 20.5621L19.9682 21.6226L16.9195 20.5621C16.7992 20.5209 16.669 20.5209 16.5495 20.5621L13.5 21.6226L10.4497 20.5621C10.331 20.5209 10.2008 20.5209 10.0806 20.5621L7.03022 21.6234L3.96749 20.5621C3.90732 20.5415 3.84557 20.5308 3.78377 20.5308C3.72112 20.5308 3.65768 20.5415 3.59756 20.5621L1.12483 21.4265V20.9305L3.78377 20.0019L6.84728 21.0623V21.0631C6.85387 21.0648 6.85883 21.0664 6.86458 21.0681C6.87528 21.0714 6.88683 21.0747 6.89838 21.0772C6.90497 21.0788 6.91157 21.0804 6.91816 21.0813C6.92886 21.0838 6.94041 21.0862 6.95112 21.0879C6.95439 21.0879 6.95771 21.0887 6.96103 21.0895C6.96678 21.0904 6.97258 21.0904 6.97748 21.0911C6.9816 21.0911 6.98492 21.0911 6.98903 21.092C7.00306 21.0928 7.01704 21.0936 7.03185 21.0936C7.04092 21.0936 7.04999 21.0928 7.05986 21.092C7.06645 21.092 7.07304 21.092 7.07963 21.0911C7.08955 21.0903 7.09941 21.0887 7.11011 21.0879C7.11586 21.087 7.12166 21.0862 7.12741 21.0854C7.13732 21.0838 7.14718 21.0813 7.15705 21.0788C7.16364 21.0772 7.16939 21.0763 7.17519 21.0747C7.1851 21.0722 7.19333 21.0689 7.20319 21.0665C7.2073 21.0648 7.21142 21.064 7.21637 21.0624L10.2651 20.0019L13.3154 21.0624C13.317 21.0632 13.3204 21.064 13.3228 21.0648C13.3303 21.0673 13.3385 21.0698 13.3467 21.0723C13.3558 21.0747 13.3649 21.0764 13.3731 21.0789C13.3813 21.0805 13.3888 21.0821 13.3962 21.0838C13.4069 21.0854 13.4176 21.0871 13.4275 21.0888C13.4341 21.0896 13.4407 21.0904 13.4473 21.0912C13.4654 21.0929 13.4819 21.0937 13.5 21.0937C13.5173 21.0937 13.5346 21.0929 13.5519 21.0912C13.5594 21.0904 13.5651 21.0896 13.5717 21.0888C13.5824 21.0871 13.5923 21.0855 13.603 21.0838C13.6105 21.0822 13.6187 21.0805 13.6269 21.0789C13.6351 21.0764 13.6434 21.0747 13.6524 21.0723C13.6607 21.0698 13.6689 21.0673 13.6772 21.0648C13.6796 21.064 13.6821 21.0632 13.6846 21.0624L16.7341 20.0019L19.7836 21.0624C19.7886 21.064 19.7919 21.0648 19.7968 21.0665C19.8059 21.0689 19.815 21.0722 19.8248 21.0747C19.8306 21.0763 19.8364 21.0772 19.843 21.0788C19.8529 21.0813 19.8627 21.0838 19.8726 21.0854C19.8783 21.0862 19.8841 21.087 19.8907 21.0879C19.9006 21.0895 19.9105 21.0904 19.9204 21.0911C19.9286 21.092 19.9385 21.092 19.9467 21.0928C19.9533 21.0928 19.9608 21.0936 19.9681 21.0936C19.9822 21.0936 19.9961 21.0928 20.011 21.092C20.0142 21.0911 20.0192 21.0911 20.0233 21.0904C20.0283 21.0904 20.0332 21.0895 20.0381 21.0895C20.0414 21.0887 20.0439 21.0879 20.0472 21.0879C20.0587 21.0862 20.0711 21.0838 20.0826 21.0813C20.0884 21.0804 20.095 21.0788 20.1016 21.0772C20.1123 21.0747 20.1238 21.0714 20.1345 21.0681C20.1411 21.0665 20.1461 21.0648 20.1527 21.0624L23.203 20.0019L25.8743 20.9314V21.4274Z" fill="#7B7B7B"/>
</svg>
