<svg width="27" height="27" viewBox="0 0 27 27" fill="none" xmlns="http://www.w3.org/2000/svg">
    <path d="M26.7334 10.5054C27.0889 10.15 27.0889 9.57353 26.7334 9.21802L25.3673 7.85185C25.0583 7.54288 24.5732 7.49706 24.2119 7.74261L21.3393 9.69497L23.2799 6.80303C23.5222 6.44187 23.4752 5.95963 23.1676 5.65212L20.2042 2.68868C19.9306 2.4151 19.514 2.34427 19.1655 2.5122L18.6531 2.7589L18.8985 2.21452C19.054 1.86951 18.9799 1.46435 18.7123 1.19671L17.7821 0.266591C17.4266 -0.0888637 16.8502 -0.0888637 16.4947 0.266591L9.26904 7.49215L19.5079 17.731L26.7334 10.5054Z" fill="#7B7B7B"/>
    <path d="M7.92356 8.83765L5.83185 10.9293C5.66114 11.1001 5.56519 11.3316 5.56519 11.573C5.56519 11.8144 5.66107 12.046 5.83185 12.2167L7.81601 14.2008C8.19829 14.5831 8.3837 15.1107 8.32471 15.6482C8.26578 16.1854 7.9701 16.6603 7.51354 16.9514C1.68328 20.6679 1.13981 21.2114 0.961266 21.39C-0.320422 22.6716 -0.320422 24.757 0.961266 26.0388C2.24423 27.3217 4.32974 27.3192 5.61003 26.0388C5.7887 25.8602 6.33235 25.3164 10.0486 19.4865C10.3389 19.031 10.8137 18.736 11.3511 18.677C11.8902 18.6181 12.4177 18.8026 12.7991 19.1839L14.7832 21.1681C15.1387 21.5236 15.7152 21.5236 16.0706 21.1681L18.1624 19.0763L7.92356 8.83765ZM4.25127 24.5684C3.74877 25.0709 2.93408 25.0709 2.43164 24.5684C1.92913 24.0659 1.92913 23.2512 2.43164 22.7488C2.93414 22.2462 3.74883 22.2462 4.25127 22.7488C4.75378 23.2512 4.75378 24.0659 4.25127 24.5684Z" fill="#7B7B7B"/>
</svg>
